%TF.GenerationSoftware,KiCad,Pcbnew,no-vcs-found-e2505cb~60~ubuntu17.04.1*%
%TF.CreationDate,2017-09-26T21:51:11+03:00*%
%TF.ProjectId,oakram,6F616B72616D2E6B696361645F706362,rev?*%
%TF.SameCoordinates,Original*%
%TF.FileFunction,Soldermask,Top*%
%TF.FilePolarity,Negative*%
%FSLAX46Y46*%
G04 Gerber Fmt 4.6, Leading zero omitted, Abs format (unit mm)*
G04 Created by KiCad (PCBNEW no-vcs-found-e2505cb~60~ubuntu17.04.1) date Tue Sep 26 21:51:11 2017*
%MOMM*%
%LPD*%
G01*
G04 APERTURE LIST*
%ADD10R,2.432000X0.908000*%
%ADD11C,2.100000*%
%ADD12R,1.400000X1.650000*%
%ADD13R,1.650000X1.400000*%
%ADD14R,2.950000X2.900000*%
%ADD15C,0.254000*%
G04 APERTURE END LIST*
D10*
%TO.C,U2*%
X128270000Y-114300000D03*
X128270000Y-113030000D03*
X128270000Y-111760000D03*
X128270000Y-110490000D03*
X128270000Y-109220000D03*
X128270000Y-107950000D03*
X128270000Y-106680000D03*
X128270000Y-105410000D03*
X128270000Y-104140000D03*
X128270000Y-102870000D03*
X138430000Y-114300000D03*
X138430000Y-113030000D03*
X138430000Y-111760000D03*
X138430000Y-110490000D03*
X138430000Y-109220000D03*
X138430000Y-107950000D03*
X138430000Y-106680000D03*
X138430000Y-105410000D03*
X138430000Y-104140000D03*
X138430000Y-102870000D03*
X128270000Y-88900000D03*
X128270000Y-90170000D03*
X128270000Y-91440000D03*
X128270000Y-92710000D03*
X128270000Y-93980000D03*
X128270000Y-95250000D03*
X128270000Y-96520000D03*
X128270000Y-97790000D03*
X128270000Y-99060000D03*
X128270000Y-100330000D03*
X138430000Y-88900000D03*
X138430000Y-90170000D03*
X138430000Y-91440000D03*
X138430000Y-92710000D03*
X138430000Y-93980000D03*
X138430000Y-95250000D03*
X138430000Y-96520000D03*
X138430000Y-97790000D03*
X138430000Y-99060000D03*
X138430000Y-100330000D03*
X128270000Y-101600000D03*
X138430000Y-101600000D03*
%TD*%
%TO.C,U1*%
X153670000Y-101600000D03*
X143510000Y-101600000D03*
X153670000Y-100330000D03*
X153670000Y-99060000D03*
X153670000Y-97790000D03*
X153670000Y-96520000D03*
X153670000Y-95250000D03*
X153670000Y-93980000D03*
X153670000Y-92710000D03*
X153670000Y-91440000D03*
X153670000Y-90170000D03*
X153670000Y-88900000D03*
X143510000Y-100330000D03*
X143510000Y-99060000D03*
X143510000Y-97790000D03*
X143510000Y-96520000D03*
X143510000Y-95250000D03*
X143510000Y-93980000D03*
X143510000Y-92710000D03*
X143510000Y-91440000D03*
X143510000Y-90170000D03*
X143510000Y-88900000D03*
X153670000Y-102870000D03*
X153670000Y-104140000D03*
X153670000Y-105410000D03*
X153670000Y-106680000D03*
X153670000Y-107950000D03*
X153670000Y-109220000D03*
X153670000Y-110490000D03*
X153670000Y-111760000D03*
X153670000Y-113030000D03*
X153670000Y-114300000D03*
X143510000Y-102870000D03*
X143510000Y-104140000D03*
X143510000Y-105410000D03*
X143510000Y-106680000D03*
X143510000Y-107950000D03*
X143510000Y-109220000D03*
X143510000Y-110490000D03*
X143510000Y-111760000D03*
X143510000Y-113030000D03*
X143510000Y-114300000D03*
%TD*%
D11*
%TO.C,X1*%
X121920000Y-76200000D03*
X124720000Y-77470000D03*
X121920000Y-78740000D03*
X124720000Y-80010000D03*
X121920000Y-83820000D03*
X121920000Y-81280000D03*
X124720000Y-82550000D03*
X124720000Y-85090000D03*
X121920000Y-88900000D03*
X124720000Y-95250000D03*
X121920000Y-86360000D03*
X124720000Y-92710000D03*
X124720000Y-87630000D03*
X124720000Y-90170000D03*
X121920000Y-91440000D03*
X121920000Y-93980000D03*
X121920000Y-99060000D03*
X121920000Y-109220000D03*
X124720000Y-105410000D03*
X121920000Y-96520000D03*
X124720000Y-110490000D03*
X121920000Y-106680000D03*
X124720000Y-102870000D03*
X124720000Y-115570000D03*
X124720000Y-97790000D03*
X124720000Y-100330000D03*
X121920000Y-101600000D03*
X121920000Y-104140000D03*
X124720000Y-107950000D03*
X121920000Y-111760000D03*
X121920000Y-114300000D03*
X124720000Y-113030000D03*
X121920000Y-121920000D03*
X124720000Y-118110000D03*
X124720000Y-120650000D03*
X121920000Y-124460000D03*
X124720000Y-125730000D03*
X121920000Y-119380000D03*
X121920000Y-116840000D03*
X124720000Y-123190000D03*
%TD*%
%TO.C,X2*%
X160280000Y-123190000D03*
X157480000Y-116840000D03*
X157480000Y-119380000D03*
X160280000Y-125730000D03*
X157480000Y-124460000D03*
X160280000Y-120650000D03*
X160280000Y-118110000D03*
X157480000Y-121920000D03*
X160280000Y-113030000D03*
X157480000Y-114300000D03*
X157480000Y-111760000D03*
X160280000Y-107950000D03*
X157480000Y-104140000D03*
X157480000Y-101600000D03*
X160280000Y-100330000D03*
X160280000Y-97790000D03*
X160280000Y-115570000D03*
X160280000Y-102870000D03*
X157480000Y-106680000D03*
X160280000Y-110490000D03*
X157480000Y-96520000D03*
X160280000Y-105410000D03*
X157480000Y-109220000D03*
X157480000Y-99060000D03*
X157480000Y-93980000D03*
X157480000Y-91440000D03*
X160280000Y-90170000D03*
X160280000Y-87630000D03*
X160280000Y-92710000D03*
X157480000Y-86360000D03*
X160280000Y-95250000D03*
X157480000Y-88900000D03*
X160280000Y-85090000D03*
X160280000Y-82550000D03*
X157480000Y-81280000D03*
X157480000Y-83820000D03*
X160280000Y-80010000D03*
X157480000Y-78740000D03*
X160280000Y-77470000D03*
X157480000Y-76200000D03*
%TD*%
D12*
%TO.C,C1*%
X130540000Y-116205000D03*
X128540000Y-116205000D03*
%TD*%
%TO.C,C3*%
X145780000Y-116205000D03*
X143780000Y-116205000D03*
%TD*%
D13*
%TO.C,C6*%
X140970000Y-88630000D03*
X140970000Y-86630000D03*
%TD*%
D14*
%TO.C,C7*%
X138445000Y-82550000D03*
X143495000Y-82550000D03*
%TD*%
D15*
G36*
X147447000Y-123317000D02*
X134493000Y-123317000D01*
X134493000Y-120777000D01*
X147447000Y-120777000D01*
X147447000Y-123317000D01*
X147447000Y-123317000D01*
G37*
X147447000Y-123317000D02*
X134493000Y-123317000D01*
X134493000Y-120777000D01*
X147447000Y-120777000D01*
X147447000Y-123317000D01*
M02*
