M48
;DRILL file {KiCad no-vcs-found-e2505cb~60~ubuntu17.04.1} date Tue Sep 26 21:51:15 2017
;FORMAT={-:-/ absolute / inch / decimal}
FMAT,2
INCH,TZ
T1C0.012
T2C0.039
%
G90
G05
M72
T1
X5.025Y-4.575
X5.05Y-3.475
X5.075Y-4.8
X5.1Y-3.
X5.1Y-4.9
X5.125Y-3.75
X5.125Y-3.9
X5.15Y-3.625
X5.175Y-4.1
X5.175Y-4.575
X5.225Y-4.05
X5.275Y-4.025
X5.275Y-4.1506
X5.3Y-3.
X5.3Y-4.95
X5.325Y-4.2
X5.35Y-3.7
X5.35Y-4.
X5.35Y-4.275
X5.375Y-3.25
X5.45Y-3.175
X5.45Y-3.325
X5.45Y-4.55
X5.5Y-3.
X5.5Y-4.95
X5.55Y-3.35
X5.55Y-3.525
X5.55Y-3.675
X5.55Y-4.025
X5.575Y-3.75
X5.575Y-3.9
X5.625Y-4.575
X5.65Y-3.175
X5.65Y-3.325
X5.7Y-3.
X5.7Y-4.95
X5.725Y-3.25
X5.775Y-4.575
X5.85Y-4.
X5.85Y-4.15
X5.875Y-4.25
X5.9Y-3.
X5.9Y-4.3
X5.9Y-4.9
X5.925Y-4.35
X5.95Y-3.8
X5.95Y-4.4
X5.975Y-4.45
X6.05Y-3.45
X6.15Y-3.75
T2
X4.8Y-3.
X4.8Y-3.1
X4.8Y-3.2
X4.8Y-3.3
X4.8Y-3.4
X4.8Y-3.5
X4.8Y-3.6
X4.8Y-3.7
X4.8Y-3.8
X4.8Y-3.9
X4.8Y-4.
X4.8Y-4.1
X4.8Y-4.2
X4.8Y-4.3
X4.8Y-4.4
X4.8Y-4.5
X4.8Y-4.6
X4.8Y-4.7
X4.8Y-4.8
X4.8Y-4.9
X4.9102Y-3.05
X4.9102Y-3.15
X4.9102Y-3.25
X4.9102Y-3.35
X4.9102Y-3.45
X4.9102Y-3.55
X4.9102Y-3.65
X4.9102Y-3.75
X4.9102Y-3.85
X4.9102Y-3.95
X4.9102Y-4.05
X4.9102Y-4.15
X4.9102Y-4.25
X4.9102Y-4.35
X4.9102Y-4.45
X4.9102Y-4.55
X4.9102Y-4.65
X4.9102Y-4.75
X4.9102Y-4.85
X4.9102Y-4.95
X6.2Y-3.
X6.2Y-3.1
X6.2Y-3.2
X6.2Y-3.3
X6.2Y-3.4
X6.2Y-3.5
X6.2Y-3.6
X6.2Y-3.7
X6.2Y-3.8
X6.2Y-3.9
X6.2Y-4.
X6.2Y-4.1
X6.2Y-4.2
X6.2Y-4.3
X6.2Y-4.4
X6.2Y-4.5
X6.2Y-4.6
X6.2Y-4.7
X6.2Y-4.8
X6.2Y-4.9
X6.3102Y-3.05
X6.3102Y-3.15
X6.3102Y-3.25
X6.3102Y-3.35
X6.3102Y-3.45
X6.3102Y-3.55
X6.3102Y-3.65
X6.3102Y-3.75
X6.3102Y-3.85
X6.3102Y-3.95
X6.3102Y-4.05
X6.3102Y-4.15
X6.3102Y-4.25
X6.3102Y-4.35
X6.3102Y-4.45
X6.3102Y-4.55
X6.3102Y-4.65
X6.3102Y-4.75
X6.3102Y-4.85
X6.3102Y-4.95
T0
M30
