%TF.GenerationSoftware,KiCad,Pcbnew,no-vcs-found-e2505cb~60~ubuntu17.04.1*%
%TF.CreationDate,2017-09-26T21:51:11+03:00*%
%TF.ProjectId,oakram,6F616B72616D2E6B696361645F706362,rev?*%
%TF.SameCoordinates,Original*%
%TF.FileFunction,Soldermask,Bot*%
%TF.FilePolarity,Negative*%
%FSLAX46Y46*%
G04 Gerber Fmt 4.6, Leading zero omitted, Abs format (unit mm)*
G04 Created by KiCad (PCBNEW no-vcs-found-e2505cb~60~ubuntu17.04.1) date Tue Sep 26 21:51:11 2017*
%MOMM*%
%LPD*%
G01*
G04 APERTURE LIST*
%ADD10C,2.100000*%
%ADD11R,1.650000X1.400000*%
G04 APERTURE END LIST*
D10*
%TO.C,X1*%
X121920000Y-76200000D03*
X124720000Y-77470000D03*
X121920000Y-78740000D03*
X124720000Y-80010000D03*
X121920000Y-83820000D03*
X121920000Y-81280000D03*
X124720000Y-82550000D03*
X124720000Y-85090000D03*
X121920000Y-88900000D03*
X124720000Y-95250000D03*
X121920000Y-86360000D03*
X124720000Y-92710000D03*
X124720000Y-87630000D03*
X124720000Y-90170000D03*
X121920000Y-91440000D03*
X121920000Y-93980000D03*
X121920000Y-99060000D03*
X121920000Y-109220000D03*
X124720000Y-105410000D03*
X121920000Y-96520000D03*
X124720000Y-110490000D03*
X121920000Y-106680000D03*
X124720000Y-102870000D03*
X124720000Y-115570000D03*
X124720000Y-97790000D03*
X124720000Y-100330000D03*
X121920000Y-101600000D03*
X121920000Y-104140000D03*
X124720000Y-107950000D03*
X121920000Y-111760000D03*
X121920000Y-114300000D03*
X124720000Y-113030000D03*
X121920000Y-121920000D03*
X124720000Y-118110000D03*
X124720000Y-120650000D03*
X121920000Y-124460000D03*
X124720000Y-125730000D03*
X121920000Y-119380000D03*
X121920000Y-116840000D03*
X124720000Y-123190000D03*
%TD*%
%TO.C,X2*%
X160280000Y-123190000D03*
X157480000Y-116840000D03*
X157480000Y-119380000D03*
X160280000Y-125730000D03*
X157480000Y-124460000D03*
X160280000Y-120650000D03*
X160280000Y-118110000D03*
X157480000Y-121920000D03*
X160280000Y-113030000D03*
X157480000Y-114300000D03*
X157480000Y-111760000D03*
X160280000Y-107950000D03*
X157480000Y-104140000D03*
X157480000Y-101600000D03*
X160280000Y-100330000D03*
X160280000Y-97790000D03*
X160280000Y-115570000D03*
X160280000Y-102870000D03*
X157480000Y-106680000D03*
X160280000Y-110490000D03*
X157480000Y-96520000D03*
X160280000Y-105410000D03*
X157480000Y-109220000D03*
X157480000Y-99060000D03*
X157480000Y-93980000D03*
X157480000Y-91440000D03*
X160280000Y-90170000D03*
X160280000Y-87630000D03*
X160280000Y-92710000D03*
X157480000Y-86360000D03*
X160280000Y-95250000D03*
X157480000Y-88900000D03*
X160280000Y-85090000D03*
X160280000Y-82550000D03*
X157480000Y-81280000D03*
X157480000Y-83820000D03*
X160280000Y-80010000D03*
X157480000Y-78740000D03*
X160280000Y-77470000D03*
X157480000Y-76200000D03*
%TD*%
D11*
%TO.C,C2*%
X130175000Y-96155000D03*
X130175000Y-98155000D03*
%TD*%
%TO.C,C4*%
X141605000Y-96155000D03*
X141605000Y-98155000D03*
%TD*%
%TO.C,C5*%
X129540000Y-91170000D03*
X129540000Y-89170000D03*
%TD*%
M02*
