%TF.GenerationSoftware,KiCad,Pcbnew,no-vcs-found-e2505cb~60~ubuntu17.04.1*%
%TF.CreationDate,2017-09-26T21:51:11+03:00*%
%TF.ProjectId,oakram,6F616B72616D2E6B696361645F706362,rev?*%
%TF.SameCoordinates,Original*%
%TF.FileFunction,Copper,L2,Bot,Signal*%
%TF.FilePolarity,Positive*%
%FSLAX46Y46*%
G04 Gerber Fmt 4.6, Leading zero omitted, Abs format (unit mm)*
G04 Created by KiCad (PCBNEW no-vcs-found-e2505cb~60~ubuntu17.04.1) date Tue Sep 26 21:51:11 2017*
%MOMM*%
%LPD*%
G01*
G04 APERTURE LIST*
%TA.AperFunction,ComponentPad*%
%ADD10C,1.700000*%
%TD*%
%TA.AperFunction,SMDPad,CuDef*%
%ADD11R,1.250000X1.000000*%
%TD*%
%TA.AperFunction,ViaPad*%
%ADD12C,0.700000*%
%TD*%
%TA.AperFunction,Conductor*%
%ADD13C,0.200000*%
%TD*%
%TA.AperFunction,Conductor*%
%ADD14C,0.800000*%
%TD*%
%TA.AperFunction,Conductor*%
%ADD15C,0.254000*%
%TD*%
G04 APERTURE END LIST*
D10*
%TO.P,X1,1*%
%TO.N,/D8*%
X121920000Y-76200000D03*
%TO.P,X1,2*%
%TO.N,/D9*%
X124720000Y-77470000D03*
%TO.P,X1,3*%
%TO.N,/D10*%
X121920000Y-78740000D03*
%TO.P,X1,4*%
%TO.N,/D11*%
X124720000Y-80010000D03*
%TO.P,X1,7*%
%TO.N,/D13*%
X121920000Y-83820000D03*
%TO.P,X1,5*%
%TO.N,VSS*%
X121920000Y-81280000D03*
%TO.P,X1,6*%
%TO.N,/D12*%
X124720000Y-82550000D03*
%TO.P,X1,8*%
%TO.N,/D14*%
X124720000Y-85090000D03*
%TO.P,X1,11*%
%TO.N,VCC*%
X121920000Y-88900000D03*
%TO.P,X1,16*%
X124720000Y-95250000D03*
%TO.P,X1,9*%
%TO.N,/D15*%
X121920000Y-86360000D03*
%TO.P,X1,14*%
%TO.N,/D2*%
X124720000Y-92710000D03*
%TO.P,X1,10*%
%TO.N,VSS*%
X124720000Y-87630000D03*
%TO.P,X1,12*%
%TO.N,/D0*%
X124720000Y-90170000D03*
%TO.P,X1,13*%
%TO.N,/D1*%
X121920000Y-91440000D03*
%TO.P,X1,15*%
%TO.N,/D3*%
X121920000Y-93980000D03*
%TO.P,X1,19*%
%TO.N,/D6*%
X121920000Y-99060000D03*
%TO.P,X1,27*%
%TO.N,/A1*%
X121920000Y-109220000D03*
%TO.P,X1,24*%
%TO.N,/~RAS*%
X124720000Y-105410000D03*
%TO.P,X1,17*%
%TO.N,/D4*%
X121920000Y-96520000D03*
%TO.P,X1,28*%
%TO.N,/A2*%
X124720000Y-110490000D03*
%TO.P,X1,25*%
%TO.N,Net-(X1-Pad25)*%
X121920000Y-106680000D03*
%TO.P,X1,22*%
%TO.N,/A9*%
X124720000Y-102870000D03*
%TO.P,X1,32*%
%TO.N,Net-(X1-Pad32)*%
X124720000Y-115570000D03*
%TO.P,X1,18*%
%TO.N,/D5*%
X124720000Y-97790000D03*
%TO.P,X1,20*%
%TO.N,/D7*%
X124720000Y-100330000D03*
%TO.P,X1,21*%
%TO.N,Net-(X1-Pad21)*%
X121920000Y-101600000D03*
%TO.P,X1,23*%
%TO.N,/~WE*%
X121920000Y-104140000D03*
%TO.P,X1,26*%
%TO.N,/A0*%
X124720000Y-107950000D03*
%TO.P,X1,29*%
%TO.N,/A3*%
X121920000Y-111760000D03*
%TO.P,X1,31*%
%TO.N,VSS*%
X121920000Y-114300000D03*
%TO.P,X1,30*%
%TO.N,VCC*%
X124720000Y-113030000D03*
%TO.P,X1,37*%
%TO.N,/~OE*%
X121920000Y-121920000D03*
%TO.P,X1,34*%
%TO.N,Net-(X1-Pad34)*%
X124720000Y-118110000D03*
%TO.P,X1,36*%
%TO.N,Net-(X1-Pad36)*%
X124720000Y-120650000D03*
%TO.P,X1,39*%
%TO.N,/~CAS0*%
X121920000Y-124460000D03*
%TO.P,X1,40*%
%TO.N,Net-(X1-Pad40)*%
X124720000Y-125730000D03*
%TO.P,X1,35*%
%TO.N,Net-(X1-Pad35)*%
X121920000Y-119380000D03*
%TO.P,X1,33*%
%TO.N,Net-(X1-Pad33)*%
X121920000Y-116840000D03*
%TO.P,X1,38*%
%TO.N,/~CAS1*%
X124720000Y-123190000D03*
%TD*%
%TO.P,X2,38*%
%TO.N,/~CAS3*%
X160280000Y-123190000D03*
%TO.P,X2,33*%
%TO.N,/A5*%
X157480000Y-116840000D03*
%TO.P,X2,35*%
%TO.N,/A7*%
X157480000Y-119380000D03*
%TO.P,X2,40*%
%TO.N,Net-(X2-Pad40)*%
X160280000Y-125730000D03*
%TO.P,X2,39*%
%TO.N,/~CAS2*%
X157480000Y-124460000D03*
%TO.P,X2,36*%
%TO.N,/A8*%
X160280000Y-120650000D03*
%TO.P,X2,34*%
%TO.N,/A6*%
X160280000Y-118110000D03*
%TO.P,X2,37*%
%TO.N,/~OE*%
X157480000Y-121920000D03*
%TO.P,X2,30*%
%TO.N,VCC*%
X160280000Y-113030000D03*
%TO.P,X2,31*%
%TO.N,VSS*%
X157480000Y-114300000D03*
%TO.P,X2,29*%
%TO.N,Net-(X2-Pad29)*%
X157480000Y-111760000D03*
%TO.P,X2,26*%
%TO.N,Net-(X2-Pad26)*%
X160280000Y-107950000D03*
%TO.P,X2,23*%
%TO.N,Net-(X2-Pad23)*%
X157480000Y-104140000D03*
%TO.P,X2,21*%
%TO.N,Net-(X2-Pad21)*%
X157480000Y-101600000D03*
%TO.P,X2,20*%
%TO.N,/D23*%
X160280000Y-100330000D03*
%TO.P,X2,18*%
%TO.N,/D21*%
X160280000Y-97790000D03*
%TO.P,X2,32*%
%TO.N,/A4*%
X160280000Y-115570000D03*
%TO.P,X2,22*%
%TO.N,Net-(X2-Pad22)*%
X160280000Y-102870000D03*
%TO.P,X2,25*%
%TO.N,Net-(X2-Pad25)*%
X157480000Y-106680000D03*
%TO.P,X2,28*%
%TO.N,Net-(X2-Pad28)*%
X160280000Y-110490000D03*
%TO.P,X2,17*%
%TO.N,/D20*%
X157480000Y-96520000D03*
%TO.P,X2,24*%
%TO.N,Net-(X2-Pad24)*%
X160280000Y-105410000D03*
%TO.P,X2,27*%
%TO.N,Net-(X2-Pad27)*%
X157480000Y-109220000D03*
%TO.P,X2,19*%
%TO.N,/D22*%
X157480000Y-99060000D03*
%TO.P,X2,15*%
%TO.N,/D19*%
X157480000Y-93980000D03*
%TO.P,X2,13*%
%TO.N,/D17*%
X157480000Y-91440000D03*
%TO.P,X2,12*%
%TO.N,/D16*%
X160280000Y-90170000D03*
%TO.P,X2,10*%
%TO.N,VSS*%
X160280000Y-87630000D03*
%TO.P,X2,14*%
%TO.N,/D18*%
X160280000Y-92710000D03*
%TO.P,X2,9*%
%TO.N,/D31*%
X157480000Y-86360000D03*
%TO.P,X2,16*%
%TO.N,VCC*%
X160280000Y-95250000D03*
%TO.P,X2,11*%
X157480000Y-88900000D03*
%TO.P,X2,8*%
%TO.N,/D30*%
X160280000Y-85090000D03*
%TO.P,X2,6*%
%TO.N,/D28*%
X160280000Y-82550000D03*
%TO.P,X2,5*%
%TO.N,VSS*%
X157480000Y-81280000D03*
%TO.P,X2,7*%
%TO.N,/D29*%
X157480000Y-83820000D03*
%TO.P,X2,4*%
%TO.N,/D27*%
X160280000Y-80010000D03*
%TO.P,X2,3*%
%TO.N,/D26*%
X157480000Y-78740000D03*
%TO.P,X2,2*%
%TO.N,/D25*%
X160280000Y-77470000D03*
%TO.P,X2,1*%
%TO.N,/D24*%
X157480000Y-76200000D03*
%TD*%
D11*
%TO.P,C2,1*%
%TO.N,VCC*%
X130175000Y-96155000D03*
%TO.P,C2,2*%
%TO.N,VSS*%
X130175000Y-98155000D03*
%TD*%
%TO.P,C4,1*%
%TO.N,VCC*%
X141605000Y-96155000D03*
%TO.P,C4,2*%
%TO.N,VSS*%
X141605000Y-98155000D03*
%TD*%
%TO.P,C5,2*%
%TO.N,VSS*%
X129540000Y-91170000D03*
%TO.P,C5,1*%
%TO.N,VCC*%
X129540000Y-89170000D03*
%TD*%
D12*
%TO.N,/A9*%
X135255000Y-106680000D03*
X133985000Y-102235000D03*
%TO.N,/A4*%
X151765000Y-113030000D03*
%TO.N,/~OE*%
X128905000Y-121920000D03*
X148590000Y-105410000D03*
X133985000Y-105425000D03*
%TO.N,/A6*%
X150495000Y-110490000D03*
%TO.N,/A8*%
X149225000Y-107950000D03*
%TO.N,/~CAS0*%
X132715000Y-102870000D03*
%TO.N,/A7*%
X149860000Y-109220000D03*
%TO.N,/A5*%
X151130000Y-111760000D03*
%TO.N,/~CAS1*%
X131445000Y-104140000D03*
%TO.N,VSS*%
X144780000Y-125730000D03*
X139700000Y-125730000D03*
X134620000Y-125730000D03*
X141605000Y-99060000D03*
X140970000Y-93345000D03*
X153670000Y-87630000D03*
X149860000Y-124460000D03*
X130175000Y-99060000D03*
X135890000Y-101600000D03*
X135890000Y-108585000D03*
X129540000Y-124459998D03*
X138430000Y-84455000D03*
X138430000Y-80645000D03*
X136525000Y-82550000D03*
X149860000Y-76200000D03*
X144780000Y-76200000D03*
X139700000Y-76200000D03*
X134620000Y-76200000D03*
X129540000Y-76200000D03*
X140970000Y-102235000D03*
X140970000Y-85090000D03*
X138430000Y-115570000D03*
X148590000Y-101600000D03*
X135890000Y-93980000D03*
X151130000Y-96520000D03*
X156210000Y-95250000D03*
X130810000Y-92075000D03*
X146685000Y-116205000D03*
X131445000Y-116205000D03*
%TO.N,VCC*%
X141605000Y-95250000D03*
X130175000Y-95250000D03*
X143510000Y-80645000D03*
X143510000Y-84455000D03*
X145415000Y-82550000D03*
X140970000Y-89535000D03*
X127635000Y-116205000D03*
X142875000Y-116205000D03*
X128270000Y-88265000D03*
%TD*%
D13*
%TO.N,/A9*%
X133985000Y-102235000D02*
X135255000Y-103505000D01*
X135255000Y-103505000D02*
X135255000Y-106680000D01*
%TO.N,/A4*%
X151765000Y-113030000D02*
X154305000Y-115570000D01*
X154305000Y-115570000D02*
X160655000Y-115570000D01*
%TO.N,/~OE*%
X157480000Y-121920000D02*
X154305000Y-121920000D01*
X154305000Y-121920000D02*
X148590000Y-116205000D01*
X148590000Y-116205000D02*
X148590000Y-105410000D01*
X133985000Y-105425000D02*
X133985000Y-108585000D01*
X133985000Y-108585000D02*
X130175000Y-112395000D01*
X130175000Y-112395000D02*
X130175000Y-120650000D01*
X130175000Y-120650000D02*
X128905000Y-121920000D01*
%TO.N,/A6*%
X150495000Y-110490000D02*
X150495000Y-114300000D01*
X150495000Y-114300000D02*
X154305000Y-118110000D01*
X154305000Y-118110000D02*
X160020000Y-118110000D01*
%TO.N,/A8*%
X149225000Y-107950000D02*
X149225000Y-115570000D01*
X149225000Y-115570000D02*
X154305000Y-120650000D01*
X154305000Y-120650000D02*
X160655000Y-120650000D01*
%TO.N,/~CAS0*%
X132715000Y-102870000D02*
X132715000Y-108585000D01*
X129540000Y-111760000D02*
X129540000Y-120015000D01*
X129540000Y-120015000D02*
X125095000Y-124460000D01*
X132715000Y-108585000D02*
X129540000Y-111760000D01*
X125095000Y-124460000D02*
X121920000Y-124460000D01*
%TO.N,/A7*%
X149860000Y-109220000D02*
X149860000Y-114935000D01*
X149860000Y-114935000D02*
X154305000Y-119380000D01*
X154305000Y-119380000D02*
X157480000Y-119380000D01*
%TO.N,/A5*%
X151130000Y-111760000D02*
X151130000Y-113665000D01*
X151130000Y-113665000D02*
X154305000Y-116840000D01*
X154305000Y-116840000D02*
X157480000Y-116840000D01*
%TO.N,/~CAS1*%
X124720000Y-123190000D02*
X128905000Y-119005000D01*
X128905000Y-119005000D02*
X128905000Y-111125000D01*
X128905000Y-111125000D02*
X131445000Y-108585000D01*
X131445000Y-108585000D02*
X131445000Y-104140000D01*
D14*
%TO.N,VSS*%
X141605000Y-98155000D02*
X141605000Y-99060000D01*
X130175000Y-98155000D02*
X130175000Y-99060000D01*
D13*
X138430000Y-115570000D02*
X138430000Y-111125000D01*
X138430000Y-111125000D02*
X135890000Y-108585000D01*
D14*
X129540000Y-91170000D02*
X129905000Y-91170000D01*
X129905000Y-91170000D02*
X130810000Y-92075000D01*
%TO.N,VCC*%
X141605000Y-96155000D02*
X141605000Y-95250000D01*
X130175000Y-96155000D02*
X130175000Y-95250000D01*
X129540000Y-89170000D02*
X129175000Y-89170000D01*
%TD*%
D15*
%TO.N,VSS*%
G36*
X161798000Y-126873000D02*
X160737398Y-126873000D01*
X160837716Y-126834089D01*
X161041546Y-126704735D01*
X161216370Y-126538253D01*
X161355527Y-126340984D01*
X161453718Y-126120444D01*
X161507202Y-125885032D01*
X161511053Y-125609294D01*
X161464162Y-125372480D01*
X161372167Y-125149284D01*
X161238572Y-124948208D01*
X161068465Y-124776909D01*
X160868326Y-124641913D01*
X160645778Y-124548363D01*
X160409297Y-124499820D01*
X160167891Y-124498135D01*
X159930756Y-124543371D01*
X159706923Y-124633805D01*
X159504919Y-124765993D01*
X159332437Y-124934900D01*
X159196047Y-125134092D01*
X159100945Y-125355982D01*
X159050753Y-125592118D01*
X159047382Y-125833506D01*
X159090962Y-126070951D01*
X159179831Y-126295410D01*
X159310606Y-126498332D01*
X159478304Y-126671989D01*
X159676539Y-126809766D01*
X159821276Y-126873000D01*
X125177398Y-126873000D01*
X125277716Y-126834089D01*
X125481546Y-126704735D01*
X125656370Y-126538253D01*
X125795527Y-126340984D01*
X125893718Y-126120444D01*
X125947202Y-125885032D01*
X125951053Y-125609294D01*
X125904162Y-125372480D01*
X125812167Y-125149284D01*
X125678572Y-124948208D01*
X125508465Y-124776909D01*
X125478523Y-124756713D01*
X125671730Y-124563506D01*
X156247382Y-124563506D01*
X156290962Y-124800951D01*
X156379831Y-125025410D01*
X156510606Y-125228332D01*
X156678304Y-125401989D01*
X156876539Y-125539766D01*
X157097760Y-125636415D01*
X157333540Y-125688255D01*
X157574898Y-125693310D01*
X157812642Y-125651390D01*
X158037716Y-125564089D01*
X158241546Y-125434735D01*
X158416370Y-125268253D01*
X158555527Y-125070984D01*
X158653718Y-124850444D01*
X158707202Y-124615032D01*
X158711053Y-124339294D01*
X158664162Y-124102480D01*
X158572167Y-123879284D01*
X158438572Y-123678208D01*
X158268465Y-123506909D01*
X158068326Y-123371913D01*
X157881802Y-123293506D01*
X159047382Y-123293506D01*
X159090962Y-123530951D01*
X159179831Y-123755410D01*
X159310606Y-123958332D01*
X159478304Y-124131989D01*
X159676539Y-124269766D01*
X159897760Y-124366415D01*
X160133540Y-124418255D01*
X160374898Y-124423310D01*
X160612642Y-124381390D01*
X160837716Y-124294089D01*
X161041546Y-124164735D01*
X161216370Y-123998253D01*
X161355527Y-123800984D01*
X161453718Y-123580444D01*
X161507202Y-123345032D01*
X161511053Y-123069294D01*
X161464162Y-122832480D01*
X161372167Y-122609284D01*
X161238572Y-122408208D01*
X161068465Y-122236909D01*
X160868326Y-122101913D01*
X160645778Y-122008363D01*
X160409297Y-121959820D01*
X160167891Y-121958135D01*
X159930756Y-122003371D01*
X159706923Y-122093805D01*
X159504919Y-122225993D01*
X159332437Y-122394900D01*
X159196047Y-122594092D01*
X159100945Y-122815982D01*
X159050753Y-123052118D01*
X159047382Y-123293506D01*
X157881802Y-123293506D01*
X157845778Y-123278363D01*
X157609297Y-123229820D01*
X157367891Y-123228135D01*
X157130756Y-123273371D01*
X156906923Y-123363805D01*
X156704919Y-123495993D01*
X156532437Y-123664900D01*
X156396047Y-123864092D01*
X156300945Y-124085982D01*
X156250753Y-124322118D01*
X156247382Y-124563506D01*
X125671730Y-124563506D01*
X128185559Y-122049678D01*
X128198918Y-122122466D01*
X128251691Y-122255755D01*
X128329348Y-122376256D01*
X128428932Y-122479378D01*
X128546649Y-122561194D01*
X128678016Y-122618586D01*
X128818028Y-122649370D01*
X128961353Y-122652372D01*
X129102532Y-122627479D01*
X129236186Y-122575637D01*
X129357226Y-122498823D01*
X129461041Y-122399962D01*
X129543676Y-122282819D01*
X129601985Y-122151856D01*
X129633745Y-122012062D01*
X129635735Y-121869501D01*
X130515118Y-120990119D01*
X130543309Y-120955798D01*
X130571880Y-120921749D01*
X130573100Y-120919529D01*
X130574703Y-120917578D01*
X130595680Y-120878457D01*
X130617104Y-120839486D01*
X130617869Y-120837075D01*
X130619064Y-120834846D01*
X130632045Y-120792385D01*
X130645489Y-120750006D01*
X130645771Y-120747489D01*
X130646510Y-120745073D01*
X130650998Y-120700889D01*
X130655953Y-120656716D01*
X130655988Y-120651773D01*
X130655997Y-120651680D01*
X130655989Y-120651594D01*
X130656000Y-120650000D01*
X130656000Y-112594236D01*
X134325119Y-108925118D01*
X134353318Y-108890788D01*
X134381880Y-108856749D01*
X134383100Y-108854530D01*
X134384704Y-108852577D01*
X134405709Y-108813404D01*
X134427104Y-108774486D01*
X134427867Y-108772079D01*
X134429065Y-108769846D01*
X134442060Y-108727339D01*
X134455489Y-108685006D01*
X134455771Y-108682489D01*
X134456510Y-108680073D01*
X134461003Y-108635849D01*
X134465953Y-108591716D01*
X134465988Y-108586782D01*
X134465998Y-108586679D01*
X134465989Y-108586583D01*
X134466000Y-108585000D01*
X134466000Y-105976422D01*
X134541041Y-105904962D01*
X134621432Y-105791000D01*
X134774000Y-105791000D01*
X134774000Y-106127853D01*
X134692312Y-106207849D01*
X134611320Y-106326134D01*
X134554846Y-106457898D01*
X134525041Y-106598122D01*
X134523039Y-106741464D01*
X134548918Y-106882466D01*
X134601691Y-107015755D01*
X134679348Y-107136256D01*
X134778932Y-107239378D01*
X134896649Y-107321194D01*
X135028016Y-107378586D01*
X135168028Y-107409370D01*
X135311353Y-107412372D01*
X135452532Y-107387479D01*
X135586186Y-107335637D01*
X135707226Y-107258823D01*
X135811041Y-107159962D01*
X135893676Y-107042819D01*
X135951985Y-106911856D01*
X135983745Y-106772062D01*
X135986031Y-106608322D01*
X135958187Y-106467695D01*
X135903558Y-106335156D01*
X135824225Y-106215751D01*
X135736000Y-106126908D01*
X135736000Y-105791000D01*
X140589000Y-105791000D01*
X140589000Y-118110000D01*
X140618002Y-118255802D01*
X140700592Y-118379408D01*
X140824198Y-118461998D01*
X140970000Y-118491000D01*
X144780000Y-118491000D01*
X144925802Y-118461998D01*
X145049408Y-118379408D01*
X145131998Y-118255802D01*
X145161000Y-118110000D01*
X145161000Y-114681000D01*
X148109000Y-114681000D01*
X148109000Y-116205000D01*
X148113336Y-116249223D01*
X148117208Y-116293481D01*
X148117914Y-116295913D01*
X148118161Y-116298427D01*
X148130995Y-116340937D01*
X148143398Y-116383628D01*
X148144562Y-116385873D01*
X148145293Y-116388295D01*
X148166144Y-116427509D01*
X148186599Y-116466971D01*
X148188179Y-116468950D01*
X148189365Y-116471181D01*
X148217451Y-116505619D01*
X148245166Y-116540336D01*
X148248632Y-116543850D01*
X148248696Y-116543929D01*
X148248769Y-116543989D01*
X148249882Y-116545118D01*
X153964882Y-122260119D01*
X153999212Y-122288318D01*
X154033251Y-122316880D01*
X154035470Y-122318100D01*
X154037423Y-122319704D01*
X154076596Y-122340709D01*
X154115514Y-122362104D01*
X154117921Y-122362867D01*
X154120154Y-122364065D01*
X154162661Y-122377060D01*
X154204994Y-122390489D01*
X154207511Y-122390771D01*
X154209927Y-122391510D01*
X154254151Y-122396003D01*
X154298284Y-122400953D01*
X154303218Y-122400988D01*
X154303321Y-122400998D01*
X154303417Y-122400989D01*
X154305000Y-122401000D01*
X156346411Y-122401000D01*
X156379831Y-122485410D01*
X156510606Y-122688332D01*
X156678304Y-122861989D01*
X156876539Y-122999766D01*
X157097760Y-123096415D01*
X157333540Y-123148255D01*
X157574898Y-123153310D01*
X157812642Y-123111390D01*
X158037716Y-123024089D01*
X158241546Y-122894735D01*
X158416370Y-122728253D01*
X158555527Y-122530984D01*
X158653718Y-122310444D01*
X158707202Y-122075032D01*
X158711053Y-121799294D01*
X158664162Y-121562480D01*
X158572167Y-121339284D01*
X158438572Y-121138208D01*
X158431414Y-121131000D01*
X159146411Y-121131000D01*
X159179831Y-121215410D01*
X159310606Y-121418332D01*
X159478304Y-121591989D01*
X159676539Y-121729766D01*
X159897760Y-121826415D01*
X160133540Y-121878255D01*
X160374898Y-121883310D01*
X160612642Y-121841390D01*
X160837716Y-121754089D01*
X161041546Y-121624735D01*
X161216370Y-121458253D01*
X161355527Y-121260984D01*
X161453718Y-121040444D01*
X161507202Y-120805032D01*
X161511053Y-120529294D01*
X161464162Y-120292480D01*
X161372167Y-120069284D01*
X161238572Y-119868208D01*
X161068465Y-119696909D01*
X160868326Y-119561913D01*
X160645778Y-119468363D01*
X160409297Y-119419820D01*
X160167891Y-119418135D01*
X159930756Y-119463371D01*
X159706923Y-119553805D01*
X159504919Y-119685993D01*
X159332437Y-119854900D01*
X159196047Y-120054092D01*
X159146797Y-120169000D01*
X158429951Y-120169000D01*
X158555527Y-119990984D01*
X158653718Y-119770444D01*
X158707202Y-119535032D01*
X158711053Y-119259294D01*
X158664162Y-119022480D01*
X158572167Y-118799284D01*
X158438572Y-118598208D01*
X158431414Y-118591000D01*
X159146411Y-118591000D01*
X159179831Y-118675410D01*
X159310606Y-118878332D01*
X159478304Y-119051989D01*
X159676539Y-119189766D01*
X159897760Y-119286415D01*
X160133540Y-119338255D01*
X160374898Y-119343310D01*
X160612642Y-119301390D01*
X160837716Y-119214089D01*
X161041546Y-119084735D01*
X161216370Y-118918253D01*
X161355527Y-118720984D01*
X161453718Y-118500444D01*
X161507202Y-118265032D01*
X161511053Y-117989294D01*
X161464162Y-117752480D01*
X161372167Y-117529284D01*
X161238572Y-117328208D01*
X161068465Y-117156909D01*
X160868326Y-117021913D01*
X160645778Y-116928363D01*
X160409297Y-116879820D01*
X160167891Y-116878135D01*
X159930756Y-116923371D01*
X159706923Y-117013805D01*
X159504919Y-117145993D01*
X159332437Y-117314900D01*
X159196047Y-117514092D01*
X159146797Y-117629000D01*
X158429951Y-117629000D01*
X158555527Y-117450984D01*
X158653718Y-117230444D01*
X158707202Y-116995032D01*
X158711053Y-116719294D01*
X158664162Y-116482480D01*
X158572167Y-116259284D01*
X158438572Y-116058208D01*
X158431414Y-116051000D01*
X159146411Y-116051000D01*
X159179831Y-116135410D01*
X159310606Y-116338332D01*
X159478304Y-116511989D01*
X159676539Y-116649766D01*
X159897760Y-116746415D01*
X160133540Y-116798255D01*
X160374898Y-116803310D01*
X160612642Y-116761390D01*
X160837716Y-116674089D01*
X161041546Y-116544735D01*
X161216370Y-116378253D01*
X161355527Y-116180984D01*
X161453718Y-115960444D01*
X161507202Y-115725032D01*
X161511053Y-115449294D01*
X161464162Y-115212480D01*
X161372167Y-114989284D01*
X161238572Y-114788208D01*
X161068465Y-114616909D01*
X160947284Y-114535171D01*
X161006998Y-114445802D01*
X161036000Y-114300000D01*
X161036000Y-114008255D01*
X161041546Y-114004735D01*
X161216370Y-113838253D01*
X161355527Y-113640984D01*
X161453718Y-113420444D01*
X161507202Y-113185032D01*
X161511053Y-112909294D01*
X161464162Y-112672480D01*
X161372167Y-112449284D01*
X161238572Y-112248208D01*
X161068465Y-112076909D01*
X161036000Y-112055011D01*
X161036000Y-111760000D01*
X161006998Y-111614198D01*
X160947156Y-111524637D01*
X161041546Y-111464735D01*
X161216370Y-111298253D01*
X161355527Y-111100984D01*
X161453718Y-110880444D01*
X161507202Y-110645032D01*
X161511053Y-110369294D01*
X161464162Y-110132480D01*
X161372167Y-109909284D01*
X161238572Y-109708208D01*
X161068465Y-109536909D01*
X160868326Y-109401913D01*
X160645778Y-109308363D01*
X160409297Y-109259820D01*
X160167891Y-109258135D01*
X159930756Y-109303371D01*
X159766000Y-109369936D01*
X159766000Y-109068851D01*
X159897760Y-109126415D01*
X160133540Y-109178255D01*
X160374898Y-109183310D01*
X160612642Y-109141390D01*
X160837716Y-109054089D01*
X161041546Y-108924735D01*
X161216370Y-108758253D01*
X161355527Y-108560984D01*
X161453718Y-108340444D01*
X161507202Y-108105032D01*
X161511053Y-107829294D01*
X161464162Y-107592480D01*
X161372167Y-107369284D01*
X161238572Y-107168208D01*
X161068465Y-106996909D01*
X160868326Y-106861913D01*
X160645778Y-106768363D01*
X160409297Y-106719820D01*
X160167891Y-106718135D01*
X159930756Y-106763371D01*
X159766000Y-106829936D01*
X159766000Y-106528851D01*
X159897760Y-106586415D01*
X160133540Y-106638255D01*
X160374898Y-106643310D01*
X160612642Y-106601390D01*
X160837716Y-106514089D01*
X161041546Y-106384735D01*
X161216370Y-106218253D01*
X161355527Y-106020984D01*
X161453718Y-105800444D01*
X161507202Y-105565032D01*
X161511053Y-105289294D01*
X161464162Y-105052480D01*
X161372167Y-104829284D01*
X161238572Y-104628208D01*
X161068465Y-104456909D01*
X160868326Y-104321913D01*
X160645778Y-104228363D01*
X160409297Y-104179820D01*
X160167891Y-104178135D01*
X159930756Y-104223371D01*
X159766000Y-104289936D01*
X159766000Y-103988851D01*
X159897760Y-104046415D01*
X160133540Y-104098255D01*
X160374898Y-104103310D01*
X160612642Y-104061390D01*
X160837716Y-103974089D01*
X161041546Y-103844735D01*
X161216370Y-103678253D01*
X161355527Y-103480984D01*
X161453718Y-103260444D01*
X161507202Y-103025032D01*
X161511053Y-102749294D01*
X161464162Y-102512480D01*
X161372167Y-102289284D01*
X161238572Y-102088208D01*
X161068465Y-101916909D01*
X160868326Y-101781913D01*
X160645778Y-101688363D01*
X160409297Y-101639820D01*
X160167891Y-101638135D01*
X159930756Y-101683371D01*
X159766000Y-101749936D01*
X159766000Y-101448851D01*
X159897760Y-101506415D01*
X160133540Y-101558255D01*
X160374898Y-101563310D01*
X160612642Y-101521390D01*
X160837716Y-101434089D01*
X161041546Y-101304735D01*
X161216370Y-101138253D01*
X161355527Y-100940984D01*
X161453718Y-100720444D01*
X161507202Y-100485032D01*
X161511053Y-100209294D01*
X161464162Y-99972480D01*
X161372167Y-99749284D01*
X161238572Y-99548208D01*
X161068465Y-99376909D01*
X160868326Y-99241913D01*
X160645778Y-99148363D01*
X160409297Y-99099820D01*
X160167891Y-99098135D01*
X159930756Y-99143371D01*
X159766000Y-99209936D01*
X159766000Y-98908851D01*
X159897760Y-98966415D01*
X160133540Y-99018255D01*
X160374898Y-99023310D01*
X160612642Y-98981390D01*
X160837716Y-98894089D01*
X161041546Y-98764735D01*
X161216370Y-98598253D01*
X161355527Y-98400984D01*
X161453718Y-98180444D01*
X161507202Y-97945032D01*
X161511053Y-97669294D01*
X161464162Y-97432480D01*
X161372167Y-97209284D01*
X161238572Y-97008208D01*
X161068465Y-96836909D01*
X160947284Y-96755171D01*
X161006998Y-96665802D01*
X161036000Y-96520000D01*
X161036000Y-96228255D01*
X161041546Y-96224735D01*
X161216370Y-96058253D01*
X161355527Y-95860984D01*
X161453718Y-95640444D01*
X161507202Y-95405032D01*
X161511053Y-95129294D01*
X161464162Y-94892480D01*
X161372167Y-94669284D01*
X161238572Y-94468208D01*
X161068465Y-94296909D01*
X161036000Y-94275011D01*
X161036000Y-93980000D01*
X161006998Y-93834198D01*
X160947156Y-93744637D01*
X161041546Y-93684735D01*
X161216370Y-93518253D01*
X161355527Y-93320984D01*
X161453718Y-93100444D01*
X161507202Y-92865032D01*
X161511053Y-92589294D01*
X161464162Y-92352480D01*
X161372167Y-92129284D01*
X161238572Y-91928208D01*
X161068465Y-91756909D01*
X160868326Y-91621913D01*
X160645778Y-91528363D01*
X160409297Y-91479820D01*
X160167891Y-91478135D01*
X159930756Y-91523371D01*
X159766000Y-91589936D01*
X159766000Y-91288851D01*
X159897760Y-91346415D01*
X160133540Y-91398255D01*
X160374898Y-91403310D01*
X160612642Y-91361390D01*
X160837716Y-91274089D01*
X161041546Y-91144735D01*
X161216370Y-90978253D01*
X161355527Y-90780984D01*
X161453718Y-90560444D01*
X161507202Y-90325032D01*
X161511053Y-90049294D01*
X161464162Y-89812480D01*
X161372167Y-89589284D01*
X161238572Y-89388208D01*
X161068465Y-89216909D01*
X160868326Y-89081913D01*
X160645778Y-88988363D01*
X160409297Y-88939820D01*
X160167891Y-88938135D01*
X159930756Y-88983371D01*
X159766000Y-89049936D01*
X159766000Y-88748562D01*
X159880207Y-88800566D01*
X160116255Y-88856069D01*
X160358596Y-88864456D01*
X160597917Y-88825402D01*
X160825020Y-88740411D01*
X160900477Y-88700078D01*
X160992495Y-88522100D01*
X160280000Y-87809605D01*
X160265858Y-87823748D01*
X160086253Y-87644143D01*
X160100395Y-87630000D01*
X160459605Y-87630000D01*
X161172100Y-88342495D01*
X161350078Y-88250477D01*
X161450566Y-88029793D01*
X161506069Y-87793745D01*
X161514456Y-87551404D01*
X161475402Y-87312083D01*
X161390411Y-87084980D01*
X161350078Y-87009523D01*
X161172100Y-86917505D01*
X160459605Y-87630000D01*
X160100395Y-87630000D01*
X159387900Y-86917505D01*
X159209922Y-87009523D01*
X159109434Y-87230207D01*
X159105015Y-87249000D01*
X158331577Y-87249000D01*
X158416370Y-87168253D01*
X158555527Y-86970984D01*
X158653718Y-86750444D01*
X158656567Y-86737900D01*
X159567505Y-86737900D01*
X160280000Y-87450395D01*
X160992495Y-86737900D01*
X160900477Y-86559922D01*
X160679793Y-86459434D01*
X160443745Y-86403931D01*
X160201404Y-86395544D01*
X159962083Y-86434598D01*
X159734980Y-86519589D01*
X159659523Y-86559922D01*
X159567505Y-86737900D01*
X158656567Y-86737900D01*
X158707202Y-86515032D01*
X158711053Y-86239294D01*
X158664162Y-86002480D01*
X158572167Y-85779284D01*
X158438572Y-85578208D01*
X158268465Y-85406909D01*
X158068326Y-85271913D01*
X157881802Y-85193506D01*
X159047382Y-85193506D01*
X159090962Y-85430951D01*
X159179831Y-85655410D01*
X159310606Y-85858332D01*
X159478304Y-86031989D01*
X159676539Y-86169766D01*
X159897760Y-86266415D01*
X160133540Y-86318255D01*
X160374898Y-86323310D01*
X160612642Y-86281390D01*
X160837716Y-86194089D01*
X161041546Y-86064735D01*
X161216370Y-85898253D01*
X161355527Y-85700984D01*
X161453718Y-85480444D01*
X161507202Y-85245032D01*
X161511053Y-84969294D01*
X161464162Y-84732480D01*
X161372167Y-84509284D01*
X161238572Y-84308208D01*
X161068465Y-84136909D01*
X160868326Y-84001913D01*
X160645778Y-83908363D01*
X160409297Y-83859820D01*
X160167891Y-83858135D01*
X159930756Y-83903371D01*
X159706923Y-83993805D01*
X159504919Y-84125993D01*
X159332437Y-84294900D01*
X159196047Y-84494092D01*
X159100945Y-84715982D01*
X159050753Y-84952118D01*
X159047382Y-85193506D01*
X157881802Y-85193506D01*
X157845778Y-85178363D01*
X157609297Y-85129820D01*
X157367891Y-85128135D01*
X157130756Y-85173371D01*
X156906923Y-85263805D01*
X156704919Y-85395993D01*
X156532437Y-85564900D01*
X156396047Y-85764092D01*
X156300945Y-85985982D01*
X156250753Y-86222118D01*
X156247382Y-86463506D01*
X156290962Y-86700951D01*
X156379831Y-86925410D01*
X156510606Y-87128332D01*
X156627133Y-87249000D01*
X155575000Y-87249000D01*
X155429198Y-87278002D01*
X155305592Y-87360592D01*
X155223002Y-87484198D01*
X155194000Y-87630000D01*
X155194000Y-87884000D01*
X147066000Y-87884000D01*
X147066000Y-83923506D01*
X156247382Y-83923506D01*
X156290962Y-84160951D01*
X156379831Y-84385410D01*
X156510606Y-84588332D01*
X156678304Y-84761989D01*
X156876539Y-84899766D01*
X157097760Y-84996415D01*
X157333540Y-85048255D01*
X157574898Y-85053310D01*
X157812642Y-85011390D01*
X158037716Y-84924089D01*
X158241546Y-84794735D01*
X158416370Y-84628253D01*
X158555527Y-84430984D01*
X158653718Y-84210444D01*
X158707202Y-83975032D01*
X158711053Y-83699294D01*
X158664162Y-83462480D01*
X158572167Y-83239284D01*
X158438572Y-83038208D01*
X158268465Y-82866909D01*
X158068326Y-82731913D01*
X157881802Y-82653506D01*
X159047382Y-82653506D01*
X159090962Y-82890951D01*
X159179831Y-83115410D01*
X159310606Y-83318332D01*
X159478304Y-83491989D01*
X159676539Y-83629766D01*
X159897760Y-83726415D01*
X160133540Y-83778255D01*
X160374898Y-83783310D01*
X160612642Y-83741390D01*
X160837716Y-83654089D01*
X161041546Y-83524735D01*
X161216370Y-83358253D01*
X161355527Y-83160984D01*
X161453718Y-82940444D01*
X161507202Y-82705032D01*
X161511053Y-82429294D01*
X161464162Y-82192480D01*
X161372167Y-81969284D01*
X161238572Y-81768208D01*
X161068465Y-81596909D01*
X160868326Y-81461913D01*
X160645778Y-81368363D01*
X160409297Y-81319820D01*
X160167891Y-81318135D01*
X159930756Y-81363371D01*
X159706923Y-81453805D01*
X159504919Y-81585993D01*
X159332437Y-81754900D01*
X159196047Y-81954092D01*
X159100945Y-82175982D01*
X159050753Y-82412118D01*
X159047382Y-82653506D01*
X157881802Y-82653506D01*
X157845778Y-82638363D01*
X157609297Y-82589820D01*
X157367891Y-82588135D01*
X157130756Y-82633371D01*
X156906923Y-82723805D01*
X156704919Y-82855993D01*
X156532437Y-83024900D01*
X156396047Y-83224092D01*
X156300945Y-83445982D01*
X156250753Y-83682118D01*
X156247382Y-83923506D01*
X147066000Y-83923506D01*
X147066000Y-82172100D01*
X156767505Y-82172100D01*
X156859523Y-82350078D01*
X157080207Y-82450566D01*
X157316255Y-82506069D01*
X157558596Y-82514456D01*
X157797917Y-82475402D01*
X158025020Y-82390411D01*
X158100477Y-82350078D01*
X158192495Y-82172100D01*
X157480000Y-81459605D01*
X156767505Y-82172100D01*
X147066000Y-82172100D01*
X147066000Y-81358596D01*
X156245544Y-81358596D01*
X156284598Y-81597917D01*
X156369589Y-81825020D01*
X156409922Y-81900477D01*
X156587900Y-81992495D01*
X157300395Y-81280000D01*
X157659605Y-81280000D01*
X158372100Y-81992495D01*
X158550078Y-81900477D01*
X158650566Y-81679793D01*
X158706069Y-81443745D01*
X158714456Y-81201404D01*
X158675402Y-80962083D01*
X158590411Y-80734980D01*
X158550078Y-80659523D01*
X158372100Y-80567505D01*
X157659605Y-81280000D01*
X157300395Y-81280000D01*
X156587900Y-80567505D01*
X156409922Y-80659523D01*
X156309434Y-80880207D01*
X156253931Y-81116255D01*
X156245544Y-81358596D01*
X147066000Y-81358596D01*
X147066000Y-80387900D01*
X156767505Y-80387900D01*
X157480000Y-81100395D01*
X158192495Y-80387900D01*
X158100477Y-80209922D01*
X157888736Y-80113506D01*
X159047382Y-80113506D01*
X159090962Y-80350951D01*
X159179831Y-80575410D01*
X159310606Y-80778332D01*
X159478304Y-80951989D01*
X159676539Y-81089766D01*
X159897760Y-81186415D01*
X160133540Y-81238255D01*
X160374898Y-81243310D01*
X160612642Y-81201390D01*
X160837716Y-81114089D01*
X161041546Y-80984735D01*
X161216370Y-80818253D01*
X161355527Y-80620984D01*
X161453718Y-80400444D01*
X161507202Y-80165032D01*
X161511053Y-79889294D01*
X161464162Y-79652480D01*
X161372167Y-79429284D01*
X161238572Y-79228208D01*
X161068465Y-79056909D01*
X160868326Y-78921913D01*
X160645778Y-78828363D01*
X160409297Y-78779820D01*
X160167891Y-78778135D01*
X159930756Y-78823371D01*
X159706923Y-78913805D01*
X159504919Y-79045993D01*
X159332437Y-79214900D01*
X159196047Y-79414092D01*
X159100945Y-79635982D01*
X159050753Y-79872118D01*
X159047382Y-80113506D01*
X157888736Y-80113506D01*
X157879793Y-80109434D01*
X157643745Y-80053931D01*
X157401404Y-80045544D01*
X157162083Y-80084598D01*
X156934980Y-80169589D01*
X156859523Y-80209922D01*
X156767505Y-80387900D01*
X147066000Y-80387900D01*
X147066000Y-80010000D01*
X147036998Y-79864198D01*
X146954408Y-79740592D01*
X146830802Y-79658002D01*
X146685000Y-79629000D01*
X142240000Y-79629000D01*
X142094198Y-79658002D01*
X141970592Y-79740592D01*
X141888002Y-79864198D01*
X141859000Y-80010000D01*
X141859000Y-87249000D01*
X125891794Y-87249000D01*
X125830411Y-87084980D01*
X125790078Y-87009523D01*
X125612100Y-86917505D01*
X125280605Y-87249000D01*
X124921395Y-87249000D01*
X125432495Y-86737900D01*
X125340477Y-86559922D01*
X125119793Y-86459434D01*
X124883745Y-86403931D01*
X124641404Y-86395544D01*
X124402083Y-86434598D01*
X124174980Y-86519589D01*
X124099523Y-86559922D01*
X124007505Y-86737900D01*
X124518605Y-87249000D01*
X124159395Y-87249000D01*
X123827900Y-86917505D01*
X123649922Y-87009523D01*
X123549434Y-87230207D01*
X123545015Y-87249000D01*
X122771577Y-87249000D01*
X122856370Y-87168253D01*
X122995527Y-86970984D01*
X123093718Y-86750444D01*
X123147202Y-86515032D01*
X123151053Y-86239294D01*
X123104162Y-86002480D01*
X123012167Y-85779284D01*
X122878572Y-85578208D01*
X122708465Y-85406909D01*
X122508326Y-85271913D01*
X122321802Y-85193506D01*
X123487382Y-85193506D01*
X123530962Y-85430951D01*
X123619831Y-85655410D01*
X123750606Y-85858332D01*
X123918304Y-86031989D01*
X124116539Y-86169766D01*
X124337760Y-86266415D01*
X124573540Y-86318255D01*
X124814898Y-86323310D01*
X125052642Y-86281390D01*
X125277716Y-86194089D01*
X125481546Y-86064735D01*
X125656370Y-85898253D01*
X125795527Y-85700984D01*
X125893718Y-85480444D01*
X125947202Y-85245032D01*
X125951053Y-84969294D01*
X125904162Y-84732480D01*
X125812167Y-84509284D01*
X125678572Y-84308208D01*
X125508465Y-84136909D01*
X125308326Y-84001913D01*
X125085778Y-83908363D01*
X124849297Y-83859820D01*
X124607891Y-83858135D01*
X124370756Y-83903371D01*
X124146923Y-83993805D01*
X123944919Y-84125993D01*
X123772437Y-84294900D01*
X123636047Y-84494092D01*
X123540945Y-84715982D01*
X123490753Y-84952118D01*
X123487382Y-85193506D01*
X122321802Y-85193506D01*
X122285778Y-85178363D01*
X122049297Y-85129820D01*
X121807891Y-85128135D01*
X121570756Y-85173371D01*
X121346923Y-85263805D01*
X121144919Y-85395993D01*
X120972437Y-85564900D01*
X120836047Y-85764092D01*
X120740945Y-85985982D01*
X120690753Y-86222118D01*
X120687382Y-86463506D01*
X120730962Y-86700951D01*
X120819831Y-86925410D01*
X120950606Y-87128332D01*
X121118304Y-87301989D01*
X121316539Y-87439766D01*
X121537760Y-87536415D01*
X121556783Y-87540598D01*
X121539000Y-87630000D01*
X121539000Y-87726201D01*
X121346923Y-87803805D01*
X121144919Y-87935993D01*
X120972437Y-88104900D01*
X120836047Y-88304092D01*
X120740945Y-88525982D01*
X120690753Y-88762118D01*
X120687382Y-89003506D01*
X120730962Y-89240951D01*
X120819831Y-89465410D01*
X120950606Y-89668332D01*
X121118304Y-89841989D01*
X121316539Y-89979766D01*
X121537760Y-90076415D01*
X121539000Y-90076688D01*
X121539000Y-90266201D01*
X121346923Y-90343805D01*
X121144919Y-90475993D01*
X120972437Y-90644900D01*
X120836047Y-90844092D01*
X120740945Y-91065982D01*
X120690753Y-91302118D01*
X120687382Y-91543506D01*
X120730962Y-91780951D01*
X120819831Y-92005410D01*
X120950606Y-92208332D01*
X121118304Y-92381989D01*
X121316539Y-92519766D01*
X121537760Y-92616415D01*
X121539000Y-92616688D01*
X121539000Y-92806201D01*
X121346923Y-92883805D01*
X121144919Y-93015993D01*
X120972437Y-93184900D01*
X120836047Y-93384092D01*
X120740945Y-93605982D01*
X120690753Y-93842118D01*
X120687382Y-94083506D01*
X120730962Y-94320951D01*
X120819831Y-94545410D01*
X120950606Y-94748332D01*
X121118304Y-94921989D01*
X121316539Y-95059766D01*
X121537760Y-95156415D01*
X121539000Y-95156688D01*
X121539000Y-95346201D01*
X121346923Y-95423805D01*
X121144919Y-95555993D01*
X120972437Y-95724900D01*
X120836047Y-95924092D01*
X120740945Y-96145982D01*
X120690753Y-96382118D01*
X120687382Y-96623506D01*
X120730962Y-96860951D01*
X120819831Y-97085410D01*
X120950606Y-97288332D01*
X121118304Y-97461989D01*
X121316539Y-97599766D01*
X121537760Y-97696415D01*
X121773540Y-97748255D01*
X122014898Y-97753310D01*
X122252642Y-97711390D01*
X122477716Y-97624089D01*
X122681546Y-97494735D01*
X122856370Y-97328253D01*
X122995527Y-97130984D01*
X123093718Y-96910444D01*
X123095864Y-96901000D01*
X123868324Y-96901000D01*
X123772437Y-96994900D01*
X123636047Y-97194092D01*
X123540945Y-97415982D01*
X123490753Y-97652118D01*
X123487382Y-97893506D01*
X123530962Y-98130951D01*
X123619831Y-98355410D01*
X123750606Y-98558332D01*
X123918304Y-98731989D01*
X124116539Y-98869766D01*
X124337760Y-98966415D01*
X124573540Y-99018255D01*
X124814898Y-99023310D01*
X125052642Y-98981390D01*
X125277716Y-98894089D01*
X125349000Y-98848851D01*
X125349000Y-99269348D01*
X125308326Y-99241913D01*
X125085778Y-99148363D01*
X124849297Y-99099820D01*
X124607891Y-99098135D01*
X124370756Y-99143371D01*
X124146923Y-99233805D01*
X123944919Y-99365993D01*
X123772437Y-99534900D01*
X123636047Y-99734092D01*
X123540945Y-99955982D01*
X123490753Y-100192118D01*
X123487382Y-100433506D01*
X123530962Y-100670951D01*
X123619831Y-100895410D01*
X123750606Y-101098332D01*
X123918304Y-101271989D01*
X124116539Y-101409766D01*
X124337760Y-101506415D01*
X124573540Y-101558255D01*
X124814898Y-101563310D01*
X125052642Y-101521390D01*
X125277716Y-101434089D01*
X125349000Y-101388851D01*
X125349000Y-101809348D01*
X125308326Y-101781913D01*
X125085778Y-101688363D01*
X124849297Y-101639820D01*
X124607891Y-101638135D01*
X124370756Y-101683371D01*
X124146923Y-101773805D01*
X123944919Y-101905993D01*
X123772437Y-102074900D01*
X123636047Y-102274092D01*
X123540945Y-102495982D01*
X123490753Y-102732118D01*
X123487382Y-102973506D01*
X123530962Y-103210951D01*
X123619831Y-103435410D01*
X123750606Y-103638332D01*
X123918304Y-103811989D01*
X124116539Y-103949766D01*
X124337760Y-104046415D01*
X124573540Y-104098255D01*
X124814898Y-104103310D01*
X125052642Y-104061390D01*
X125277716Y-103974089D01*
X125349000Y-103928851D01*
X125349000Y-104349348D01*
X125308326Y-104321913D01*
X125085778Y-104228363D01*
X124849297Y-104179820D01*
X124607891Y-104178135D01*
X124370756Y-104223371D01*
X124146923Y-104313805D01*
X123944919Y-104445993D01*
X123772437Y-104614900D01*
X123636047Y-104814092D01*
X123540945Y-105035982D01*
X123490753Y-105272118D01*
X123487382Y-105513506D01*
X123530962Y-105750951D01*
X123619831Y-105975410D01*
X123750606Y-106178332D01*
X123918304Y-106351989D01*
X124116539Y-106489766D01*
X124337760Y-106586415D01*
X124573540Y-106638255D01*
X124814898Y-106643310D01*
X125052642Y-106601390D01*
X125277716Y-106514089D01*
X125349000Y-106468851D01*
X125349000Y-106889348D01*
X125308326Y-106861913D01*
X125085778Y-106768363D01*
X124849297Y-106719820D01*
X124607891Y-106718135D01*
X124370756Y-106763371D01*
X124146923Y-106853805D01*
X123944919Y-106985993D01*
X123772437Y-107154900D01*
X123636047Y-107354092D01*
X123540945Y-107575982D01*
X123490753Y-107812118D01*
X123487382Y-108053506D01*
X123530962Y-108290951D01*
X123619831Y-108515410D01*
X123750606Y-108718332D01*
X123918304Y-108891989D01*
X124116539Y-109029766D01*
X124337760Y-109126415D01*
X124573540Y-109178255D01*
X124814898Y-109183310D01*
X125052642Y-109141390D01*
X125277716Y-109054089D01*
X125349000Y-109008851D01*
X125349000Y-109429348D01*
X125308326Y-109401913D01*
X125085778Y-109308363D01*
X124849297Y-109259820D01*
X124607891Y-109258135D01*
X124370756Y-109303371D01*
X124146923Y-109393805D01*
X123944919Y-109525993D01*
X123772437Y-109694900D01*
X123636047Y-109894092D01*
X123540945Y-110115982D01*
X123490753Y-110352118D01*
X123487382Y-110593506D01*
X123530962Y-110830951D01*
X123546252Y-110869570D01*
X123473002Y-110979198D01*
X123444000Y-111125000D01*
X123444000Y-116840000D01*
X123473002Y-116985802D01*
X123555592Y-117109408D01*
X123679198Y-117191998D01*
X123825000Y-117221000D01*
X123868324Y-117221000D01*
X123772437Y-117314900D01*
X123636047Y-117514092D01*
X123540945Y-117735982D01*
X123490753Y-117972118D01*
X123487382Y-118213506D01*
X123530962Y-118450951D01*
X123619831Y-118675410D01*
X123750606Y-118878332D01*
X123918304Y-119051989D01*
X124116539Y-119189766D01*
X124337760Y-119286415D01*
X124573540Y-119338255D01*
X124814898Y-119343310D01*
X125052642Y-119301390D01*
X125277716Y-119214089D01*
X125481546Y-119084735D01*
X125656370Y-118918253D01*
X125795527Y-118720984D01*
X125893718Y-118500444D01*
X125947202Y-118265032D01*
X125951053Y-117989294D01*
X125904162Y-117752480D01*
X125812167Y-117529284D01*
X125678572Y-117328208D01*
X125572110Y-117221000D01*
X128424000Y-117221000D01*
X128424000Y-118805763D01*
X125181263Y-122048501D01*
X125085778Y-122008363D01*
X124849297Y-121959820D01*
X124607891Y-121958135D01*
X124370756Y-122003371D01*
X124146923Y-122093805D01*
X123944919Y-122225993D01*
X123772437Y-122394900D01*
X123636047Y-122594092D01*
X123540945Y-122815982D01*
X123490753Y-123052118D01*
X123487382Y-123293506D01*
X123530962Y-123530951D01*
X123619831Y-123755410D01*
X123750606Y-123958332D01*
X123770565Y-123979000D01*
X123053267Y-123979000D01*
X123012167Y-123879284D01*
X122878572Y-123678208D01*
X122708465Y-123506909D01*
X122508326Y-123371913D01*
X122285778Y-123278363D01*
X122049297Y-123229820D01*
X121807891Y-123228135D01*
X121570756Y-123273371D01*
X121346923Y-123363805D01*
X121144919Y-123495993D01*
X120972437Y-123664900D01*
X120836047Y-123864092D01*
X120740945Y-124085982D01*
X120690753Y-124322118D01*
X120687382Y-124563506D01*
X120730962Y-124800951D01*
X120819831Y-125025410D01*
X120950606Y-125228332D01*
X121118304Y-125401989D01*
X121316539Y-125539766D01*
X121537760Y-125636415D01*
X121773540Y-125688255D01*
X122014898Y-125693310D01*
X122252642Y-125651390D01*
X122477716Y-125564089D01*
X122681546Y-125434735D01*
X122856370Y-125268253D01*
X122995527Y-125070984D01*
X123053400Y-124941000D01*
X123768260Y-124941000D01*
X123636047Y-125134092D01*
X123540945Y-125355982D01*
X123490753Y-125592118D01*
X123487382Y-125833506D01*
X123530962Y-126070951D01*
X123619831Y-126295410D01*
X123750606Y-126498332D01*
X123918304Y-126671989D01*
X124116539Y-126809766D01*
X124261276Y-126873000D01*
X120142000Y-126873000D01*
X120142000Y-122023506D01*
X120687382Y-122023506D01*
X120730962Y-122260951D01*
X120819831Y-122485410D01*
X120950606Y-122688332D01*
X121118304Y-122861989D01*
X121316539Y-122999766D01*
X121537760Y-123096415D01*
X121773540Y-123148255D01*
X122014898Y-123153310D01*
X122252642Y-123111390D01*
X122477716Y-123024089D01*
X122681546Y-122894735D01*
X122856370Y-122728253D01*
X122995527Y-122530984D01*
X123093718Y-122310444D01*
X123147202Y-122075032D01*
X123151053Y-121799294D01*
X123104162Y-121562480D01*
X123012167Y-121339284D01*
X122878572Y-121138208D01*
X122708465Y-120966909D01*
X122508326Y-120831913D01*
X122321802Y-120753506D01*
X123487382Y-120753506D01*
X123530962Y-120990951D01*
X123619831Y-121215410D01*
X123750606Y-121418332D01*
X123918304Y-121591989D01*
X124116539Y-121729766D01*
X124337760Y-121826415D01*
X124573540Y-121878255D01*
X124814898Y-121883310D01*
X125052642Y-121841390D01*
X125277716Y-121754089D01*
X125481546Y-121624735D01*
X125656370Y-121458253D01*
X125795527Y-121260984D01*
X125893718Y-121040444D01*
X125947202Y-120805032D01*
X125951053Y-120529294D01*
X125904162Y-120292480D01*
X125812167Y-120069284D01*
X125678572Y-119868208D01*
X125508465Y-119696909D01*
X125308326Y-119561913D01*
X125085778Y-119468363D01*
X124849297Y-119419820D01*
X124607891Y-119418135D01*
X124370756Y-119463371D01*
X124146923Y-119553805D01*
X123944919Y-119685993D01*
X123772437Y-119854900D01*
X123636047Y-120054092D01*
X123540945Y-120275982D01*
X123490753Y-120512118D01*
X123487382Y-120753506D01*
X122321802Y-120753506D01*
X122285778Y-120738363D01*
X122049297Y-120689820D01*
X121807891Y-120688135D01*
X121570756Y-120733371D01*
X121346923Y-120823805D01*
X121144919Y-120955993D01*
X120972437Y-121124900D01*
X120836047Y-121324092D01*
X120740945Y-121545982D01*
X120690753Y-121782118D01*
X120687382Y-122023506D01*
X120142000Y-122023506D01*
X120142000Y-119483506D01*
X120687382Y-119483506D01*
X120730962Y-119720951D01*
X120819831Y-119945410D01*
X120950606Y-120148332D01*
X121118304Y-120321989D01*
X121316539Y-120459766D01*
X121537760Y-120556415D01*
X121773540Y-120608255D01*
X122014898Y-120613310D01*
X122252642Y-120571390D01*
X122477716Y-120484089D01*
X122681546Y-120354735D01*
X122856370Y-120188253D01*
X122995527Y-119990984D01*
X123093718Y-119770444D01*
X123147202Y-119535032D01*
X123151053Y-119259294D01*
X123104162Y-119022480D01*
X123012167Y-118799284D01*
X122878572Y-118598208D01*
X122708465Y-118426909D01*
X122508326Y-118291913D01*
X122285778Y-118198363D01*
X122049297Y-118149820D01*
X121807891Y-118148135D01*
X121570756Y-118193371D01*
X121346923Y-118283805D01*
X121144919Y-118415993D01*
X120972437Y-118584900D01*
X120836047Y-118784092D01*
X120740945Y-119005982D01*
X120690753Y-119242118D01*
X120687382Y-119483506D01*
X120142000Y-119483506D01*
X120142000Y-116943506D01*
X120687382Y-116943506D01*
X120730962Y-117180951D01*
X120819831Y-117405410D01*
X120950606Y-117608332D01*
X121118304Y-117781989D01*
X121316539Y-117919766D01*
X121537760Y-118016415D01*
X121773540Y-118068255D01*
X122014898Y-118073310D01*
X122252642Y-118031390D01*
X122477716Y-117944089D01*
X122681546Y-117814735D01*
X122856370Y-117648253D01*
X122995527Y-117450984D01*
X123093718Y-117230444D01*
X123147202Y-116995032D01*
X123151053Y-116719294D01*
X123104162Y-116482480D01*
X123012167Y-116259284D01*
X122878572Y-116058208D01*
X122708465Y-115886909D01*
X122508326Y-115751913D01*
X122285778Y-115658363D01*
X122049297Y-115609820D01*
X121807891Y-115608135D01*
X121570756Y-115653371D01*
X121346923Y-115743805D01*
X121144919Y-115875993D01*
X120972437Y-116044900D01*
X120836047Y-116244092D01*
X120740945Y-116465982D01*
X120690753Y-116702118D01*
X120687382Y-116943506D01*
X120142000Y-116943506D01*
X120142000Y-115192100D01*
X121207505Y-115192100D01*
X121299523Y-115370078D01*
X121520207Y-115470566D01*
X121756255Y-115526069D01*
X121998596Y-115534456D01*
X122237917Y-115495402D01*
X122465020Y-115410411D01*
X122540477Y-115370078D01*
X122632495Y-115192100D01*
X121920000Y-114479605D01*
X121207505Y-115192100D01*
X120142000Y-115192100D01*
X120142000Y-114378596D01*
X120685544Y-114378596D01*
X120724598Y-114617917D01*
X120809589Y-114845020D01*
X120849922Y-114920477D01*
X121027900Y-115012495D01*
X121740395Y-114300000D01*
X122099605Y-114300000D01*
X122812100Y-115012495D01*
X122990078Y-114920477D01*
X123090566Y-114699793D01*
X123146069Y-114463745D01*
X123154456Y-114221404D01*
X123115402Y-113982083D01*
X123030411Y-113754980D01*
X122990078Y-113679523D01*
X122812100Y-113587505D01*
X122099605Y-114300000D01*
X121740395Y-114300000D01*
X121027900Y-113587505D01*
X120849922Y-113679523D01*
X120749434Y-113900207D01*
X120693931Y-114136255D01*
X120685544Y-114378596D01*
X120142000Y-114378596D01*
X120142000Y-113407900D01*
X121207505Y-113407900D01*
X121920000Y-114120395D01*
X122632495Y-113407900D01*
X122540477Y-113229922D01*
X122319793Y-113129434D01*
X122083745Y-113073931D01*
X121841404Y-113065544D01*
X121602083Y-113104598D01*
X121374980Y-113189589D01*
X121299523Y-113229922D01*
X121207505Y-113407900D01*
X120142000Y-113407900D01*
X120142000Y-111863506D01*
X120687382Y-111863506D01*
X120730962Y-112100951D01*
X120819831Y-112325410D01*
X120950606Y-112528332D01*
X121118304Y-112701989D01*
X121316539Y-112839766D01*
X121537760Y-112936415D01*
X121773540Y-112988255D01*
X122014898Y-112993310D01*
X122252642Y-112951390D01*
X122477716Y-112864089D01*
X122681546Y-112734735D01*
X122856370Y-112568253D01*
X122995527Y-112370984D01*
X123093718Y-112150444D01*
X123147202Y-111915032D01*
X123151053Y-111639294D01*
X123104162Y-111402480D01*
X123012167Y-111179284D01*
X122878572Y-110978208D01*
X122708465Y-110806909D01*
X122508326Y-110671913D01*
X122285778Y-110578363D01*
X122049297Y-110529820D01*
X121807891Y-110528135D01*
X121570756Y-110573371D01*
X121346923Y-110663805D01*
X121144919Y-110795993D01*
X120972437Y-110964900D01*
X120836047Y-111164092D01*
X120740945Y-111385982D01*
X120690753Y-111622118D01*
X120687382Y-111863506D01*
X120142000Y-111863506D01*
X120142000Y-109323506D01*
X120687382Y-109323506D01*
X120730962Y-109560951D01*
X120819831Y-109785410D01*
X120950606Y-109988332D01*
X121118304Y-110161989D01*
X121316539Y-110299766D01*
X121537760Y-110396415D01*
X121773540Y-110448255D01*
X122014898Y-110453310D01*
X122252642Y-110411390D01*
X122477716Y-110324089D01*
X122681546Y-110194735D01*
X122856370Y-110028253D01*
X122995527Y-109830984D01*
X123093718Y-109610444D01*
X123147202Y-109375032D01*
X123151053Y-109099294D01*
X123104162Y-108862480D01*
X123012167Y-108639284D01*
X122878572Y-108438208D01*
X122708465Y-108266909D01*
X122508326Y-108131913D01*
X122285778Y-108038363D01*
X122049297Y-107989820D01*
X121807891Y-107988135D01*
X121570756Y-108033371D01*
X121346923Y-108123805D01*
X121144919Y-108255993D01*
X120972437Y-108424900D01*
X120836047Y-108624092D01*
X120740945Y-108845982D01*
X120690753Y-109082118D01*
X120687382Y-109323506D01*
X120142000Y-109323506D01*
X120142000Y-106783506D01*
X120687382Y-106783506D01*
X120730962Y-107020951D01*
X120819831Y-107245410D01*
X120950606Y-107448332D01*
X121118304Y-107621989D01*
X121316539Y-107759766D01*
X121537760Y-107856415D01*
X121773540Y-107908255D01*
X122014898Y-107913310D01*
X122252642Y-107871390D01*
X122477716Y-107784089D01*
X122681546Y-107654735D01*
X122856370Y-107488253D01*
X122995527Y-107290984D01*
X123093718Y-107070444D01*
X123147202Y-106835032D01*
X123151053Y-106559294D01*
X123104162Y-106322480D01*
X123012167Y-106099284D01*
X122878572Y-105898208D01*
X122708465Y-105726909D01*
X122508326Y-105591913D01*
X122285778Y-105498363D01*
X122049297Y-105449820D01*
X121807891Y-105448135D01*
X121570756Y-105493371D01*
X121346923Y-105583805D01*
X121144919Y-105715993D01*
X120972437Y-105884900D01*
X120836047Y-106084092D01*
X120740945Y-106305982D01*
X120690753Y-106542118D01*
X120687382Y-106783506D01*
X120142000Y-106783506D01*
X120142000Y-104243506D01*
X120687382Y-104243506D01*
X120730962Y-104480951D01*
X120819831Y-104705410D01*
X120950606Y-104908332D01*
X121118304Y-105081989D01*
X121316539Y-105219766D01*
X121537760Y-105316415D01*
X121773540Y-105368255D01*
X122014898Y-105373310D01*
X122252642Y-105331390D01*
X122477716Y-105244089D01*
X122681546Y-105114735D01*
X122856370Y-104948253D01*
X122995527Y-104750984D01*
X123093718Y-104530444D01*
X123147202Y-104295032D01*
X123151053Y-104019294D01*
X123104162Y-103782480D01*
X123012167Y-103559284D01*
X122878572Y-103358208D01*
X122708465Y-103186909D01*
X122508326Y-103051913D01*
X122285778Y-102958363D01*
X122049297Y-102909820D01*
X121807891Y-102908135D01*
X121570756Y-102953371D01*
X121346923Y-103043805D01*
X121144919Y-103175993D01*
X120972437Y-103344900D01*
X120836047Y-103544092D01*
X120740945Y-103765982D01*
X120690753Y-104002118D01*
X120687382Y-104243506D01*
X120142000Y-104243506D01*
X120142000Y-101703506D01*
X120687382Y-101703506D01*
X120730962Y-101940951D01*
X120819831Y-102165410D01*
X120950606Y-102368332D01*
X121118304Y-102541989D01*
X121316539Y-102679766D01*
X121537760Y-102776415D01*
X121773540Y-102828255D01*
X122014898Y-102833310D01*
X122252642Y-102791390D01*
X122477716Y-102704089D01*
X122681546Y-102574735D01*
X122856370Y-102408253D01*
X122995527Y-102210984D01*
X123093718Y-101990444D01*
X123147202Y-101755032D01*
X123151053Y-101479294D01*
X123104162Y-101242480D01*
X123012167Y-101019284D01*
X122878572Y-100818208D01*
X122708465Y-100646909D01*
X122508326Y-100511913D01*
X122285778Y-100418363D01*
X122049297Y-100369820D01*
X121807891Y-100368135D01*
X121570756Y-100413371D01*
X121346923Y-100503805D01*
X121144919Y-100635993D01*
X120972437Y-100804900D01*
X120836047Y-101004092D01*
X120740945Y-101225982D01*
X120690753Y-101462118D01*
X120687382Y-101703506D01*
X120142000Y-101703506D01*
X120142000Y-99163506D01*
X120687382Y-99163506D01*
X120730962Y-99400951D01*
X120819831Y-99625410D01*
X120950606Y-99828332D01*
X121118304Y-100001989D01*
X121316539Y-100139766D01*
X121537760Y-100236415D01*
X121773540Y-100288255D01*
X122014898Y-100293310D01*
X122252642Y-100251390D01*
X122477716Y-100164089D01*
X122681546Y-100034735D01*
X122856370Y-99868253D01*
X122995527Y-99670984D01*
X123093718Y-99450444D01*
X123147202Y-99215032D01*
X123151053Y-98939294D01*
X123104162Y-98702480D01*
X123012167Y-98479284D01*
X122878572Y-98278208D01*
X122708465Y-98106909D01*
X122508326Y-97971913D01*
X122285778Y-97878363D01*
X122049297Y-97829820D01*
X121807891Y-97828135D01*
X121570756Y-97873371D01*
X121346923Y-97963805D01*
X121144919Y-98095993D01*
X120972437Y-98264900D01*
X120836047Y-98464092D01*
X120740945Y-98685982D01*
X120690753Y-98922118D01*
X120687382Y-99163506D01*
X120142000Y-99163506D01*
X120142000Y-83923506D01*
X120687382Y-83923506D01*
X120730962Y-84160951D01*
X120819831Y-84385410D01*
X120950606Y-84588332D01*
X121118304Y-84761989D01*
X121316539Y-84899766D01*
X121537760Y-84996415D01*
X121773540Y-85048255D01*
X122014898Y-85053310D01*
X122252642Y-85011390D01*
X122477716Y-84924089D01*
X122681546Y-84794735D01*
X122856370Y-84628253D01*
X122995527Y-84430984D01*
X123093718Y-84210444D01*
X123147202Y-83975032D01*
X123151053Y-83699294D01*
X123104162Y-83462480D01*
X123012167Y-83239284D01*
X122878572Y-83038208D01*
X122708465Y-82866909D01*
X122508326Y-82731913D01*
X122321802Y-82653506D01*
X123487382Y-82653506D01*
X123530962Y-82890951D01*
X123619831Y-83115410D01*
X123750606Y-83318332D01*
X123918304Y-83491989D01*
X124116539Y-83629766D01*
X124337760Y-83726415D01*
X124573540Y-83778255D01*
X124814898Y-83783310D01*
X125052642Y-83741390D01*
X125277716Y-83654089D01*
X125481546Y-83524735D01*
X125656370Y-83358253D01*
X125795527Y-83160984D01*
X125893718Y-82940444D01*
X125947202Y-82705032D01*
X125951053Y-82429294D01*
X125904162Y-82192480D01*
X125812167Y-81969284D01*
X125678572Y-81768208D01*
X125508465Y-81596909D01*
X125308326Y-81461913D01*
X125085778Y-81368363D01*
X124849297Y-81319820D01*
X124607891Y-81318135D01*
X124370756Y-81363371D01*
X124146923Y-81453805D01*
X123944919Y-81585993D01*
X123772437Y-81754900D01*
X123636047Y-81954092D01*
X123540945Y-82175982D01*
X123490753Y-82412118D01*
X123487382Y-82653506D01*
X122321802Y-82653506D01*
X122285778Y-82638363D01*
X122049297Y-82589820D01*
X121807891Y-82588135D01*
X121570756Y-82633371D01*
X121346923Y-82723805D01*
X121144919Y-82855993D01*
X120972437Y-83024900D01*
X120836047Y-83224092D01*
X120740945Y-83445982D01*
X120690753Y-83682118D01*
X120687382Y-83923506D01*
X120142000Y-83923506D01*
X120142000Y-82172100D01*
X121207505Y-82172100D01*
X121299523Y-82350078D01*
X121520207Y-82450566D01*
X121756255Y-82506069D01*
X121998596Y-82514456D01*
X122237917Y-82475402D01*
X122465020Y-82390411D01*
X122540477Y-82350078D01*
X122632495Y-82172100D01*
X121920000Y-81459605D01*
X121207505Y-82172100D01*
X120142000Y-82172100D01*
X120142000Y-81358596D01*
X120685544Y-81358596D01*
X120724598Y-81597917D01*
X120809589Y-81825020D01*
X120849922Y-81900477D01*
X121027900Y-81992495D01*
X121740395Y-81280000D01*
X122099605Y-81280000D01*
X122812100Y-81992495D01*
X122990078Y-81900477D01*
X123090566Y-81679793D01*
X123146069Y-81443745D01*
X123154456Y-81201404D01*
X123115402Y-80962083D01*
X123030411Y-80734980D01*
X122990078Y-80659523D01*
X122812100Y-80567505D01*
X122099605Y-81280000D01*
X121740395Y-81280000D01*
X121027900Y-80567505D01*
X120849922Y-80659523D01*
X120749434Y-80880207D01*
X120693931Y-81116255D01*
X120685544Y-81358596D01*
X120142000Y-81358596D01*
X120142000Y-80387900D01*
X121207505Y-80387900D01*
X121920000Y-81100395D01*
X122632495Y-80387900D01*
X122540477Y-80209922D01*
X122328736Y-80113506D01*
X123487382Y-80113506D01*
X123530962Y-80350951D01*
X123619831Y-80575410D01*
X123750606Y-80778332D01*
X123918304Y-80951989D01*
X124116539Y-81089766D01*
X124337760Y-81186415D01*
X124573540Y-81238255D01*
X124814898Y-81243310D01*
X125052642Y-81201390D01*
X125277716Y-81114089D01*
X125481546Y-80984735D01*
X125656370Y-80818253D01*
X125795527Y-80620984D01*
X125893718Y-80400444D01*
X125947202Y-80165032D01*
X125951053Y-79889294D01*
X125904162Y-79652480D01*
X125812167Y-79429284D01*
X125678572Y-79228208D01*
X125508465Y-79056909D01*
X125308326Y-78921913D01*
X125121802Y-78843506D01*
X156247382Y-78843506D01*
X156290962Y-79080951D01*
X156379831Y-79305410D01*
X156510606Y-79508332D01*
X156678304Y-79681989D01*
X156876539Y-79819766D01*
X157097760Y-79916415D01*
X157333540Y-79968255D01*
X157574898Y-79973310D01*
X157812642Y-79931390D01*
X158037716Y-79844089D01*
X158241546Y-79714735D01*
X158416370Y-79548253D01*
X158555527Y-79350984D01*
X158653718Y-79130444D01*
X158707202Y-78895032D01*
X158711053Y-78619294D01*
X158664162Y-78382480D01*
X158572167Y-78159284D01*
X158438572Y-77958208D01*
X158268465Y-77786909D01*
X158068326Y-77651913D01*
X157881802Y-77573506D01*
X159047382Y-77573506D01*
X159090962Y-77810951D01*
X159179831Y-78035410D01*
X159310606Y-78238332D01*
X159478304Y-78411989D01*
X159676539Y-78549766D01*
X159897760Y-78646415D01*
X160133540Y-78698255D01*
X160374898Y-78703310D01*
X160612642Y-78661390D01*
X160837716Y-78574089D01*
X161041546Y-78444735D01*
X161216370Y-78278253D01*
X161355527Y-78080984D01*
X161453718Y-77860444D01*
X161507202Y-77625032D01*
X161511053Y-77349294D01*
X161464162Y-77112480D01*
X161372167Y-76889284D01*
X161238572Y-76688208D01*
X161068465Y-76516909D01*
X160868326Y-76381913D01*
X160645778Y-76288363D01*
X160409297Y-76239820D01*
X160167891Y-76238135D01*
X159930756Y-76283371D01*
X159706923Y-76373805D01*
X159504919Y-76505993D01*
X159332437Y-76674900D01*
X159196047Y-76874092D01*
X159100945Y-77095982D01*
X159050753Y-77332118D01*
X159047382Y-77573506D01*
X157881802Y-77573506D01*
X157845778Y-77558363D01*
X157609297Y-77509820D01*
X157367891Y-77508135D01*
X157130756Y-77553371D01*
X156906923Y-77643805D01*
X156704919Y-77775993D01*
X156532437Y-77944900D01*
X156396047Y-78144092D01*
X156300945Y-78365982D01*
X156250753Y-78602118D01*
X156247382Y-78843506D01*
X125121802Y-78843506D01*
X125085778Y-78828363D01*
X124849297Y-78779820D01*
X124607891Y-78778135D01*
X124370756Y-78823371D01*
X124146923Y-78913805D01*
X123944919Y-79045993D01*
X123772437Y-79214900D01*
X123636047Y-79414092D01*
X123540945Y-79635982D01*
X123490753Y-79872118D01*
X123487382Y-80113506D01*
X122328736Y-80113506D01*
X122319793Y-80109434D01*
X122083745Y-80053931D01*
X121841404Y-80045544D01*
X121602083Y-80084598D01*
X121374980Y-80169589D01*
X121299523Y-80209922D01*
X121207505Y-80387900D01*
X120142000Y-80387900D01*
X120142000Y-78843506D01*
X120687382Y-78843506D01*
X120730962Y-79080951D01*
X120819831Y-79305410D01*
X120950606Y-79508332D01*
X121118304Y-79681989D01*
X121316539Y-79819766D01*
X121537760Y-79916415D01*
X121773540Y-79968255D01*
X122014898Y-79973310D01*
X122252642Y-79931390D01*
X122477716Y-79844089D01*
X122681546Y-79714735D01*
X122856370Y-79548253D01*
X122995527Y-79350984D01*
X123093718Y-79130444D01*
X123147202Y-78895032D01*
X123151053Y-78619294D01*
X123104162Y-78382480D01*
X123012167Y-78159284D01*
X122878572Y-77958208D01*
X122708465Y-77786909D01*
X122508326Y-77651913D01*
X122321802Y-77573506D01*
X123487382Y-77573506D01*
X123530962Y-77810951D01*
X123619831Y-78035410D01*
X123750606Y-78238332D01*
X123918304Y-78411989D01*
X124116539Y-78549766D01*
X124337760Y-78646415D01*
X124573540Y-78698255D01*
X124814898Y-78703310D01*
X125052642Y-78661390D01*
X125277716Y-78574089D01*
X125481546Y-78444735D01*
X125656370Y-78278253D01*
X125795527Y-78080984D01*
X125893718Y-77860444D01*
X125947202Y-77625032D01*
X125951053Y-77349294D01*
X125904162Y-77112480D01*
X125812167Y-76889284D01*
X125678572Y-76688208D01*
X125508465Y-76516909D01*
X125308326Y-76381913D01*
X125121802Y-76303506D01*
X156247382Y-76303506D01*
X156290962Y-76540951D01*
X156379831Y-76765410D01*
X156510606Y-76968332D01*
X156678304Y-77141989D01*
X156876539Y-77279766D01*
X157097760Y-77376415D01*
X157333540Y-77428255D01*
X157574898Y-77433310D01*
X157812642Y-77391390D01*
X158037716Y-77304089D01*
X158241546Y-77174735D01*
X158416370Y-77008253D01*
X158555527Y-76810984D01*
X158653718Y-76590444D01*
X158707202Y-76355032D01*
X158711053Y-76079294D01*
X158664162Y-75842480D01*
X158572167Y-75619284D01*
X158438572Y-75418208D01*
X158268465Y-75246909D01*
X158068326Y-75111913D01*
X157845778Y-75018363D01*
X157609297Y-74969820D01*
X157367891Y-74968135D01*
X157130756Y-75013371D01*
X156906923Y-75103805D01*
X156704919Y-75235993D01*
X156532437Y-75404900D01*
X156396047Y-75604092D01*
X156300945Y-75825982D01*
X156250753Y-76062118D01*
X156247382Y-76303506D01*
X125121802Y-76303506D01*
X125085778Y-76288363D01*
X124849297Y-76239820D01*
X124607891Y-76238135D01*
X124370756Y-76283371D01*
X124146923Y-76373805D01*
X123944919Y-76505993D01*
X123772437Y-76674900D01*
X123636047Y-76874092D01*
X123540945Y-77095982D01*
X123490753Y-77332118D01*
X123487382Y-77573506D01*
X122321802Y-77573506D01*
X122285778Y-77558363D01*
X122049297Y-77509820D01*
X121807891Y-77508135D01*
X121570756Y-77553371D01*
X121346923Y-77643805D01*
X121144919Y-77775993D01*
X120972437Y-77944900D01*
X120836047Y-78144092D01*
X120740945Y-78365982D01*
X120690753Y-78602118D01*
X120687382Y-78843506D01*
X120142000Y-78843506D01*
X120142000Y-76303506D01*
X120687382Y-76303506D01*
X120730962Y-76540951D01*
X120819831Y-76765410D01*
X120950606Y-76968332D01*
X121118304Y-77141989D01*
X121316539Y-77279766D01*
X121537760Y-77376415D01*
X121773540Y-77428255D01*
X122014898Y-77433310D01*
X122252642Y-77391390D01*
X122477716Y-77304089D01*
X122681546Y-77174735D01*
X122856370Y-77008253D01*
X122995527Y-76810984D01*
X123093718Y-76590444D01*
X123147202Y-76355032D01*
X123151053Y-76079294D01*
X123104162Y-75842480D01*
X123012167Y-75619284D01*
X122878572Y-75418208D01*
X122708465Y-75246909D01*
X122508326Y-75111913D01*
X122285778Y-75018363D01*
X122049297Y-74969820D01*
X121807891Y-74968135D01*
X121570756Y-75013371D01*
X121346923Y-75103805D01*
X121144919Y-75235993D01*
X120972437Y-75404900D01*
X120836047Y-75604092D01*
X120740945Y-75825982D01*
X120690753Y-76062118D01*
X120687382Y-76303506D01*
X120142000Y-76303506D01*
X120142000Y-74422000D01*
X161798000Y-74422000D01*
X161798000Y-126873000D01*
X161798000Y-126873000D01*
G37*
X161798000Y-126873000D02*
X160737398Y-126873000D01*
X160837716Y-126834089D01*
X161041546Y-126704735D01*
X161216370Y-126538253D01*
X161355527Y-126340984D01*
X161453718Y-126120444D01*
X161507202Y-125885032D01*
X161511053Y-125609294D01*
X161464162Y-125372480D01*
X161372167Y-125149284D01*
X161238572Y-124948208D01*
X161068465Y-124776909D01*
X160868326Y-124641913D01*
X160645778Y-124548363D01*
X160409297Y-124499820D01*
X160167891Y-124498135D01*
X159930756Y-124543371D01*
X159706923Y-124633805D01*
X159504919Y-124765993D01*
X159332437Y-124934900D01*
X159196047Y-125134092D01*
X159100945Y-125355982D01*
X159050753Y-125592118D01*
X159047382Y-125833506D01*
X159090962Y-126070951D01*
X159179831Y-126295410D01*
X159310606Y-126498332D01*
X159478304Y-126671989D01*
X159676539Y-126809766D01*
X159821276Y-126873000D01*
X125177398Y-126873000D01*
X125277716Y-126834089D01*
X125481546Y-126704735D01*
X125656370Y-126538253D01*
X125795527Y-126340984D01*
X125893718Y-126120444D01*
X125947202Y-125885032D01*
X125951053Y-125609294D01*
X125904162Y-125372480D01*
X125812167Y-125149284D01*
X125678572Y-124948208D01*
X125508465Y-124776909D01*
X125478523Y-124756713D01*
X125671730Y-124563506D01*
X156247382Y-124563506D01*
X156290962Y-124800951D01*
X156379831Y-125025410D01*
X156510606Y-125228332D01*
X156678304Y-125401989D01*
X156876539Y-125539766D01*
X157097760Y-125636415D01*
X157333540Y-125688255D01*
X157574898Y-125693310D01*
X157812642Y-125651390D01*
X158037716Y-125564089D01*
X158241546Y-125434735D01*
X158416370Y-125268253D01*
X158555527Y-125070984D01*
X158653718Y-124850444D01*
X158707202Y-124615032D01*
X158711053Y-124339294D01*
X158664162Y-124102480D01*
X158572167Y-123879284D01*
X158438572Y-123678208D01*
X158268465Y-123506909D01*
X158068326Y-123371913D01*
X157881802Y-123293506D01*
X159047382Y-123293506D01*
X159090962Y-123530951D01*
X159179831Y-123755410D01*
X159310606Y-123958332D01*
X159478304Y-124131989D01*
X159676539Y-124269766D01*
X159897760Y-124366415D01*
X160133540Y-124418255D01*
X160374898Y-124423310D01*
X160612642Y-124381390D01*
X160837716Y-124294089D01*
X161041546Y-124164735D01*
X161216370Y-123998253D01*
X161355527Y-123800984D01*
X161453718Y-123580444D01*
X161507202Y-123345032D01*
X161511053Y-123069294D01*
X161464162Y-122832480D01*
X161372167Y-122609284D01*
X161238572Y-122408208D01*
X161068465Y-122236909D01*
X160868326Y-122101913D01*
X160645778Y-122008363D01*
X160409297Y-121959820D01*
X160167891Y-121958135D01*
X159930756Y-122003371D01*
X159706923Y-122093805D01*
X159504919Y-122225993D01*
X159332437Y-122394900D01*
X159196047Y-122594092D01*
X159100945Y-122815982D01*
X159050753Y-123052118D01*
X159047382Y-123293506D01*
X157881802Y-123293506D01*
X157845778Y-123278363D01*
X157609297Y-123229820D01*
X157367891Y-123228135D01*
X157130756Y-123273371D01*
X156906923Y-123363805D01*
X156704919Y-123495993D01*
X156532437Y-123664900D01*
X156396047Y-123864092D01*
X156300945Y-124085982D01*
X156250753Y-124322118D01*
X156247382Y-124563506D01*
X125671730Y-124563506D01*
X128185559Y-122049678D01*
X128198918Y-122122466D01*
X128251691Y-122255755D01*
X128329348Y-122376256D01*
X128428932Y-122479378D01*
X128546649Y-122561194D01*
X128678016Y-122618586D01*
X128818028Y-122649370D01*
X128961353Y-122652372D01*
X129102532Y-122627479D01*
X129236186Y-122575637D01*
X129357226Y-122498823D01*
X129461041Y-122399962D01*
X129543676Y-122282819D01*
X129601985Y-122151856D01*
X129633745Y-122012062D01*
X129635735Y-121869501D01*
X130515118Y-120990119D01*
X130543309Y-120955798D01*
X130571880Y-120921749D01*
X130573100Y-120919529D01*
X130574703Y-120917578D01*
X130595680Y-120878457D01*
X130617104Y-120839486D01*
X130617869Y-120837075D01*
X130619064Y-120834846D01*
X130632045Y-120792385D01*
X130645489Y-120750006D01*
X130645771Y-120747489D01*
X130646510Y-120745073D01*
X130650998Y-120700889D01*
X130655953Y-120656716D01*
X130655988Y-120651773D01*
X130655997Y-120651680D01*
X130655989Y-120651594D01*
X130656000Y-120650000D01*
X130656000Y-112594236D01*
X134325119Y-108925118D01*
X134353318Y-108890788D01*
X134381880Y-108856749D01*
X134383100Y-108854530D01*
X134384704Y-108852577D01*
X134405709Y-108813404D01*
X134427104Y-108774486D01*
X134427867Y-108772079D01*
X134429065Y-108769846D01*
X134442060Y-108727339D01*
X134455489Y-108685006D01*
X134455771Y-108682489D01*
X134456510Y-108680073D01*
X134461003Y-108635849D01*
X134465953Y-108591716D01*
X134465988Y-108586782D01*
X134465998Y-108586679D01*
X134465989Y-108586583D01*
X134466000Y-108585000D01*
X134466000Y-105976422D01*
X134541041Y-105904962D01*
X134621432Y-105791000D01*
X134774000Y-105791000D01*
X134774000Y-106127853D01*
X134692312Y-106207849D01*
X134611320Y-106326134D01*
X134554846Y-106457898D01*
X134525041Y-106598122D01*
X134523039Y-106741464D01*
X134548918Y-106882466D01*
X134601691Y-107015755D01*
X134679348Y-107136256D01*
X134778932Y-107239378D01*
X134896649Y-107321194D01*
X135028016Y-107378586D01*
X135168028Y-107409370D01*
X135311353Y-107412372D01*
X135452532Y-107387479D01*
X135586186Y-107335637D01*
X135707226Y-107258823D01*
X135811041Y-107159962D01*
X135893676Y-107042819D01*
X135951985Y-106911856D01*
X135983745Y-106772062D01*
X135986031Y-106608322D01*
X135958187Y-106467695D01*
X135903558Y-106335156D01*
X135824225Y-106215751D01*
X135736000Y-106126908D01*
X135736000Y-105791000D01*
X140589000Y-105791000D01*
X140589000Y-118110000D01*
X140618002Y-118255802D01*
X140700592Y-118379408D01*
X140824198Y-118461998D01*
X140970000Y-118491000D01*
X144780000Y-118491000D01*
X144925802Y-118461998D01*
X145049408Y-118379408D01*
X145131998Y-118255802D01*
X145161000Y-118110000D01*
X145161000Y-114681000D01*
X148109000Y-114681000D01*
X148109000Y-116205000D01*
X148113336Y-116249223D01*
X148117208Y-116293481D01*
X148117914Y-116295913D01*
X148118161Y-116298427D01*
X148130995Y-116340937D01*
X148143398Y-116383628D01*
X148144562Y-116385873D01*
X148145293Y-116388295D01*
X148166144Y-116427509D01*
X148186599Y-116466971D01*
X148188179Y-116468950D01*
X148189365Y-116471181D01*
X148217451Y-116505619D01*
X148245166Y-116540336D01*
X148248632Y-116543850D01*
X148248696Y-116543929D01*
X148248769Y-116543989D01*
X148249882Y-116545118D01*
X153964882Y-122260119D01*
X153999212Y-122288318D01*
X154033251Y-122316880D01*
X154035470Y-122318100D01*
X154037423Y-122319704D01*
X154076596Y-122340709D01*
X154115514Y-122362104D01*
X154117921Y-122362867D01*
X154120154Y-122364065D01*
X154162661Y-122377060D01*
X154204994Y-122390489D01*
X154207511Y-122390771D01*
X154209927Y-122391510D01*
X154254151Y-122396003D01*
X154298284Y-122400953D01*
X154303218Y-122400988D01*
X154303321Y-122400998D01*
X154303417Y-122400989D01*
X154305000Y-122401000D01*
X156346411Y-122401000D01*
X156379831Y-122485410D01*
X156510606Y-122688332D01*
X156678304Y-122861989D01*
X156876539Y-122999766D01*
X157097760Y-123096415D01*
X157333540Y-123148255D01*
X157574898Y-123153310D01*
X157812642Y-123111390D01*
X158037716Y-123024089D01*
X158241546Y-122894735D01*
X158416370Y-122728253D01*
X158555527Y-122530984D01*
X158653718Y-122310444D01*
X158707202Y-122075032D01*
X158711053Y-121799294D01*
X158664162Y-121562480D01*
X158572167Y-121339284D01*
X158438572Y-121138208D01*
X158431414Y-121131000D01*
X159146411Y-121131000D01*
X159179831Y-121215410D01*
X159310606Y-121418332D01*
X159478304Y-121591989D01*
X159676539Y-121729766D01*
X159897760Y-121826415D01*
X160133540Y-121878255D01*
X160374898Y-121883310D01*
X160612642Y-121841390D01*
X160837716Y-121754089D01*
X161041546Y-121624735D01*
X161216370Y-121458253D01*
X161355527Y-121260984D01*
X161453718Y-121040444D01*
X161507202Y-120805032D01*
X161511053Y-120529294D01*
X161464162Y-120292480D01*
X161372167Y-120069284D01*
X161238572Y-119868208D01*
X161068465Y-119696909D01*
X160868326Y-119561913D01*
X160645778Y-119468363D01*
X160409297Y-119419820D01*
X160167891Y-119418135D01*
X159930756Y-119463371D01*
X159706923Y-119553805D01*
X159504919Y-119685993D01*
X159332437Y-119854900D01*
X159196047Y-120054092D01*
X159146797Y-120169000D01*
X158429951Y-120169000D01*
X158555527Y-119990984D01*
X158653718Y-119770444D01*
X158707202Y-119535032D01*
X158711053Y-119259294D01*
X158664162Y-119022480D01*
X158572167Y-118799284D01*
X158438572Y-118598208D01*
X158431414Y-118591000D01*
X159146411Y-118591000D01*
X159179831Y-118675410D01*
X159310606Y-118878332D01*
X159478304Y-119051989D01*
X159676539Y-119189766D01*
X159897760Y-119286415D01*
X160133540Y-119338255D01*
X160374898Y-119343310D01*
X160612642Y-119301390D01*
X160837716Y-119214089D01*
X161041546Y-119084735D01*
X161216370Y-118918253D01*
X161355527Y-118720984D01*
X161453718Y-118500444D01*
X161507202Y-118265032D01*
X161511053Y-117989294D01*
X161464162Y-117752480D01*
X161372167Y-117529284D01*
X161238572Y-117328208D01*
X161068465Y-117156909D01*
X160868326Y-117021913D01*
X160645778Y-116928363D01*
X160409297Y-116879820D01*
X160167891Y-116878135D01*
X159930756Y-116923371D01*
X159706923Y-117013805D01*
X159504919Y-117145993D01*
X159332437Y-117314900D01*
X159196047Y-117514092D01*
X159146797Y-117629000D01*
X158429951Y-117629000D01*
X158555527Y-117450984D01*
X158653718Y-117230444D01*
X158707202Y-116995032D01*
X158711053Y-116719294D01*
X158664162Y-116482480D01*
X158572167Y-116259284D01*
X158438572Y-116058208D01*
X158431414Y-116051000D01*
X159146411Y-116051000D01*
X159179831Y-116135410D01*
X159310606Y-116338332D01*
X159478304Y-116511989D01*
X159676539Y-116649766D01*
X159897760Y-116746415D01*
X160133540Y-116798255D01*
X160374898Y-116803310D01*
X160612642Y-116761390D01*
X160837716Y-116674089D01*
X161041546Y-116544735D01*
X161216370Y-116378253D01*
X161355527Y-116180984D01*
X161453718Y-115960444D01*
X161507202Y-115725032D01*
X161511053Y-115449294D01*
X161464162Y-115212480D01*
X161372167Y-114989284D01*
X161238572Y-114788208D01*
X161068465Y-114616909D01*
X160947284Y-114535171D01*
X161006998Y-114445802D01*
X161036000Y-114300000D01*
X161036000Y-114008255D01*
X161041546Y-114004735D01*
X161216370Y-113838253D01*
X161355527Y-113640984D01*
X161453718Y-113420444D01*
X161507202Y-113185032D01*
X161511053Y-112909294D01*
X161464162Y-112672480D01*
X161372167Y-112449284D01*
X161238572Y-112248208D01*
X161068465Y-112076909D01*
X161036000Y-112055011D01*
X161036000Y-111760000D01*
X161006998Y-111614198D01*
X160947156Y-111524637D01*
X161041546Y-111464735D01*
X161216370Y-111298253D01*
X161355527Y-111100984D01*
X161453718Y-110880444D01*
X161507202Y-110645032D01*
X161511053Y-110369294D01*
X161464162Y-110132480D01*
X161372167Y-109909284D01*
X161238572Y-109708208D01*
X161068465Y-109536909D01*
X160868326Y-109401913D01*
X160645778Y-109308363D01*
X160409297Y-109259820D01*
X160167891Y-109258135D01*
X159930756Y-109303371D01*
X159766000Y-109369936D01*
X159766000Y-109068851D01*
X159897760Y-109126415D01*
X160133540Y-109178255D01*
X160374898Y-109183310D01*
X160612642Y-109141390D01*
X160837716Y-109054089D01*
X161041546Y-108924735D01*
X161216370Y-108758253D01*
X161355527Y-108560984D01*
X161453718Y-108340444D01*
X161507202Y-108105032D01*
X161511053Y-107829294D01*
X161464162Y-107592480D01*
X161372167Y-107369284D01*
X161238572Y-107168208D01*
X161068465Y-106996909D01*
X160868326Y-106861913D01*
X160645778Y-106768363D01*
X160409297Y-106719820D01*
X160167891Y-106718135D01*
X159930756Y-106763371D01*
X159766000Y-106829936D01*
X159766000Y-106528851D01*
X159897760Y-106586415D01*
X160133540Y-106638255D01*
X160374898Y-106643310D01*
X160612642Y-106601390D01*
X160837716Y-106514089D01*
X161041546Y-106384735D01*
X161216370Y-106218253D01*
X161355527Y-106020984D01*
X161453718Y-105800444D01*
X161507202Y-105565032D01*
X161511053Y-105289294D01*
X161464162Y-105052480D01*
X161372167Y-104829284D01*
X161238572Y-104628208D01*
X161068465Y-104456909D01*
X160868326Y-104321913D01*
X160645778Y-104228363D01*
X160409297Y-104179820D01*
X160167891Y-104178135D01*
X159930756Y-104223371D01*
X159766000Y-104289936D01*
X159766000Y-103988851D01*
X159897760Y-104046415D01*
X160133540Y-104098255D01*
X160374898Y-104103310D01*
X160612642Y-104061390D01*
X160837716Y-103974089D01*
X161041546Y-103844735D01*
X161216370Y-103678253D01*
X161355527Y-103480984D01*
X161453718Y-103260444D01*
X161507202Y-103025032D01*
X161511053Y-102749294D01*
X161464162Y-102512480D01*
X161372167Y-102289284D01*
X161238572Y-102088208D01*
X161068465Y-101916909D01*
X160868326Y-101781913D01*
X160645778Y-101688363D01*
X160409297Y-101639820D01*
X160167891Y-101638135D01*
X159930756Y-101683371D01*
X159766000Y-101749936D01*
X159766000Y-101448851D01*
X159897760Y-101506415D01*
X160133540Y-101558255D01*
X160374898Y-101563310D01*
X160612642Y-101521390D01*
X160837716Y-101434089D01*
X161041546Y-101304735D01*
X161216370Y-101138253D01*
X161355527Y-100940984D01*
X161453718Y-100720444D01*
X161507202Y-100485032D01*
X161511053Y-100209294D01*
X161464162Y-99972480D01*
X161372167Y-99749284D01*
X161238572Y-99548208D01*
X161068465Y-99376909D01*
X160868326Y-99241913D01*
X160645778Y-99148363D01*
X160409297Y-99099820D01*
X160167891Y-99098135D01*
X159930756Y-99143371D01*
X159766000Y-99209936D01*
X159766000Y-98908851D01*
X159897760Y-98966415D01*
X160133540Y-99018255D01*
X160374898Y-99023310D01*
X160612642Y-98981390D01*
X160837716Y-98894089D01*
X161041546Y-98764735D01*
X161216370Y-98598253D01*
X161355527Y-98400984D01*
X161453718Y-98180444D01*
X161507202Y-97945032D01*
X161511053Y-97669294D01*
X161464162Y-97432480D01*
X161372167Y-97209284D01*
X161238572Y-97008208D01*
X161068465Y-96836909D01*
X160947284Y-96755171D01*
X161006998Y-96665802D01*
X161036000Y-96520000D01*
X161036000Y-96228255D01*
X161041546Y-96224735D01*
X161216370Y-96058253D01*
X161355527Y-95860984D01*
X161453718Y-95640444D01*
X161507202Y-95405032D01*
X161511053Y-95129294D01*
X161464162Y-94892480D01*
X161372167Y-94669284D01*
X161238572Y-94468208D01*
X161068465Y-94296909D01*
X161036000Y-94275011D01*
X161036000Y-93980000D01*
X161006998Y-93834198D01*
X160947156Y-93744637D01*
X161041546Y-93684735D01*
X161216370Y-93518253D01*
X161355527Y-93320984D01*
X161453718Y-93100444D01*
X161507202Y-92865032D01*
X161511053Y-92589294D01*
X161464162Y-92352480D01*
X161372167Y-92129284D01*
X161238572Y-91928208D01*
X161068465Y-91756909D01*
X160868326Y-91621913D01*
X160645778Y-91528363D01*
X160409297Y-91479820D01*
X160167891Y-91478135D01*
X159930756Y-91523371D01*
X159766000Y-91589936D01*
X159766000Y-91288851D01*
X159897760Y-91346415D01*
X160133540Y-91398255D01*
X160374898Y-91403310D01*
X160612642Y-91361390D01*
X160837716Y-91274089D01*
X161041546Y-91144735D01*
X161216370Y-90978253D01*
X161355527Y-90780984D01*
X161453718Y-90560444D01*
X161507202Y-90325032D01*
X161511053Y-90049294D01*
X161464162Y-89812480D01*
X161372167Y-89589284D01*
X161238572Y-89388208D01*
X161068465Y-89216909D01*
X160868326Y-89081913D01*
X160645778Y-88988363D01*
X160409297Y-88939820D01*
X160167891Y-88938135D01*
X159930756Y-88983371D01*
X159766000Y-89049936D01*
X159766000Y-88748562D01*
X159880207Y-88800566D01*
X160116255Y-88856069D01*
X160358596Y-88864456D01*
X160597917Y-88825402D01*
X160825020Y-88740411D01*
X160900477Y-88700078D01*
X160992495Y-88522100D01*
X160280000Y-87809605D01*
X160265858Y-87823748D01*
X160086253Y-87644143D01*
X160100395Y-87630000D01*
X160459605Y-87630000D01*
X161172100Y-88342495D01*
X161350078Y-88250477D01*
X161450566Y-88029793D01*
X161506069Y-87793745D01*
X161514456Y-87551404D01*
X161475402Y-87312083D01*
X161390411Y-87084980D01*
X161350078Y-87009523D01*
X161172100Y-86917505D01*
X160459605Y-87630000D01*
X160100395Y-87630000D01*
X159387900Y-86917505D01*
X159209922Y-87009523D01*
X159109434Y-87230207D01*
X159105015Y-87249000D01*
X158331577Y-87249000D01*
X158416370Y-87168253D01*
X158555527Y-86970984D01*
X158653718Y-86750444D01*
X158656567Y-86737900D01*
X159567505Y-86737900D01*
X160280000Y-87450395D01*
X160992495Y-86737900D01*
X160900477Y-86559922D01*
X160679793Y-86459434D01*
X160443745Y-86403931D01*
X160201404Y-86395544D01*
X159962083Y-86434598D01*
X159734980Y-86519589D01*
X159659523Y-86559922D01*
X159567505Y-86737900D01*
X158656567Y-86737900D01*
X158707202Y-86515032D01*
X158711053Y-86239294D01*
X158664162Y-86002480D01*
X158572167Y-85779284D01*
X158438572Y-85578208D01*
X158268465Y-85406909D01*
X158068326Y-85271913D01*
X157881802Y-85193506D01*
X159047382Y-85193506D01*
X159090962Y-85430951D01*
X159179831Y-85655410D01*
X159310606Y-85858332D01*
X159478304Y-86031989D01*
X159676539Y-86169766D01*
X159897760Y-86266415D01*
X160133540Y-86318255D01*
X160374898Y-86323310D01*
X160612642Y-86281390D01*
X160837716Y-86194089D01*
X161041546Y-86064735D01*
X161216370Y-85898253D01*
X161355527Y-85700984D01*
X161453718Y-85480444D01*
X161507202Y-85245032D01*
X161511053Y-84969294D01*
X161464162Y-84732480D01*
X161372167Y-84509284D01*
X161238572Y-84308208D01*
X161068465Y-84136909D01*
X160868326Y-84001913D01*
X160645778Y-83908363D01*
X160409297Y-83859820D01*
X160167891Y-83858135D01*
X159930756Y-83903371D01*
X159706923Y-83993805D01*
X159504919Y-84125993D01*
X159332437Y-84294900D01*
X159196047Y-84494092D01*
X159100945Y-84715982D01*
X159050753Y-84952118D01*
X159047382Y-85193506D01*
X157881802Y-85193506D01*
X157845778Y-85178363D01*
X157609297Y-85129820D01*
X157367891Y-85128135D01*
X157130756Y-85173371D01*
X156906923Y-85263805D01*
X156704919Y-85395993D01*
X156532437Y-85564900D01*
X156396047Y-85764092D01*
X156300945Y-85985982D01*
X156250753Y-86222118D01*
X156247382Y-86463506D01*
X156290962Y-86700951D01*
X156379831Y-86925410D01*
X156510606Y-87128332D01*
X156627133Y-87249000D01*
X155575000Y-87249000D01*
X155429198Y-87278002D01*
X155305592Y-87360592D01*
X155223002Y-87484198D01*
X155194000Y-87630000D01*
X155194000Y-87884000D01*
X147066000Y-87884000D01*
X147066000Y-83923506D01*
X156247382Y-83923506D01*
X156290962Y-84160951D01*
X156379831Y-84385410D01*
X156510606Y-84588332D01*
X156678304Y-84761989D01*
X156876539Y-84899766D01*
X157097760Y-84996415D01*
X157333540Y-85048255D01*
X157574898Y-85053310D01*
X157812642Y-85011390D01*
X158037716Y-84924089D01*
X158241546Y-84794735D01*
X158416370Y-84628253D01*
X158555527Y-84430984D01*
X158653718Y-84210444D01*
X158707202Y-83975032D01*
X158711053Y-83699294D01*
X158664162Y-83462480D01*
X158572167Y-83239284D01*
X158438572Y-83038208D01*
X158268465Y-82866909D01*
X158068326Y-82731913D01*
X157881802Y-82653506D01*
X159047382Y-82653506D01*
X159090962Y-82890951D01*
X159179831Y-83115410D01*
X159310606Y-83318332D01*
X159478304Y-83491989D01*
X159676539Y-83629766D01*
X159897760Y-83726415D01*
X160133540Y-83778255D01*
X160374898Y-83783310D01*
X160612642Y-83741390D01*
X160837716Y-83654089D01*
X161041546Y-83524735D01*
X161216370Y-83358253D01*
X161355527Y-83160984D01*
X161453718Y-82940444D01*
X161507202Y-82705032D01*
X161511053Y-82429294D01*
X161464162Y-82192480D01*
X161372167Y-81969284D01*
X161238572Y-81768208D01*
X161068465Y-81596909D01*
X160868326Y-81461913D01*
X160645778Y-81368363D01*
X160409297Y-81319820D01*
X160167891Y-81318135D01*
X159930756Y-81363371D01*
X159706923Y-81453805D01*
X159504919Y-81585993D01*
X159332437Y-81754900D01*
X159196047Y-81954092D01*
X159100945Y-82175982D01*
X159050753Y-82412118D01*
X159047382Y-82653506D01*
X157881802Y-82653506D01*
X157845778Y-82638363D01*
X157609297Y-82589820D01*
X157367891Y-82588135D01*
X157130756Y-82633371D01*
X156906923Y-82723805D01*
X156704919Y-82855993D01*
X156532437Y-83024900D01*
X156396047Y-83224092D01*
X156300945Y-83445982D01*
X156250753Y-83682118D01*
X156247382Y-83923506D01*
X147066000Y-83923506D01*
X147066000Y-82172100D01*
X156767505Y-82172100D01*
X156859523Y-82350078D01*
X157080207Y-82450566D01*
X157316255Y-82506069D01*
X157558596Y-82514456D01*
X157797917Y-82475402D01*
X158025020Y-82390411D01*
X158100477Y-82350078D01*
X158192495Y-82172100D01*
X157480000Y-81459605D01*
X156767505Y-82172100D01*
X147066000Y-82172100D01*
X147066000Y-81358596D01*
X156245544Y-81358596D01*
X156284598Y-81597917D01*
X156369589Y-81825020D01*
X156409922Y-81900477D01*
X156587900Y-81992495D01*
X157300395Y-81280000D01*
X157659605Y-81280000D01*
X158372100Y-81992495D01*
X158550078Y-81900477D01*
X158650566Y-81679793D01*
X158706069Y-81443745D01*
X158714456Y-81201404D01*
X158675402Y-80962083D01*
X158590411Y-80734980D01*
X158550078Y-80659523D01*
X158372100Y-80567505D01*
X157659605Y-81280000D01*
X157300395Y-81280000D01*
X156587900Y-80567505D01*
X156409922Y-80659523D01*
X156309434Y-80880207D01*
X156253931Y-81116255D01*
X156245544Y-81358596D01*
X147066000Y-81358596D01*
X147066000Y-80387900D01*
X156767505Y-80387900D01*
X157480000Y-81100395D01*
X158192495Y-80387900D01*
X158100477Y-80209922D01*
X157888736Y-80113506D01*
X159047382Y-80113506D01*
X159090962Y-80350951D01*
X159179831Y-80575410D01*
X159310606Y-80778332D01*
X159478304Y-80951989D01*
X159676539Y-81089766D01*
X159897760Y-81186415D01*
X160133540Y-81238255D01*
X160374898Y-81243310D01*
X160612642Y-81201390D01*
X160837716Y-81114089D01*
X161041546Y-80984735D01*
X161216370Y-80818253D01*
X161355527Y-80620984D01*
X161453718Y-80400444D01*
X161507202Y-80165032D01*
X161511053Y-79889294D01*
X161464162Y-79652480D01*
X161372167Y-79429284D01*
X161238572Y-79228208D01*
X161068465Y-79056909D01*
X160868326Y-78921913D01*
X160645778Y-78828363D01*
X160409297Y-78779820D01*
X160167891Y-78778135D01*
X159930756Y-78823371D01*
X159706923Y-78913805D01*
X159504919Y-79045993D01*
X159332437Y-79214900D01*
X159196047Y-79414092D01*
X159100945Y-79635982D01*
X159050753Y-79872118D01*
X159047382Y-80113506D01*
X157888736Y-80113506D01*
X157879793Y-80109434D01*
X157643745Y-80053931D01*
X157401404Y-80045544D01*
X157162083Y-80084598D01*
X156934980Y-80169589D01*
X156859523Y-80209922D01*
X156767505Y-80387900D01*
X147066000Y-80387900D01*
X147066000Y-80010000D01*
X147036998Y-79864198D01*
X146954408Y-79740592D01*
X146830802Y-79658002D01*
X146685000Y-79629000D01*
X142240000Y-79629000D01*
X142094198Y-79658002D01*
X141970592Y-79740592D01*
X141888002Y-79864198D01*
X141859000Y-80010000D01*
X141859000Y-87249000D01*
X125891794Y-87249000D01*
X125830411Y-87084980D01*
X125790078Y-87009523D01*
X125612100Y-86917505D01*
X125280605Y-87249000D01*
X124921395Y-87249000D01*
X125432495Y-86737900D01*
X125340477Y-86559922D01*
X125119793Y-86459434D01*
X124883745Y-86403931D01*
X124641404Y-86395544D01*
X124402083Y-86434598D01*
X124174980Y-86519589D01*
X124099523Y-86559922D01*
X124007505Y-86737900D01*
X124518605Y-87249000D01*
X124159395Y-87249000D01*
X123827900Y-86917505D01*
X123649922Y-87009523D01*
X123549434Y-87230207D01*
X123545015Y-87249000D01*
X122771577Y-87249000D01*
X122856370Y-87168253D01*
X122995527Y-86970984D01*
X123093718Y-86750444D01*
X123147202Y-86515032D01*
X123151053Y-86239294D01*
X123104162Y-86002480D01*
X123012167Y-85779284D01*
X122878572Y-85578208D01*
X122708465Y-85406909D01*
X122508326Y-85271913D01*
X122321802Y-85193506D01*
X123487382Y-85193506D01*
X123530962Y-85430951D01*
X123619831Y-85655410D01*
X123750606Y-85858332D01*
X123918304Y-86031989D01*
X124116539Y-86169766D01*
X124337760Y-86266415D01*
X124573540Y-86318255D01*
X124814898Y-86323310D01*
X125052642Y-86281390D01*
X125277716Y-86194089D01*
X125481546Y-86064735D01*
X125656370Y-85898253D01*
X125795527Y-85700984D01*
X125893718Y-85480444D01*
X125947202Y-85245032D01*
X125951053Y-84969294D01*
X125904162Y-84732480D01*
X125812167Y-84509284D01*
X125678572Y-84308208D01*
X125508465Y-84136909D01*
X125308326Y-84001913D01*
X125085778Y-83908363D01*
X124849297Y-83859820D01*
X124607891Y-83858135D01*
X124370756Y-83903371D01*
X124146923Y-83993805D01*
X123944919Y-84125993D01*
X123772437Y-84294900D01*
X123636047Y-84494092D01*
X123540945Y-84715982D01*
X123490753Y-84952118D01*
X123487382Y-85193506D01*
X122321802Y-85193506D01*
X122285778Y-85178363D01*
X122049297Y-85129820D01*
X121807891Y-85128135D01*
X121570756Y-85173371D01*
X121346923Y-85263805D01*
X121144919Y-85395993D01*
X120972437Y-85564900D01*
X120836047Y-85764092D01*
X120740945Y-85985982D01*
X120690753Y-86222118D01*
X120687382Y-86463506D01*
X120730962Y-86700951D01*
X120819831Y-86925410D01*
X120950606Y-87128332D01*
X121118304Y-87301989D01*
X121316539Y-87439766D01*
X121537760Y-87536415D01*
X121556783Y-87540598D01*
X121539000Y-87630000D01*
X121539000Y-87726201D01*
X121346923Y-87803805D01*
X121144919Y-87935993D01*
X120972437Y-88104900D01*
X120836047Y-88304092D01*
X120740945Y-88525982D01*
X120690753Y-88762118D01*
X120687382Y-89003506D01*
X120730962Y-89240951D01*
X120819831Y-89465410D01*
X120950606Y-89668332D01*
X121118304Y-89841989D01*
X121316539Y-89979766D01*
X121537760Y-90076415D01*
X121539000Y-90076688D01*
X121539000Y-90266201D01*
X121346923Y-90343805D01*
X121144919Y-90475993D01*
X120972437Y-90644900D01*
X120836047Y-90844092D01*
X120740945Y-91065982D01*
X120690753Y-91302118D01*
X120687382Y-91543506D01*
X120730962Y-91780951D01*
X120819831Y-92005410D01*
X120950606Y-92208332D01*
X121118304Y-92381989D01*
X121316539Y-92519766D01*
X121537760Y-92616415D01*
X121539000Y-92616688D01*
X121539000Y-92806201D01*
X121346923Y-92883805D01*
X121144919Y-93015993D01*
X120972437Y-93184900D01*
X120836047Y-93384092D01*
X120740945Y-93605982D01*
X120690753Y-93842118D01*
X120687382Y-94083506D01*
X120730962Y-94320951D01*
X120819831Y-94545410D01*
X120950606Y-94748332D01*
X121118304Y-94921989D01*
X121316539Y-95059766D01*
X121537760Y-95156415D01*
X121539000Y-95156688D01*
X121539000Y-95346201D01*
X121346923Y-95423805D01*
X121144919Y-95555993D01*
X120972437Y-95724900D01*
X120836047Y-95924092D01*
X120740945Y-96145982D01*
X120690753Y-96382118D01*
X120687382Y-96623506D01*
X120730962Y-96860951D01*
X120819831Y-97085410D01*
X120950606Y-97288332D01*
X121118304Y-97461989D01*
X121316539Y-97599766D01*
X121537760Y-97696415D01*
X121773540Y-97748255D01*
X122014898Y-97753310D01*
X122252642Y-97711390D01*
X122477716Y-97624089D01*
X122681546Y-97494735D01*
X122856370Y-97328253D01*
X122995527Y-97130984D01*
X123093718Y-96910444D01*
X123095864Y-96901000D01*
X123868324Y-96901000D01*
X123772437Y-96994900D01*
X123636047Y-97194092D01*
X123540945Y-97415982D01*
X123490753Y-97652118D01*
X123487382Y-97893506D01*
X123530962Y-98130951D01*
X123619831Y-98355410D01*
X123750606Y-98558332D01*
X123918304Y-98731989D01*
X124116539Y-98869766D01*
X124337760Y-98966415D01*
X124573540Y-99018255D01*
X124814898Y-99023310D01*
X125052642Y-98981390D01*
X125277716Y-98894089D01*
X125349000Y-98848851D01*
X125349000Y-99269348D01*
X125308326Y-99241913D01*
X125085778Y-99148363D01*
X124849297Y-99099820D01*
X124607891Y-99098135D01*
X124370756Y-99143371D01*
X124146923Y-99233805D01*
X123944919Y-99365993D01*
X123772437Y-99534900D01*
X123636047Y-99734092D01*
X123540945Y-99955982D01*
X123490753Y-100192118D01*
X123487382Y-100433506D01*
X123530962Y-100670951D01*
X123619831Y-100895410D01*
X123750606Y-101098332D01*
X123918304Y-101271989D01*
X124116539Y-101409766D01*
X124337760Y-101506415D01*
X124573540Y-101558255D01*
X124814898Y-101563310D01*
X125052642Y-101521390D01*
X125277716Y-101434089D01*
X125349000Y-101388851D01*
X125349000Y-101809348D01*
X125308326Y-101781913D01*
X125085778Y-101688363D01*
X124849297Y-101639820D01*
X124607891Y-101638135D01*
X124370756Y-101683371D01*
X124146923Y-101773805D01*
X123944919Y-101905993D01*
X123772437Y-102074900D01*
X123636047Y-102274092D01*
X123540945Y-102495982D01*
X123490753Y-102732118D01*
X123487382Y-102973506D01*
X123530962Y-103210951D01*
X123619831Y-103435410D01*
X123750606Y-103638332D01*
X123918304Y-103811989D01*
X124116539Y-103949766D01*
X124337760Y-104046415D01*
X124573540Y-104098255D01*
X124814898Y-104103310D01*
X125052642Y-104061390D01*
X125277716Y-103974089D01*
X125349000Y-103928851D01*
X125349000Y-104349348D01*
X125308326Y-104321913D01*
X125085778Y-104228363D01*
X124849297Y-104179820D01*
X124607891Y-104178135D01*
X124370756Y-104223371D01*
X124146923Y-104313805D01*
X123944919Y-104445993D01*
X123772437Y-104614900D01*
X123636047Y-104814092D01*
X123540945Y-105035982D01*
X123490753Y-105272118D01*
X123487382Y-105513506D01*
X123530962Y-105750951D01*
X123619831Y-105975410D01*
X123750606Y-106178332D01*
X123918304Y-106351989D01*
X124116539Y-106489766D01*
X124337760Y-106586415D01*
X124573540Y-106638255D01*
X124814898Y-106643310D01*
X125052642Y-106601390D01*
X125277716Y-106514089D01*
X125349000Y-106468851D01*
X125349000Y-106889348D01*
X125308326Y-106861913D01*
X125085778Y-106768363D01*
X124849297Y-106719820D01*
X124607891Y-106718135D01*
X124370756Y-106763371D01*
X124146923Y-106853805D01*
X123944919Y-106985993D01*
X123772437Y-107154900D01*
X123636047Y-107354092D01*
X123540945Y-107575982D01*
X123490753Y-107812118D01*
X123487382Y-108053506D01*
X123530962Y-108290951D01*
X123619831Y-108515410D01*
X123750606Y-108718332D01*
X123918304Y-108891989D01*
X124116539Y-109029766D01*
X124337760Y-109126415D01*
X124573540Y-109178255D01*
X124814898Y-109183310D01*
X125052642Y-109141390D01*
X125277716Y-109054089D01*
X125349000Y-109008851D01*
X125349000Y-109429348D01*
X125308326Y-109401913D01*
X125085778Y-109308363D01*
X124849297Y-109259820D01*
X124607891Y-109258135D01*
X124370756Y-109303371D01*
X124146923Y-109393805D01*
X123944919Y-109525993D01*
X123772437Y-109694900D01*
X123636047Y-109894092D01*
X123540945Y-110115982D01*
X123490753Y-110352118D01*
X123487382Y-110593506D01*
X123530962Y-110830951D01*
X123546252Y-110869570D01*
X123473002Y-110979198D01*
X123444000Y-111125000D01*
X123444000Y-116840000D01*
X123473002Y-116985802D01*
X123555592Y-117109408D01*
X123679198Y-117191998D01*
X123825000Y-117221000D01*
X123868324Y-117221000D01*
X123772437Y-117314900D01*
X123636047Y-117514092D01*
X123540945Y-117735982D01*
X123490753Y-117972118D01*
X123487382Y-118213506D01*
X123530962Y-118450951D01*
X123619831Y-118675410D01*
X123750606Y-118878332D01*
X123918304Y-119051989D01*
X124116539Y-119189766D01*
X124337760Y-119286415D01*
X124573540Y-119338255D01*
X124814898Y-119343310D01*
X125052642Y-119301390D01*
X125277716Y-119214089D01*
X125481546Y-119084735D01*
X125656370Y-118918253D01*
X125795527Y-118720984D01*
X125893718Y-118500444D01*
X125947202Y-118265032D01*
X125951053Y-117989294D01*
X125904162Y-117752480D01*
X125812167Y-117529284D01*
X125678572Y-117328208D01*
X125572110Y-117221000D01*
X128424000Y-117221000D01*
X128424000Y-118805763D01*
X125181263Y-122048501D01*
X125085778Y-122008363D01*
X124849297Y-121959820D01*
X124607891Y-121958135D01*
X124370756Y-122003371D01*
X124146923Y-122093805D01*
X123944919Y-122225993D01*
X123772437Y-122394900D01*
X123636047Y-122594092D01*
X123540945Y-122815982D01*
X123490753Y-123052118D01*
X123487382Y-123293506D01*
X123530962Y-123530951D01*
X123619831Y-123755410D01*
X123750606Y-123958332D01*
X123770565Y-123979000D01*
X123053267Y-123979000D01*
X123012167Y-123879284D01*
X122878572Y-123678208D01*
X122708465Y-123506909D01*
X122508326Y-123371913D01*
X122285778Y-123278363D01*
X122049297Y-123229820D01*
X121807891Y-123228135D01*
X121570756Y-123273371D01*
X121346923Y-123363805D01*
X121144919Y-123495993D01*
X120972437Y-123664900D01*
X120836047Y-123864092D01*
X120740945Y-124085982D01*
X120690753Y-124322118D01*
X120687382Y-124563506D01*
X120730962Y-124800951D01*
X120819831Y-125025410D01*
X120950606Y-125228332D01*
X121118304Y-125401989D01*
X121316539Y-125539766D01*
X121537760Y-125636415D01*
X121773540Y-125688255D01*
X122014898Y-125693310D01*
X122252642Y-125651390D01*
X122477716Y-125564089D01*
X122681546Y-125434735D01*
X122856370Y-125268253D01*
X122995527Y-125070984D01*
X123053400Y-124941000D01*
X123768260Y-124941000D01*
X123636047Y-125134092D01*
X123540945Y-125355982D01*
X123490753Y-125592118D01*
X123487382Y-125833506D01*
X123530962Y-126070951D01*
X123619831Y-126295410D01*
X123750606Y-126498332D01*
X123918304Y-126671989D01*
X124116539Y-126809766D01*
X124261276Y-126873000D01*
X120142000Y-126873000D01*
X120142000Y-122023506D01*
X120687382Y-122023506D01*
X120730962Y-122260951D01*
X120819831Y-122485410D01*
X120950606Y-122688332D01*
X121118304Y-122861989D01*
X121316539Y-122999766D01*
X121537760Y-123096415D01*
X121773540Y-123148255D01*
X122014898Y-123153310D01*
X122252642Y-123111390D01*
X122477716Y-123024089D01*
X122681546Y-122894735D01*
X122856370Y-122728253D01*
X122995527Y-122530984D01*
X123093718Y-122310444D01*
X123147202Y-122075032D01*
X123151053Y-121799294D01*
X123104162Y-121562480D01*
X123012167Y-121339284D01*
X122878572Y-121138208D01*
X122708465Y-120966909D01*
X122508326Y-120831913D01*
X122321802Y-120753506D01*
X123487382Y-120753506D01*
X123530962Y-120990951D01*
X123619831Y-121215410D01*
X123750606Y-121418332D01*
X123918304Y-121591989D01*
X124116539Y-121729766D01*
X124337760Y-121826415D01*
X124573540Y-121878255D01*
X124814898Y-121883310D01*
X125052642Y-121841390D01*
X125277716Y-121754089D01*
X125481546Y-121624735D01*
X125656370Y-121458253D01*
X125795527Y-121260984D01*
X125893718Y-121040444D01*
X125947202Y-120805032D01*
X125951053Y-120529294D01*
X125904162Y-120292480D01*
X125812167Y-120069284D01*
X125678572Y-119868208D01*
X125508465Y-119696909D01*
X125308326Y-119561913D01*
X125085778Y-119468363D01*
X124849297Y-119419820D01*
X124607891Y-119418135D01*
X124370756Y-119463371D01*
X124146923Y-119553805D01*
X123944919Y-119685993D01*
X123772437Y-119854900D01*
X123636047Y-120054092D01*
X123540945Y-120275982D01*
X123490753Y-120512118D01*
X123487382Y-120753506D01*
X122321802Y-120753506D01*
X122285778Y-120738363D01*
X122049297Y-120689820D01*
X121807891Y-120688135D01*
X121570756Y-120733371D01*
X121346923Y-120823805D01*
X121144919Y-120955993D01*
X120972437Y-121124900D01*
X120836047Y-121324092D01*
X120740945Y-121545982D01*
X120690753Y-121782118D01*
X120687382Y-122023506D01*
X120142000Y-122023506D01*
X120142000Y-119483506D01*
X120687382Y-119483506D01*
X120730962Y-119720951D01*
X120819831Y-119945410D01*
X120950606Y-120148332D01*
X121118304Y-120321989D01*
X121316539Y-120459766D01*
X121537760Y-120556415D01*
X121773540Y-120608255D01*
X122014898Y-120613310D01*
X122252642Y-120571390D01*
X122477716Y-120484089D01*
X122681546Y-120354735D01*
X122856370Y-120188253D01*
X122995527Y-119990984D01*
X123093718Y-119770444D01*
X123147202Y-119535032D01*
X123151053Y-119259294D01*
X123104162Y-119022480D01*
X123012167Y-118799284D01*
X122878572Y-118598208D01*
X122708465Y-118426909D01*
X122508326Y-118291913D01*
X122285778Y-118198363D01*
X122049297Y-118149820D01*
X121807891Y-118148135D01*
X121570756Y-118193371D01*
X121346923Y-118283805D01*
X121144919Y-118415993D01*
X120972437Y-118584900D01*
X120836047Y-118784092D01*
X120740945Y-119005982D01*
X120690753Y-119242118D01*
X120687382Y-119483506D01*
X120142000Y-119483506D01*
X120142000Y-116943506D01*
X120687382Y-116943506D01*
X120730962Y-117180951D01*
X120819831Y-117405410D01*
X120950606Y-117608332D01*
X121118304Y-117781989D01*
X121316539Y-117919766D01*
X121537760Y-118016415D01*
X121773540Y-118068255D01*
X122014898Y-118073310D01*
X122252642Y-118031390D01*
X122477716Y-117944089D01*
X122681546Y-117814735D01*
X122856370Y-117648253D01*
X122995527Y-117450984D01*
X123093718Y-117230444D01*
X123147202Y-116995032D01*
X123151053Y-116719294D01*
X123104162Y-116482480D01*
X123012167Y-116259284D01*
X122878572Y-116058208D01*
X122708465Y-115886909D01*
X122508326Y-115751913D01*
X122285778Y-115658363D01*
X122049297Y-115609820D01*
X121807891Y-115608135D01*
X121570756Y-115653371D01*
X121346923Y-115743805D01*
X121144919Y-115875993D01*
X120972437Y-116044900D01*
X120836047Y-116244092D01*
X120740945Y-116465982D01*
X120690753Y-116702118D01*
X120687382Y-116943506D01*
X120142000Y-116943506D01*
X120142000Y-115192100D01*
X121207505Y-115192100D01*
X121299523Y-115370078D01*
X121520207Y-115470566D01*
X121756255Y-115526069D01*
X121998596Y-115534456D01*
X122237917Y-115495402D01*
X122465020Y-115410411D01*
X122540477Y-115370078D01*
X122632495Y-115192100D01*
X121920000Y-114479605D01*
X121207505Y-115192100D01*
X120142000Y-115192100D01*
X120142000Y-114378596D01*
X120685544Y-114378596D01*
X120724598Y-114617917D01*
X120809589Y-114845020D01*
X120849922Y-114920477D01*
X121027900Y-115012495D01*
X121740395Y-114300000D01*
X122099605Y-114300000D01*
X122812100Y-115012495D01*
X122990078Y-114920477D01*
X123090566Y-114699793D01*
X123146069Y-114463745D01*
X123154456Y-114221404D01*
X123115402Y-113982083D01*
X123030411Y-113754980D01*
X122990078Y-113679523D01*
X122812100Y-113587505D01*
X122099605Y-114300000D01*
X121740395Y-114300000D01*
X121027900Y-113587505D01*
X120849922Y-113679523D01*
X120749434Y-113900207D01*
X120693931Y-114136255D01*
X120685544Y-114378596D01*
X120142000Y-114378596D01*
X120142000Y-113407900D01*
X121207505Y-113407900D01*
X121920000Y-114120395D01*
X122632495Y-113407900D01*
X122540477Y-113229922D01*
X122319793Y-113129434D01*
X122083745Y-113073931D01*
X121841404Y-113065544D01*
X121602083Y-113104598D01*
X121374980Y-113189589D01*
X121299523Y-113229922D01*
X121207505Y-113407900D01*
X120142000Y-113407900D01*
X120142000Y-111863506D01*
X120687382Y-111863506D01*
X120730962Y-112100951D01*
X120819831Y-112325410D01*
X120950606Y-112528332D01*
X121118304Y-112701989D01*
X121316539Y-112839766D01*
X121537760Y-112936415D01*
X121773540Y-112988255D01*
X122014898Y-112993310D01*
X122252642Y-112951390D01*
X122477716Y-112864089D01*
X122681546Y-112734735D01*
X122856370Y-112568253D01*
X122995527Y-112370984D01*
X123093718Y-112150444D01*
X123147202Y-111915032D01*
X123151053Y-111639294D01*
X123104162Y-111402480D01*
X123012167Y-111179284D01*
X122878572Y-110978208D01*
X122708465Y-110806909D01*
X122508326Y-110671913D01*
X122285778Y-110578363D01*
X122049297Y-110529820D01*
X121807891Y-110528135D01*
X121570756Y-110573371D01*
X121346923Y-110663805D01*
X121144919Y-110795993D01*
X120972437Y-110964900D01*
X120836047Y-111164092D01*
X120740945Y-111385982D01*
X120690753Y-111622118D01*
X120687382Y-111863506D01*
X120142000Y-111863506D01*
X120142000Y-109323506D01*
X120687382Y-109323506D01*
X120730962Y-109560951D01*
X120819831Y-109785410D01*
X120950606Y-109988332D01*
X121118304Y-110161989D01*
X121316539Y-110299766D01*
X121537760Y-110396415D01*
X121773540Y-110448255D01*
X122014898Y-110453310D01*
X122252642Y-110411390D01*
X122477716Y-110324089D01*
X122681546Y-110194735D01*
X122856370Y-110028253D01*
X122995527Y-109830984D01*
X123093718Y-109610444D01*
X123147202Y-109375032D01*
X123151053Y-109099294D01*
X123104162Y-108862480D01*
X123012167Y-108639284D01*
X122878572Y-108438208D01*
X122708465Y-108266909D01*
X122508326Y-108131913D01*
X122285778Y-108038363D01*
X122049297Y-107989820D01*
X121807891Y-107988135D01*
X121570756Y-108033371D01*
X121346923Y-108123805D01*
X121144919Y-108255993D01*
X120972437Y-108424900D01*
X120836047Y-108624092D01*
X120740945Y-108845982D01*
X120690753Y-109082118D01*
X120687382Y-109323506D01*
X120142000Y-109323506D01*
X120142000Y-106783506D01*
X120687382Y-106783506D01*
X120730962Y-107020951D01*
X120819831Y-107245410D01*
X120950606Y-107448332D01*
X121118304Y-107621989D01*
X121316539Y-107759766D01*
X121537760Y-107856415D01*
X121773540Y-107908255D01*
X122014898Y-107913310D01*
X122252642Y-107871390D01*
X122477716Y-107784089D01*
X122681546Y-107654735D01*
X122856370Y-107488253D01*
X122995527Y-107290984D01*
X123093718Y-107070444D01*
X123147202Y-106835032D01*
X123151053Y-106559294D01*
X123104162Y-106322480D01*
X123012167Y-106099284D01*
X122878572Y-105898208D01*
X122708465Y-105726909D01*
X122508326Y-105591913D01*
X122285778Y-105498363D01*
X122049297Y-105449820D01*
X121807891Y-105448135D01*
X121570756Y-105493371D01*
X121346923Y-105583805D01*
X121144919Y-105715993D01*
X120972437Y-105884900D01*
X120836047Y-106084092D01*
X120740945Y-106305982D01*
X120690753Y-106542118D01*
X120687382Y-106783506D01*
X120142000Y-106783506D01*
X120142000Y-104243506D01*
X120687382Y-104243506D01*
X120730962Y-104480951D01*
X120819831Y-104705410D01*
X120950606Y-104908332D01*
X121118304Y-105081989D01*
X121316539Y-105219766D01*
X121537760Y-105316415D01*
X121773540Y-105368255D01*
X122014898Y-105373310D01*
X122252642Y-105331390D01*
X122477716Y-105244089D01*
X122681546Y-105114735D01*
X122856370Y-104948253D01*
X122995527Y-104750984D01*
X123093718Y-104530444D01*
X123147202Y-104295032D01*
X123151053Y-104019294D01*
X123104162Y-103782480D01*
X123012167Y-103559284D01*
X122878572Y-103358208D01*
X122708465Y-103186909D01*
X122508326Y-103051913D01*
X122285778Y-102958363D01*
X122049297Y-102909820D01*
X121807891Y-102908135D01*
X121570756Y-102953371D01*
X121346923Y-103043805D01*
X121144919Y-103175993D01*
X120972437Y-103344900D01*
X120836047Y-103544092D01*
X120740945Y-103765982D01*
X120690753Y-104002118D01*
X120687382Y-104243506D01*
X120142000Y-104243506D01*
X120142000Y-101703506D01*
X120687382Y-101703506D01*
X120730962Y-101940951D01*
X120819831Y-102165410D01*
X120950606Y-102368332D01*
X121118304Y-102541989D01*
X121316539Y-102679766D01*
X121537760Y-102776415D01*
X121773540Y-102828255D01*
X122014898Y-102833310D01*
X122252642Y-102791390D01*
X122477716Y-102704089D01*
X122681546Y-102574735D01*
X122856370Y-102408253D01*
X122995527Y-102210984D01*
X123093718Y-101990444D01*
X123147202Y-101755032D01*
X123151053Y-101479294D01*
X123104162Y-101242480D01*
X123012167Y-101019284D01*
X122878572Y-100818208D01*
X122708465Y-100646909D01*
X122508326Y-100511913D01*
X122285778Y-100418363D01*
X122049297Y-100369820D01*
X121807891Y-100368135D01*
X121570756Y-100413371D01*
X121346923Y-100503805D01*
X121144919Y-100635993D01*
X120972437Y-100804900D01*
X120836047Y-101004092D01*
X120740945Y-101225982D01*
X120690753Y-101462118D01*
X120687382Y-101703506D01*
X120142000Y-101703506D01*
X120142000Y-99163506D01*
X120687382Y-99163506D01*
X120730962Y-99400951D01*
X120819831Y-99625410D01*
X120950606Y-99828332D01*
X121118304Y-100001989D01*
X121316539Y-100139766D01*
X121537760Y-100236415D01*
X121773540Y-100288255D01*
X122014898Y-100293310D01*
X122252642Y-100251390D01*
X122477716Y-100164089D01*
X122681546Y-100034735D01*
X122856370Y-99868253D01*
X122995527Y-99670984D01*
X123093718Y-99450444D01*
X123147202Y-99215032D01*
X123151053Y-98939294D01*
X123104162Y-98702480D01*
X123012167Y-98479284D01*
X122878572Y-98278208D01*
X122708465Y-98106909D01*
X122508326Y-97971913D01*
X122285778Y-97878363D01*
X122049297Y-97829820D01*
X121807891Y-97828135D01*
X121570756Y-97873371D01*
X121346923Y-97963805D01*
X121144919Y-98095993D01*
X120972437Y-98264900D01*
X120836047Y-98464092D01*
X120740945Y-98685982D01*
X120690753Y-98922118D01*
X120687382Y-99163506D01*
X120142000Y-99163506D01*
X120142000Y-83923506D01*
X120687382Y-83923506D01*
X120730962Y-84160951D01*
X120819831Y-84385410D01*
X120950606Y-84588332D01*
X121118304Y-84761989D01*
X121316539Y-84899766D01*
X121537760Y-84996415D01*
X121773540Y-85048255D01*
X122014898Y-85053310D01*
X122252642Y-85011390D01*
X122477716Y-84924089D01*
X122681546Y-84794735D01*
X122856370Y-84628253D01*
X122995527Y-84430984D01*
X123093718Y-84210444D01*
X123147202Y-83975032D01*
X123151053Y-83699294D01*
X123104162Y-83462480D01*
X123012167Y-83239284D01*
X122878572Y-83038208D01*
X122708465Y-82866909D01*
X122508326Y-82731913D01*
X122321802Y-82653506D01*
X123487382Y-82653506D01*
X123530962Y-82890951D01*
X123619831Y-83115410D01*
X123750606Y-83318332D01*
X123918304Y-83491989D01*
X124116539Y-83629766D01*
X124337760Y-83726415D01*
X124573540Y-83778255D01*
X124814898Y-83783310D01*
X125052642Y-83741390D01*
X125277716Y-83654089D01*
X125481546Y-83524735D01*
X125656370Y-83358253D01*
X125795527Y-83160984D01*
X125893718Y-82940444D01*
X125947202Y-82705032D01*
X125951053Y-82429294D01*
X125904162Y-82192480D01*
X125812167Y-81969284D01*
X125678572Y-81768208D01*
X125508465Y-81596909D01*
X125308326Y-81461913D01*
X125085778Y-81368363D01*
X124849297Y-81319820D01*
X124607891Y-81318135D01*
X124370756Y-81363371D01*
X124146923Y-81453805D01*
X123944919Y-81585993D01*
X123772437Y-81754900D01*
X123636047Y-81954092D01*
X123540945Y-82175982D01*
X123490753Y-82412118D01*
X123487382Y-82653506D01*
X122321802Y-82653506D01*
X122285778Y-82638363D01*
X122049297Y-82589820D01*
X121807891Y-82588135D01*
X121570756Y-82633371D01*
X121346923Y-82723805D01*
X121144919Y-82855993D01*
X120972437Y-83024900D01*
X120836047Y-83224092D01*
X120740945Y-83445982D01*
X120690753Y-83682118D01*
X120687382Y-83923506D01*
X120142000Y-83923506D01*
X120142000Y-82172100D01*
X121207505Y-82172100D01*
X121299523Y-82350078D01*
X121520207Y-82450566D01*
X121756255Y-82506069D01*
X121998596Y-82514456D01*
X122237917Y-82475402D01*
X122465020Y-82390411D01*
X122540477Y-82350078D01*
X122632495Y-82172100D01*
X121920000Y-81459605D01*
X121207505Y-82172100D01*
X120142000Y-82172100D01*
X120142000Y-81358596D01*
X120685544Y-81358596D01*
X120724598Y-81597917D01*
X120809589Y-81825020D01*
X120849922Y-81900477D01*
X121027900Y-81992495D01*
X121740395Y-81280000D01*
X122099605Y-81280000D01*
X122812100Y-81992495D01*
X122990078Y-81900477D01*
X123090566Y-81679793D01*
X123146069Y-81443745D01*
X123154456Y-81201404D01*
X123115402Y-80962083D01*
X123030411Y-80734980D01*
X122990078Y-80659523D01*
X122812100Y-80567505D01*
X122099605Y-81280000D01*
X121740395Y-81280000D01*
X121027900Y-80567505D01*
X120849922Y-80659523D01*
X120749434Y-80880207D01*
X120693931Y-81116255D01*
X120685544Y-81358596D01*
X120142000Y-81358596D01*
X120142000Y-80387900D01*
X121207505Y-80387900D01*
X121920000Y-81100395D01*
X122632495Y-80387900D01*
X122540477Y-80209922D01*
X122328736Y-80113506D01*
X123487382Y-80113506D01*
X123530962Y-80350951D01*
X123619831Y-80575410D01*
X123750606Y-80778332D01*
X123918304Y-80951989D01*
X124116539Y-81089766D01*
X124337760Y-81186415D01*
X124573540Y-81238255D01*
X124814898Y-81243310D01*
X125052642Y-81201390D01*
X125277716Y-81114089D01*
X125481546Y-80984735D01*
X125656370Y-80818253D01*
X125795527Y-80620984D01*
X125893718Y-80400444D01*
X125947202Y-80165032D01*
X125951053Y-79889294D01*
X125904162Y-79652480D01*
X125812167Y-79429284D01*
X125678572Y-79228208D01*
X125508465Y-79056909D01*
X125308326Y-78921913D01*
X125121802Y-78843506D01*
X156247382Y-78843506D01*
X156290962Y-79080951D01*
X156379831Y-79305410D01*
X156510606Y-79508332D01*
X156678304Y-79681989D01*
X156876539Y-79819766D01*
X157097760Y-79916415D01*
X157333540Y-79968255D01*
X157574898Y-79973310D01*
X157812642Y-79931390D01*
X158037716Y-79844089D01*
X158241546Y-79714735D01*
X158416370Y-79548253D01*
X158555527Y-79350984D01*
X158653718Y-79130444D01*
X158707202Y-78895032D01*
X158711053Y-78619294D01*
X158664162Y-78382480D01*
X158572167Y-78159284D01*
X158438572Y-77958208D01*
X158268465Y-77786909D01*
X158068326Y-77651913D01*
X157881802Y-77573506D01*
X159047382Y-77573506D01*
X159090962Y-77810951D01*
X159179831Y-78035410D01*
X159310606Y-78238332D01*
X159478304Y-78411989D01*
X159676539Y-78549766D01*
X159897760Y-78646415D01*
X160133540Y-78698255D01*
X160374898Y-78703310D01*
X160612642Y-78661390D01*
X160837716Y-78574089D01*
X161041546Y-78444735D01*
X161216370Y-78278253D01*
X161355527Y-78080984D01*
X161453718Y-77860444D01*
X161507202Y-77625032D01*
X161511053Y-77349294D01*
X161464162Y-77112480D01*
X161372167Y-76889284D01*
X161238572Y-76688208D01*
X161068465Y-76516909D01*
X160868326Y-76381913D01*
X160645778Y-76288363D01*
X160409297Y-76239820D01*
X160167891Y-76238135D01*
X159930756Y-76283371D01*
X159706923Y-76373805D01*
X159504919Y-76505993D01*
X159332437Y-76674900D01*
X159196047Y-76874092D01*
X159100945Y-77095982D01*
X159050753Y-77332118D01*
X159047382Y-77573506D01*
X157881802Y-77573506D01*
X157845778Y-77558363D01*
X157609297Y-77509820D01*
X157367891Y-77508135D01*
X157130756Y-77553371D01*
X156906923Y-77643805D01*
X156704919Y-77775993D01*
X156532437Y-77944900D01*
X156396047Y-78144092D01*
X156300945Y-78365982D01*
X156250753Y-78602118D01*
X156247382Y-78843506D01*
X125121802Y-78843506D01*
X125085778Y-78828363D01*
X124849297Y-78779820D01*
X124607891Y-78778135D01*
X124370756Y-78823371D01*
X124146923Y-78913805D01*
X123944919Y-79045993D01*
X123772437Y-79214900D01*
X123636047Y-79414092D01*
X123540945Y-79635982D01*
X123490753Y-79872118D01*
X123487382Y-80113506D01*
X122328736Y-80113506D01*
X122319793Y-80109434D01*
X122083745Y-80053931D01*
X121841404Y-80045544D01*
X121602083Y-80084598D01*
X121374980Y-80169589D01*
X121299523Y-80209922D01*
X121207505Y-80387900D01*
X120142000Y-80387900D01*
X120142000Y-78843506D01*
X120687382Y-78843506D01*
X120730962Y-79080951D01*
X120819831Y-79305410D01*
X120950606Y-79508332D01*
X121118304Y-79681989D01*
X121316539Y-79819766D01*
X121537760Y-79916415D01*
X121773540Y-79968255D01*
X122014898Y-79973310D01*
X122252642Y-79931390D01*
X122477716Y-79844089D01*
X122681546Y-79714735D01*
X122856370Y-79548253D01*
X122995527Y-79350984D01*
X123093718Y-79130444D01*
X123147202Y-78895032D01*
X123151053Y-78619294D01*
X123104162Y-78382480D01*
X123012167Y-78159284D01*
X122878572Y-77958208D01*
X122708465Y-77786909D01*
X122508326Y-77651913D01*
X122321802Y-77573506D01*
X123487382Y-77573506D01*
X123530962Y-77810951D01*
X123619831Y-78035410D01*
X123750606Y-78238332D01*
X123918304Y-78411989D01*
X124116539Y-78549766D01*
X124337760Y-78646415D01*
X124573540Y-78698255D01*
X124814898Y-78703310D01*
X125052642Y-78661390D01*
X125277716Y-78574089D01*
X125481546Y-78444735D01*
X125656370Y-78278253D01*
X125795527Y-78080984D01*
X125893718Y-77860444D01*
X125947202Y-77625032D01*
X125951053Y-77349294D01*
X125904162Y-77112480D01*
X125812167Y-76889284D01*
X125678572Y-76688208D01*
X125508465Y-76516909D01*
X125308326Y-76381913D01*
X125121802Y-76303506D01*
X156247382Y-76303506D01*
X156290962Y-76540951D01*
X156379831Y-76765410D01*
X156510606Y-76968332D01*
X156678304Y-77141989D01*
X156876539Y-77279766D01*
X157097760Y-77376415D01*
X157333540Y-77428255D01*
X157574898Y-77433310D01*
X157812642Y-77391390D01*
X158037716Y-77304089D01*
X158241546Y-77174735D01*
X158416370Y-77008253D01*
X158555527Y-76810984D01*
X158653718Y-76590444D01*
X158707202Y-76355032D01*
X158711053Y-76079294D01*
X158664162Y-75842480D01*
X158572167Y-75619284D01*
X158438572Y-75418208D01*
X158268465Y-75246909D01*
X158068326Y-75111913D01*
X157845778Y-75018363D01*
X157609297Y-74969820D01*
X157367891Y-74968135D01*
X157130756Y-75013371D01*
X156906923Y-75103805D01*
X156704919Y-75235993D01*
X156532437Y-75404900D01*
X156396047Y-75604092D01*
X156300945Y-75825982D01*
X156250753Y-76062118D01*
X156247382Y-76303506D01*
X125121802Y-76303506D01*
X125085778Y-76288363D01*
X124849297Y-76239820D01*
X124607891Y-76238135D01*
X124370756Y-76283371D01*
X124146923Y-76373805D01*
X123944919Y-76505993D01*
X123772437Y-76674900D01*
X123636047Y-76874092D01*
X123540945Y-77095982D01*
X123490753Y-77332118D01*
X123487382Y-77573506D01*
X122321802Y-77573506D01*
X122285778Y-77558363D01*
X122049297Y-77509820D01*
X121807891Y-77508135D01*
X121570756Y-77553371D01*
X121346923Y-77643805D01*
X121144919Y-77775993D01*
X120972437Y-77944900D01*
X120836047Y-78144092D01*
X120740945Y-78365982D01*
X120690753Y-78602118D01*
X120687382Y-78843506D01*
X120142000Y-78843506D01*
X120142000Y-76303506D01*
X120687382Y-76303506D01*
X120730962Y-76540951D01*
X120819831Y-76765410D01*
X120950606Y-76968332D01*
X121118304Y-77141989D01*
X121316539Y-77279766D01*
X121537760Y-77376415D01*
X121773540Y-77428255D01*
X122014898Y-77433310D01*
X122252642Y-77391390D01*
X122477716Y-77304089D01*
X122681546Y-77174735D01*
X122856370Y-77008253D01*
X122995527Y-76810984D01*
X123093718Y-76590444D01*
X123147202Y-76355032D01*
X123151053Y-76079294D01*
X123104162Y-75842480D01*
X123012167Y-75619284D01*
X122878572Y-75418208D01*
X122708465Y-75246909D01*
X122508326Y-75111913D01*
X122285778Y-75018363D01*
X122049297Y-74969820D01*
X121807891Y-74968135D01*
X121570756Y-75013371D01*
X121346923Y-75103805D01*
X121144919Y-75235993D01*
X120972437Y-75404900D01*
X120836047Y-75604092D01*
X120740945Y-75825982D01*
X120690753Y-76062118D01*
X120687382Y-76303506D01*
X120142000Y-76303506D01*
X120142000Y-74422000D01*
X161798000Y-74422000D01*
X161798000Y-126873000D01*
%TO.N,VCC*%
G36*
X146558000Y-88265000D02*
X146560440Y-88289776D01*
X146567667Y-88313601D01*
X146579403Y-88335557D01*
X146595197Y-88354803D01*
X146614443Y-88370597D01*
X146636399Y-88382333D01*
X146660224Y-88389560D01*
X146685000Y-88392000D01*
X155575000Y-88392000D01*
X155599776Y-88389560D01*
X155623601Y-88382333D01*
X155645557Y-88370597D01*
X155664803Y-88354803D01*
X155680597Y-88335557D01*
X155692333Y-88313601D01*
X155699560Y-88289776D01*
X155702000Y-88265000D01*
X155702000Y-87757000D01*
X157022061Y-87757000D01*
X156934980Y-87789589D01*
X156859523Y-87829922D01*
X156767505Y-88007900D01*
X157480000Y-88720395D01*
X158192495Y-88007900D01*
X158100477Y-87829922D01*
X157940331Y-87757000D01*
X159051694Y-87757000D01*
X159090962Y-87970951D01*
X159179831Y-88195410D01*
X159258000Y-88316704D01*
X159258000Y-89483612D01*
X159196047Y-89574092D01*
X159100945Y-89795982D01*
X159050753Y-90032118D01*
X159047382Y-90273506D01*
X159090962Y-90510951D01*
X159179831Y-90735410D01*
X159258000Y-90856704D01*
X159258000Y-92023612D01*
X159196047Y-92114092D01*
X159100945Y-92335982D01*
X159050753Y-92572118D01*
X159047382Y-92813506D01*
X159090962Y-93050951D01*
X159179831Y-93275410D01*
X159258000Y-93396704D01*
X159258000Y-93980000D01*
X159260440Y-94004776D01*
X159267667Y-94028601D01*
X159279403Y-94050557D01*
X159295197Y-94069803D01*
X159314443Y-94085597D01*
X159336399Y-94097333D01*
X159360224Y-94104560D01*
X159385000Y-94107000D01*
X159822061Y-94107000D01*
X159734980Y-94139589D01*
X159659523Y-94179922D01*
X159567505Y-94357900D01*
X160280000Y-95070395D01*
X160294143Y-95056253D01*
X160473748Y-95235858D01*
X160459605Y-95250000D01*
X160473748Y-95264143D01*
X160294143Y-95443748D01*
X160280000Y-95429605D01*
X159567505Y-96142100D01*
X159659523Y-96320078D01*
X159819669Y-96393000D01*
X159385000Y-96393000D01*
X159360224Y-96395440D01*
X159336399Y-96402667D01*
X159314443Y-96414403D01*
X159295197Y-96430197D01*
X159279403Y-96449443D01*
X159267667Y-96471399D01*
X159260440Y-96495224D01*
X159258000Y-96520000D01*
X159258000Y-97103612D01*
X159196047Y-97194092D01*
X159100945Y-97415982D01*
X159050753Y-97652118D01*
X159047382Y-97893506D01*
X159090962Y-98130951D01*
X159179831Y-98355410D01*
X159258000Y-98476704D01*
X159258000Y-99643612D01*
X159196047Y-99734092D01*
X159100945Y-99955982D01*
X159050753Y-100192118D01*
X159047382Y-100433506D01*
X159090962Y-100670951D01*
X159179831Y-100895410D01*
X159258000Y-101016704D01*
X159258000Y-102183612D01*
X159196047Y-102274092D01*
X159100945Y-102495982D01*
X159050753Y-102732118D01*
X159047382Y-102973506D01*
X159090962Y-103210951D01*
X159179831Y-103435410D01*
X159258000Y-103556704D01*
X159258000Y-104723612D01*
X159196047Y-104814092D01*
X159100945Y-105035982D01*
X159050753Y-105272118D01*
X159047382Y-105513506D01*
X159090962Y-105750951D01*
X159179831Y-105975410D01*
X159258000Y-106096704D01*
X159258000Y-107263612D01*
X159196047Y-107354092D01*
X159100945Y-107575982D01*
X159050753Y-107812118D01*
X159047382Y-108053506D01*
X159090962Y-108290951D01*
X159179831Y-108515410D01*
X159258000Y-108636704D01*
X159258000Y-109803612D01*
X159196047Y-109894092D01*
X159100945Y-110115982D01*
X159050753Y-110352118D01*
X159047382Y-110593506D01*
X159090962Y-110830951D01*
X159179831Y-111055410D01*
X159258000Y-111176704D01*
X159258000Y-111760000D01*
X159260440Y-111784776D01*
X159267667Y-111808601D01*
X159279403Y-111830557D01*
X159295197Y-111849803D01*
X159314443Y-111865597D01*
X159336399Y-111877333D01*
X159360224Y-111884560D01*
X159385000Y-111887000D01*
X159822061Y-111887000D01*
X159734980Y-111919589D01*
X159659523Y-111959922D01*
X159567505Y-112137900D01*
X160280000Y-112850395D01*
X160294143Y-112836253D01*
X160473748Y-113015858D01*
X160459605Y-113030000D01*
X160473748Y-113044143D01*
X160294143Y-113223748D01*
X160280000Y-113209605D01*
X159567505Y-113922100D01*
X159659523Y-114100078D01*
X159819669Y-114173000D01*
X158709807Y-114173000D01*
X158664162Y-113942480D01*
X158572167Y-113719284D01*
X158438572Y-113518208D01*
X158268465Y-113346909D01*
X158068326Y-113211913D01*
X157845778Y-113118363D01*
X157798198Y-113108596D01*
X159045544Y-113108596D01*
X159084598Y-113347917D01*
X159169589Y-113575020D01*
X159209922Y-113650477D01*
X159387900Y-113742495D01*
X160100395Y-113030000D01*
X159387900Y-112317505D01*
X159209922Y-112409523D01*
X159109434Y-112630207D01*
X159053931Y-112866255D01*
X159045544Y-113108596D01*
X157798198Y-113108596D01*
X157609297Y-113069820D01*
X157367891Y-113068135D01*
X157130756Y-113113371D01*
X156906923Y-113203805D01*
X156704919Y-113335993D01*
X156532437Y-113504900D01*
X156396047Y-113704092D01*
X156300945Y-113925982D01*
X156250753Y-114162118D01*
X156250601Y-114173000D01*
X153588237Y-114173000D01*
X152494345Y-113079109D01*
X152496031Y-112958322D01*
X152468187Y-112817695D01*
X152413558Y-112685156D01*
X152334225Y-112565751D01*
X152233212Y-112464030D01*
X152114364Y-112383866D01*
X151982209Y-112328313D01*
X151841780Y-112299487D01*
X151698427Y-112298486D01*
X151611000Y-112315163D01*
X151611000Y-112311422D01*
X151686041Y-112239962D01*
X151768676Y-112122819D01*
X151826985Y-111991856D01*
X151856145Y-111863506D01*
X156247382Y-111863506D01*
X156290962Y-112100951D01*
X156379831Y-112325410D01*
X156510606Y-112528332D01*
X156678304Y-112701989D01*
X156876539Y-112839766D01*
X157097760Y-112936415D01*
X157333540Y-112988255D01*
X157574898Y-112993310D01*
X157812642Y-112951390D01*
X158037716Y-112864089D01*
X158241546Y-112734735D01*
X158416370Y-112568253D01*
X158555527Y-112370984D01*
X158653718Y-112150444D01*
X158707202Y-111915032D01*
X158711053Y-111639294D01*
X158664162Y-111402480D01*
X158572167Y-111179284D01*
X158438572Y-110978208D01*
X158268465Y-110806909D01*
X158068326Y-110671913D01*
X157845778Y-110578363D01*
X157609297Y-110529820D01*
X157367891Y-110528135D01*
X157130756Y-110573371D01*
X156906923Y-110663805D01*
X156704919Y-110795993D01*
X156532437Y-110964900D01*
X156396047Y-111164092D01*
X156300945Y-111385982D01*
X156250753Y-111622118D01*
X156247382Y-111863506D01*
X151856145Y-111863506D01*
X151858745Y-111852062D01*
X151861031Y-111688322D01*
X151833187Y-111547695D01*
X151778558Y-111415156D01*
X151699225Y-111295751D01*
X151598212Y-111194030D01*
X151479364Y-111113866D01*
X151347209Y-111058313D01*
X151206780Y-111029487D01*
X151063427Y-111028486D01*
X150976000Y-111045163D01*
X150976000Y-111041422D01*
X151051041Y-110969962D01*
X151133676Y-110852819D01*
X151191985Y-110721856D01*
X151223745Y-110582062D01*
X151226031Y-110418322D01*
X151198187Y-110277695D01*
X151143558Y-110145156D01*
X151064225Y-110025751D01*
X150963212Y-109924030D01*
X150844364Y-109843866D01*
X150712209Y-109788313D01*
X150571780Y-109759487D01*
X150428427Y-109758486D01*
X150341000Y-109775163D01*
X150341000Y-109771422D01*
X150416041Y-109699962D01*
X150498676Y-109582819D01*
X150556985Y-109451856D01*
X150586145Y-109323506D01*
X156247382Y-109323506D01*
X156290962Y-109560951D01*
X156379831Y-109785410D01*
X156510606Y-109988332D01*
X156678304Y-110161989D01*
X156876539Y-110299766D01*
X157097760Y-110396415D01*
X157333540Y-110448255D01*
X157574898Y-110453310D01*
X157812642Y-110411390D01*
X158037716Y-110324089D01*
X158241546Y-110194735D01*
X158416370Y-110028253D01*
X158555527Y-109830984D01*
X158653718Y-109610444D01*
X158707202Y-109375032D01*
X158711053Y-109099294D01*
X158664162Y-108862480D01*
X158572167Y-108639284D01*
X158438572Y-108438208D01*
X158268465Y-108266909D01*
X158068326Y-108131913D01*
X157845778Y-108038363D01*
X157609297Y-107989820D01*
X157367891Y-107988135D01*
X157130756Y-108033371D01*
X156906923Y-108123805D01*
X156704919Y-108255993D01*
X156532437Y-108424900D01*
X156396047Y-108624092D01*
X156300945Y-108845982D01*
X156250753Y-109082118D01*
X156247382Y-109323506D01*
X150586145Y-109323506D01*
X150588745Y-109312062D01*
X150591031Y-109148322D01*
X150563187Y-109007695D01*
X150508558Y-108875156D01*
X150429225Y-108755751D01*
X150328212Y-108654030D01*
X150209364Y-108573866D01*
X150077209Y-108518313D01*
X149936780Y-108489487D01*
X149793427Y-108488486D01*
X149706000Y-108505163D01*
X149706000Y-108501422D01*
X149781041Y-108429962D01*
X149863676Y-108312819D01*
X149921985Y-108181856D01*
X149953745Y-108042062D01*
X149956031Y-107878322D01*
X149928187Y-107737695D01*
X149873558Y-107605156D01*
X149794225Y-107485751D01*
X149693212Y-107384030D01*
X149574364Y-107303866D01*
X149442209Y-107248313D01*
X149301780Y-107219487D01*
X149158427Y-107218486D01*
X149071000Y-107235163D01*
X149071000Y-106783506D01*
X156247382Y-106783506D01*
X156290962Y-107020951D01*
X156379831Y-107245410D01*
X156510606Y-107448332D01*
X156678304Y-107621989D01*
X156876539Y-107759766D01*
X157097760Y-107856415D01*
X157333540Y-107908255D01*
X157574898Y-107913310D01*
X157812642Y-107871390D01*
X158037716Y-107784089D01*
X158241546Y-107654735D01*
X158416370Y-107488253D01*
X158555527Y-107290984D01*
X158653718Y-107070444D01*
X158707202Y-106835032D01*
X158711053Y-106559294D01*
X158664162Y-106322480D01*
X158572167Y-106099284D01*
X158438572Y-105898208D01*
X158268465Y-105726909D01*
X158068326Y-105591913D01*
X157845778Y-105498363D01*
X157609297Y-105449820D01*
X157367891Y-105448135D01*
X157130756Y-105493371D01*
X156906923Y-105583805D01*
X156704919Y-105715993D01*
X156532437Y-105884900D01*
X156396047Y-106084092D01*
X156300945Y-106305982D01*
X156250753Y-106542118D01*
X156247382Y-106783506D01*
X149071000Y-106783506D01*
X149071000Y-105961422D01*
X149146041Y-105889962D01*
X149228676Y-105772819D01*
X149286985Y-105641856D01*
X149318745Y-105502062D01*
X149321031Y-105338322D01*
X149293187Y-105197695D01*
X149238558Y-105065156D01*
X149159225Y-104945751D01*
X149058212Y-104844030D01*
X148939364Y-104763866D01*
X148807209Y-104708313D01*
X148666780Y-104679487D01*
X148523427Y-104678486D01*
X148382610Y-104705348D01*
X148249692Y-104759051D01*
X148129736Y-104837547D01*
X148027312Y-104937849D01*
X147946320Y-105056134D01*
X147889846Y-105187898D01*
X147860041Y-105328122D01*
X147858039Y-105471464D01*
X147883918Y-105612466D01*
X147936691Y-105745755D01*
X148014348Y-105866256D01*
X148109000Y-105964271D01*
X148109000Y-114173000D01*
X144780000Y-114173000D01*
X144755224Y-114175440D01*
X144731399Y-114182667D01*
X144709443Y-114194403D01*
X144690197Y-114210197D01*
X144674403Y-114229443D01*
X144662667Y-114251399D01*
X144655440Y-114275224D01*
X144653000Y-114300000D01*
X144653000Y-117983000D01*
X141097000Y-117983000D01*
X141097000Y-105410000D01*
X141094560Y-105385224D01*
X141087333Y-105361399D01*
X141075597Y-105339443D01*
X141059803Y-105320197D01*
X141040557Y-105304403D01*
X141018601Y-105292667D01*
X140994776Y-105285440D01*
X140970000Y-105283000D01*
X135736000Y-105283000D01*
X135736000Y-104243506D01*
X156247382Y-104243506D01*
X156290962Y-104480951D01*
X156379831Y-104705410D01*
X156510606Y-104908332D01*
X156678304Y-105081989D01*
X156876539Y-105219766D01*
X157097760Y-105316415D01*
X157333540Y-105368255D01*
X157574898Y-105373310D01*
X157812642Y-105331390D01*
X158037716Y-105244089D01*
X158241546Y-105114735D01*
X158416370Y-104948253D01*
X158555527Y-104750984D01*
X158653718Y-104530444D01*
X158707202Y-104295032D01*
X158711053Y-104019294D01*
X158664162Y-103782480D01*
X158572167Y-103559284D01*
X158438572Y-103358208D01*
X158268465Y-103186909D01*
X158068326Y-103051913D01*
X157845778Y-102958363D01*
X157609297Y-102909820D01*
X157367891Y-102908135D01*
X157130756Y-102953371D01*
X156906923Y-103043805D01*
X156704919Y-103175993D01*
X156532437Y-103344900D01*
X156396047Y-103544092D01*
X156300945Y-103765982D01*
X156250753Y-104002118D01*
X156247382Y-104243506D01*
X135736000Y-104243506D01*
X135736000Y-103505000D01*
X135731664Y-103460777D01*
X135727792Y-103416519D01*
X135727086Y-103414087D01*
X135726839Y-103411573D01*
X135713991Y-103369016D01*
X135701601Y-103326372D01*
X135700439Y-103324131D01*
X135699707Y-103321705D01*
X135678837Y-103282456D01*
X135658401Y-103243029D01*
X135656821Y-103241050D01*
X135655635Y-103238819D01*
X135627549Y-103204381D01*
X135599834Y-103169664D01*
X135596365Y-103166145D01*
X135596304Y-103166071D01*
X135596235Y-103166014D01*
X135595118Y-103164881D01*
X134714345Y-102284108D01*
X134716031Y-102163322D01*
X134688187Y-102022695D01*
X134633558Y-101890156D01*
X134554225Y-101770751D01*
X134453212Y-101669030D01*
X134441995Y-101661464D01*
X135158039Y-101661464D01*
X135183918Y-101802466D01*
X135236691Y-101935755D01*
X135314348Y-102056256D01*
X135413932Y-102159378D01*
X135531649Y-102241194D01*
X135663016Y-102298586D01*
X135803028Y-102329370D01*
X135946353Y-102332372D01*
X136087532Y-102307479D01*
X136115929Y-102296464D01*
X140238039Y-102296464D01*
X140263918Y-102437466D01*
X140316691Y-102570755D01*
X140394348Y-102691256D01*
X140493932Y-102794378D01*
X140611649Y-102876194D01*
X140743016Y-102933586D01*
X140883028Y-102964370D01*
X141026353Y-102967372D01*
X141167532Y-102942479D01*
X141301186Y-102890637D01*
X141422226Y-102813823D01*
X141526041Y-102714962D01*
X141608676Y-102597819D01*
X141666985Y-102466856D01*
X141698745Y-102327062D01*
X141701031Y-102163322D01*
X141673187Y-102022695D01*
X141618558Y-101890156D01*
X141539225Y-101770751D01*
X141438212Y-101669030D01*
X141426995Y-101661464D01*
X147858039Y-101661464D01*
X147883918Y-101802466D01*
X147936691Y-101935755D01*
X148014348Y-102056256D01*
X148113932Y-102159378D01*
X148231649Y-102241194D01*
X148363016Y-102298586D01*
X148503028Y-102329370D01*
X148646353Y-102332372D01*
X148787532Y-102307479D01*
X148921186Y-102255637D01*
X149042226Y-102178823D01*
X149146041Y-102079962D01*
X149228676Y-101962819D01*
X149286985Y-101831856D01*
X149316145Y-101703506D01*
X156247382Y-101703506D01*
X156290962Y-101940951D01*
X156379831Y-102165410D01*
X156510606Y-102368332D01*
X156678304Y-102541989D01*
X156876539Y-102679766D01*
X157097760Y-102776415D01*
X157333540Y-102828255D01*
X157574898Y-102833310D01*
X157812642Y-102791390D01*
X158037716Y-102704089D01*
X158241546Y-102574735D01*
X158416370Y-102408253D01*
X158555527Y-102210984D01*
X158653718Y-101990444D01*
X158707202Y-101755032D01*
X158711053Y-101479294D01*
X158664162Y-101242480D01*
X158572167Y-101019284D01*
X158438572Y-100818208D01*
X158268465Y-100646909D01*
X158068326Y-100511913D01*
X157845778Y-100418363D01*
X157609297Y-100369820D01*
X157367891Y-100368135D01*
X157130756Y-100413371D01*
X156906923Y-100503805D01*
X156704919Y-100635993D01*
X156532437Y-100804900D01*
X156396047Y-101004092D01*
X156300945Y-101225982D01*
X156250753Y-101462118D01*
X156247382Y-101703506D01*
X149316145Y-101703506D01*
X149318745Y-101692062D01*
X149321031Y-101528322D01*
X149293187Y-101387695D01*
X149238558Y-101255156D01*
X149159225Y-101135751D01*
X149058212Y-101034030D01*
X148939364Y-100953866D01*
X148807209Y-100898313D01*
X148666780Y-100869487D01*
X148523427Y-100868486D01*
X148382610Y-100895348D01*
X148249692Y-100949051D01*
X148129736Y-101027547D01*
X148027312Y-101127849D01*
X147946320Y-101246134D01*
X147889846Y-101377898D01*
X147860041Y-101518122D01*
X147858039Y-101661464D01*
X141426995Y-101661464D01*
X141319364Y-101588866D01*
X141187209Y-101533313D01*
X141046780Y-101504487D01*
X140903427Y-101503486D01*
X140762610Y-101530348D01*
X140629692Y-101584051D01*
X140509736Y-101662547D01*
X140407312Y-101762849D01*
X140326320Y-101881134D01*
X140269846Y-102012898D01*
X140240041Y-102153122D01*
X140238039Y-102296464D01*
X136115929Y-102296464D01*
X136221186Y-102255637D01*
X136342226Y-102178823D01*
X136446041Y-102079962D01*
X136528676Y-101962819D01*
X136586985Y-101831856D01*
X136618745Y-101692062D01*
X136621031Y-101528322D01*
X136593187Y-101387695D01*
X136538558Y-101255156D01*
X136459225Y-101135751D01*
X136358212Y-101034030D01*
X136239364Y-100953866D01*
X136107209Y-100898313D01*
X135966780Y-100869487D01*
X135823427Y-100868486D01*
X135682610Y-100895348D01*
X135549692Y-100949051D01*
X135429736Y-101027547D01*
X135327312Y-101127849D01*
X135246320Y-101246134D01*
X135189846Y-101377898D01*
X135160041Y-101518122D01*
X135158039Y-101661464D01*
X134441995Y-101661464D01*
X134334364Y-101588866D01*
X134202209Y-101533313D01*
X134061780Y-101504487D01*
X133918427Y-101503486D01*
X133777610Y-101530348D01*
X133644692Y-101584051D01*
X133524736Y-101662547D01*
X133422312Y-101762849D01*
X133341320Y-101881134D01*
X133284846Y-102012898D01*
X133255041Y-102153122D01*
X133253039Y-102296464D01*
X133270574Y-102392004D01*
X133183212Y-102304030D01*
X133064364Y-102223866D01*
X132932209Y-102168313D01*
X132791780Y-102139487D01*
X132648427Y-102138486D01*
X132507610Y-102165348D01*
X132374692Y-102219051D01*
X132254736Y-102297547D01*
X132152312Y-102397849D01*
X132071320Y-102516134D01*
X132014846Y-102647898D01*
X131985041Y-102788122D01*
X131983039Y-102931464D01*
X132008918Y-103072466D01*
X132061691Y-103205755D01*
X132139348Y-103326256D01*
X132234000Y-103424271D01*
X132234000Y-107188715D01*
X131926000Y-107535215D01*
X131926000Y-104691422D01*
X132001041Y-104619962D01*
X132083676Y-104502819D01*
X132141985Y-104371856D01*
X132173745Y-104232062D01*
X132176031Y-104068322D01*
X132148187Y-103927695D01*
X132093558Y-103795156D01*
X132014225Y-103675751D01*
X131913212Y-103574030D01*
X131794364Y-103493866D01*
X131662209Y-103438313D01*
X131521780Y-103409487D01*
X131378427Y-103408486D01*
X131237610Y-103435348D01*
X131104692Y-103489051D01*
X130984736Y-103567547D01*
X130882312Y-103667849D01*
X130801320Y-103786134D01*
X130744846Y-103917898D01*
X130715041Y-104058122D01*
X130713039Y-104201464D01*
X130738918Y-104342466D01*
X130791691Y-104475755D01*
X130869348Y-104596256D01*
X130964000Y-104694271D01*
X130964000Y-108385763D01*
X128564882Y-110784882D01*
X128536711Y-110819178D01*
X128508120Y-110853251D01*
X128506900Y-110855471D01*
X128505297Y-110857422D01*
X128484320Y-110896543D01*
X128462896Y-110935514D01*
X128462131Y-110937925D01*
X128460936Y-110940154D01*
X128447955Y-110982615D01*
X128434511Y-111024994D01*
X128434229Y-111027511D01*
X128433490Y-111029927D01*
X128429002Y-111074107D01*
X128424047Y-111118284D01*
X128424012Y-111123228D01*
X128424003Y-111123321D01*
X128424011Y-111123407D01*
X128424000Y-111125000D01*
X128424000Y-116713000D01*
X125177398Y-116713000D01*
X125277716Y-116674089D01*
X125481546Y-116544735D01*
X125656370Y-116378253D01*
X125795527Y-116180984D01*
X125893718Y-115960444D01*
X125947202Y-115725032D01*
X125951053Y-115449294D01*
X125904162Y-115212480D01*
X125812167Y-114989284D01*
X125678572Y-114788208D01*
X125508465Y-114616909D01*
X125308326Y-114481913D01*
X125085778Y-114388363D01*
X124849297Y-114339820D01*
X124607891Y-114338135D01*
X124370756Y-114383371D01*
X124146923Y-114473805D01*
X123952000Y-114601359D01*
X123952000Y-113977608D01*
X124007506Y-113922102D01*
X124099523Y-114100078D01*
X124320207Y-114200566D01*
X124556255Y-114256069D01*
X124798596Y-114264456D01*
X125037917Y-114225402D01*
X125265020Y-114140411D01*
X125340477Y-114100078D01*
X125432495Y-113922100D01*
X124720000Y-113209605D01*
X124705858Y-113223748D01*
X124526253Y-113044143D01*
X124540395Y-113030000D01*
X124899605Y-113030000D01*
X125612100Y-113742495D01*
X125790078Y-113650477D01*
X125890566Y-113429793D01*
X125946069Y-113193745D01*
X125954456Y-112951404D01*
X125915402Y-112712083D01*
X125830411Y-112484980D01*
X125790078Y-112409523D01*
X125612100Y-112317505D01*
X124899605Y-113030000D01*
X124540395Y-113030000D01*
X124526253Y-113015858D01*
X124705858Y-112836253D01*
X124720000Y-112850395D01*
X125432495Y-112137900D01*
X125340477Y-111959922D01*
X125119793Y-111859434D01*
X124883745Y-111803931D01*
X124641404Y-111795544D01*
X124402083Y-111834598D01*
X124174980Y-111919589D01*
X124099523Y-111959922D01*
X124007506Y-112137898D01*
X123952000Y-112082392D01*
X123952000Y-111455408D01*
X124116539Y-111569766D01*
X124337760Y-111666415D01*
X124573540Y-111718255D01*
X124814898Y-111723310D01*
X125052642Y-111681390D01*
X125277716Y-111594089D01*
X125481546Y-111464735D01*
X125656370Y-111298253D01*
X125688998Y-111252000D01*
X125730000Y-111252000D01*
X125754776Y-111249560D01*
X125778601Y-111242333D01*
X125800557Y-111230597D01*
X125819803Y-111214803D01*
X125835597Y-111195557D01*
X125847333Y-111173601D01*
X125854560Y-111149776D01*
X125857000Y-111125000D01*
X125857000Y-110962914D01*
X125893718Y-110880444D01*
X125947202Y-110645032D01*
X125951053Y-110369294D01*
X125904162Y-110132480D01*
X125857000Y-110018057D01*
X125857000Y-108422914D01*
X125893718Y-108340444D01*
X125947202Y-108105032D01*
X125951053Y-107829294D01*
X125904162Y-107592480D01*
X125857000Y-107478057D01*
X125857000Y-105882914D01*
X125893718Y-105800444D01*
X125947202Y-105565032D01*
X125951053Y-105289294D01*
X125904162Y-105052480D01*
X125857000Y-104938057D01*
X125857000Y-103342914D01*
X125893718Y-103260444D01*
X125947202Y-103025032D01*
X125951053Y-102749294D01*
X125904162Y-102512480D01*
X125857000Y-102398057D01*
X125857000Y-100802914D01*
X125893718Y-100720444D01*
X125947202Y-100485032D01*
X125951053Y-100209294D01*
X125904162Y-99972480D01*
X125857000Y-99858057D01*
X125857000Y-98262914D01*
X125893718Y-98180444D01*
X125947202Y-97945032D01*
X125951053Y-97669294D01*
X125948223Y-97655000D01*
X129167157Y-97655000D01*
X129167157Y-98655000D01*
X129174513Y-98729689D01*
X129196299Y-98801508D01*
X129231678Y-98867696D01*
X129279289Y-98925711D01*
X129337304Y-98973322D01*
X129394000Y-99003627D01*
X129394000Y-99060000D01*
X129408874Y-99211697D01*
X129452930Y-99357616D01*
X129524489Y-99492199D01*
X129620825Y-99610319D01*
X129738270Y-99707478D01*
X129872350Y-99779975D01*
X130017958Y-99825048D01*
X130169548Y-99840981D01*
X130321345Y-99827166D01*
X130467568Y-99784131D01*
X130602647Y-99713513D01*
X130721437Y-99618003D01*
X130819414Y-99501239D01*
X130892845Y-99367669D01*
X130938933Y-99222379D01*
X130955924Y-99070904D01*
X130956000Y-99060000D01*
X130956000Y-99003627D01*
X131012696Y-98973322D01*
X131070711Y-98925711D01*
X131118322Y-98867696D01*
X131153701Y-98801508D01*
X131175487Y-98729689D01*
X131182843Y-98655000D01*
X131182843Y-97655000D01*
X140597157Y-97655000D01*
X140597157Y-98655000D01*
X140604513Y-98729689D01*
X140626299Y-98801508D01*
X140661678Y-98867696D01*
X140709289Y-98925711D01*
X140767304Y-98973322D01*
X140824000Y-99003627D01*
X140824000Y-99060000D01*
X140838874Y-99211697D01*
X140882930Y-99357616D01*
X140954489Y-99492199D01*
X141050825Y-99610319D01*
X141168270Y-99707478D01*
X141302350Y-99779975D01*
X141447958Y-99825048D01*
X141599548Y-99840981D01*
X141751345Y-99827166D01*
X141897568Y-99784131D01*
X142032647Y-99713513D01*
X142151437Y-99618003D01*
X142249414Y-99501239D01*
X142322845Y-99367669D01*
X142368933Y-99222379D01*
X142375536Y-99163506D01*
X156247382Y-99163506D01*
X156290962Y-99400951D01*
X156379831Y-99625410D01*
X156510606Y-99828332D01*
X156678304Y-100001989D01*
X156876539Y-100139766D01*
X157097760Y-100236415D01*
X157333540Y-100288255D01*
X157574898Y-100293310D01*
X157812642Y-100251390D01*
X158037716Y-100164089D01*
X158241546Y-100034735D01*
X158416370Y-99868253D01*
X158555527Y-99670984D01*
X158653718Y-99450444D01*
X158707202Y-99215032D01*
X158711053Y-98939294D01*
X158664162Y-98702480D01*
X158572167Y-98479284D01*
X158438572Y-98278208D01*
X158268465Y-98106909D01*
X158068326Y-97971913D01*
X157845778Y-97878363D01*
X157609297Y-97829820D01*
X157367891Y-97828135D01*
X157130756Y-97873371D01*
X156906923Y-97963805D01*
X156704919Y-98095993D01*
X156532437Y-98264900D01*
X156396047Y-98464092D01*
X156300945Y-98685982D01*
X156250753Y-98922118D01*
X156247382Y-99163506D01*
X142375536Y-99163506D01*
X142385924Y-99070904D01*
X142386000Y-99060000D01*
X142386000Y-99003627D01*
X142442696Y-98973322D01*
X142500711Y-98925711D01*
X142548322Y-98867696D01*
X142583701Y-98801508D01*
X142605487Y-98729689D01*
X142612843Y-98655000D01*
X142612843Y-97655000D01*
X142605487Y-97580311D01*
X142583701Y-97508492D01*
X142548322Y-97442304D01*
X142500711Y-97384289D01*
X142442696Y-97336678D01*
X142376508Y-97301299D01*
X142304689Y-97279513D01*
X142230000Y-97272157D01*
X140980000Y-97272157D01*
X140905311Y-97279513D01*
X140833492Y-97301299D01*
X140767304Y-97336678D01*
X140709289Y-97384289D01*
X140661678Y-97442304D01*
X140626299Y-97508492D01*
X140604513Y-97580311D01*
X140597157Y-97655000D01*
X131182843Y-97655000D01*
X131175487Y-97580311D01*
X131153701Y-97508492D01*
X131118322Y-97442304D01*
X131070711Y-97384289D01*
X131012696Y-97336678D01*
X130946508Y-97301299D01*
X130874689Y-97279513D01*
X130800000Y-97272157D01*
X129550000Y-97272157D01*
X129475311Y-97279513D01*
X129403492Y-97301299D01*
X129337304Y-97336678D01*
X129279289Y-97384289D01*
X129231678Y-97442304D01*
X129196299Y-97508492D01*
X129174513Y-97580311D01*
X129167157Y-97655000D01*
X125948223Y-97655000D01*
X125904162Y-97432480D01*
X125857000Y-97318057D01*
X125857000Y-96520000D01*
X125854560Y-96495224D01*
X125847333Y-96471399D01*
X125835597Y-96449443D01*
X125819803Y-96430197D01*
X125800557Y-96414403D01*
X125778601Y-96402667D01*
X125754776Y-96395440D01*
X125730000Y-96393000D01*
X125177939Y-96393000D01*
X125220024Y-96377250D01*
X129169000Y-96377250D01*
X129169000Y-96692525D01*
X129183642Y-96766133D01*
X129212362Y-96835471D01*
X129254058Y-96897873D01*
X129307126Y-96950942D01*
X129369529Y-96992638D01*
X129438866Y-97021358D01*
X129512475Y-97036000D01*
X129952750Y-97036000D01*
X130048000Y-96940750D01*
X130048000Y-96282000D01*
X130302000Y-96282000D01*
X130302000Y-96940750D01*
X130397250Y-97036000D01*
X130837525Y-97036000D01*
X130911134Y-97021358D01*
X130980471Y-96992638D01*
X131042874Y-96950942D01*
X131095942Y-96897873D01*
X131137638Y-96835471D01*
X131166358Y-96766133D01*
X131181000Y-96692525D01*
X131181000Y-96377250D01*
X140599000Y-96377250D01*
X140599000Y-96692525D01*
X140613642Y-96766133D01*
X140642362Y-96835471D01*
X140684058Y-96897873D01*
X140737126Y-96950942D01*
X140799529Y-96992638D01*
X140868866Y-97021358D01*
X140942475Y-97036000D01*
X141382750Y-97036000D01*
X141478000Y-96940750D01*
X141478000Y-96282000D01*
X141732000Y-96282000D01*
X141732000Y-96940750D01*
X141827250Y-97036000D01*
X142267525Y-97036000D01*
X142341134Y-97021358D01*
X142410471Y-96992638D01*
X142472874Y-96950942D01*
X142525942Y-96897873D01*
X142567638Y-96835471D01*
X142596358Y-96766133D01*
X142611000Y-96692525D01*
X142611000Y-96581464D01*
X150398039Y-96581464D01*
X150423918Y-96722466D01*
X150476691Y-96855755D01*
X150554348Y-96976256D01*
X150653932Y-97079378D01*
X150771649Y-97161194D01*
X150903016Y-97218586D01*
X151043028Y-97249370D01*
X151186353Y-97252372D01*
X151327532Y-97227479D01*
X151461186Y-97175637D01*
X151582226Y-97098823D01*
X151686041Y-96999962D01*
X151768676Y-96882819D01*
X151826985Y-96751856D01*
X151858745Y-96612062D01*
X151861031Y-96448322D01*
X151833187Y-96307695D01*
X151778558Y-96175156D01*
X151699225Y-96055751D01*
X151598212Y-95954030D01*
X151479364Y-95873866D01*
X151347209Y-95818313D01*
X151206780Y-95789487D01*
X151063427Y-95788486D01*
X150922610Y-95815348D01*
X150789692Y-95869051D01*
X150669736Y-95947547D01*
X150567312Y-96047849D01*
X150486320Y-96166134D01*
X150429846Y-96297898D01*
X150400041Y-96438122D01*
X150398039Y-96581464D01*
X142611000Y-96581464D01*
X142611000Y-96377250D01*
X142515750Y-96282000D01*
X141732000Y-96282000D01*
X141478000Y-96282000D01*
X140694250Y-96282000D01*
X140599000Y-96377250D01*
X131181000Y-96377250D01*
X131085750Y-96282000D01*
X130302000Y-96282000D01*
X130048000Y-96282000D01*
X129264250Y-96282000D01*
X129169000Y-96377250D01*
X125220024Y-96377250D01*
X125265020Y-96360411D01*
X125340477Y-96320078D01*
X125432495Y-96142100D01*
X124720000Y-95429605D01*
X124007505Y-96142100D01*
X124099523Y-96320078D01*
X124259669Y-96393000D01*
X123149807Y-96393000D01*
X123104162Y-96162480D01*
X123012167Y-95939284D01*
X122878572Y-95738208D01*
X122708465Y-95566909D01*
X122508326Y-95431913D01*
X122285778Y-95338363D01*
X122238198Y-95328596D01*
X123485544Y-95328596D01*
X123524598Y-95567917D01*
X123609589Y-95795020D01*
X123649922Y-95870477D01*
X123827900Y-95962495D01*
X124540395Y-95250000D01*
X124899605Y-95250000D01*
X125612100Y-95962495D01*
X125790078Y-95870477D01*
X125890566Y-95649793D01*
X125898165Y-95617475D01*
X129169000Y-95617475D01*
X129169000Y-95932750D01*
X129264250Y-96028000D01*
X130048000Y-96028000D01*
X130048000Y-95369250D01*
X130302000Y-95369250D01*
X130302000Y-96028000D01*
X131085750Y-96028000D01*
X131181000Y-95932750D01*
X131181000Y-95617475D01*
X140599000Y-95617475D01*
X140599000Y-95932750D01*
X140694250Y-96028000D01*
X141478000Y-96028000D01*
X141478000Y-95369250D01*
X141732000Y-95369250D01*
X141732000Y-96028000D01*
X142515750Y-96028000D01*
X142611000Y-95932750D01*
X142611000Y-95617475D01*
X142596358Y-95543867D01*
X142567638Y-95474529D01*
X142525942Y-95412127D01*
X142472874Y-95359058D01*
X142410471Y-95317362D01*
X142396232Y-95311464D01*
X155478039Y-95311464D01*
X155503918Y-95452466D01*
X155556691Y-95585755D01*
X155634348Y-95706256D01*
X155733932Y-95809378D01*
X155851649Y-95891194D01*
X155983016Y-95948586D01*
X156123028Y-95979370D01*
X156266353Y-95982372D01*
X156379629Y-95962399D01*
X156300945Y-96145982D01*
X156250753Y-96382118D01*
X156247382Y-96623506D01*
X156290962Y-96860951D01*
X156379831Y-97085410D01*
X156510606Y-97288332D01*
X156678304Y-97461989D01*
X156876539Y-97599766D01*
X157097760Y-97696415D01*
X157333540Y-97748255D01*
X157574898Y-97753310D01*
X157812642Y-97711390D01*
X158037716Y-97624089D01*
X158241546Y-97494735D01*
X158416370Y-97328253D01*
X158555527Y-97130984D01*
X158653718Y-96910444D01*
X158707202Y-96675032D01*
X158711053Y-96399294D01*
X158664162Y-96162480D01*
X158572167Y-95939284D01*
X158438572Y-95738208D01*
X158268465Y-95566909D01*
X158068326Y-95431913D01*
X157845778Y-95338363D01*
X157798198Y-95328596D01*
X159045544Y-95328596D01*
X159084598Y-95567917D01*
X159169589Y-95795020D01*
X159209922Y-95870477D01*
X159387900Y-95962495D01*
X160100395Y-95250000D01*
X159387900Y-94537505D01*
X159209922Y-94629523D01*
X159109434Y-94850207D01*
X159053931Y-95086255D01*
X159045544Y-95328596D01*
X157798198Y-95328596D01*
X157609297Y-95289820D01*
X157367891Y-95288135D01*
X157130756Y-95333371D01*
X156921513Y-95417910D01*
X156938745Y-95342062D01*
X156941031Y-95178322D01*
X156921441Y-95079383D01*
X157097760Y-95156415D01*
X157333540Y-95208255D01*
X157574898Y-95213310D01*
X157812642Y-95171390D01*
X158037716Y-95084089D01*
X158241546Y-94954735D01*
X158416370Y-94788253D01*
X158555527Y-94590984D01*
X158653718Y-94370444D01*
X158707202Y-94135032D01*
X158711053Y-93859294D01*
X158664162Y-93622480D01*
X158572167Y-93399284D01*
X158438572Y-93198208D01*
X158268465Y-93026909D01*
X158068326Y-92891913D01*
X157845778Y-92798363D01*
X157609297Y-92749820D01*
X157367891Y-92748135D01*
X157130756Y-92793371D01*
X156906923Y-92883805D01*
X156704919Y-93015993D01*
X156532437Y-93184900D01*
X156396047Y-93384092D01*
X156300945Y-93605982D01*
X156250753Y-93842118D01*
X156247382Y-94083506D01*
X156290962Y-94320951D01*
X156376891Y-94537984D01*
X156286780Y-94519487D01*
X156143427Y-94518486D01*
X156002610Y-94545348D01*
X155869692Y-94599051D01*
X155749736Y-94677547D01*
X155647312Y-94777849D01*
X155566320Y-94896134D01*
X155509846Y-95027898D01*
X155480041Y-95168122D01*
X155478039Y-95311464D01*
X142396232Y-95311464D01*
X142341134Y-95288642D01*
X142267525Y-95274000D01*
X141827250Y-95274000D01*
X141732000Y-95369250D01*
X141478000Y-95369250D01*
X141382750Y-95274000D01*
X140942475Y-95274000D01*
X140868866Y-95288642D01*
X140799529Y-95317362D01*
X140737126Y-95359058D01*
X140684058Y-95412127D01*
X140642362Y-95474529D01*
X140613642Y-95543867D01*
X140599000Y-95617475D01*
X131181000Y-95617475D01*
X131166358Y-95543867D01*
X131137638Y-95474529D01*
X131095942Y-95412127D01*
X131042874Y-95359058D01*
X130980471Y-95317362D01*
X130911134Y-95288642D01*
X130837525Y-95274000D01*
X130397250Y-95274000D01*
X130302000Y-95369250D01*
X130048000Y-95369250D01*
X129952750Y-95274000D01*
X129512475Y-95274000D01*
X129438866Y-95288642D01*
X129369529Y-95317362D01*
X129307126Y-95359058D01*
X129254058Y-95412127D01*
X129212362Y-95474529D01*
X129183642Y-95543867D01*
X129169000Y-95617475D01*
X125898165Y-95617475D01*
X125946069Y-95413745D01*
X125954456Y-95171404D01*
X125915402Y-94932083D01*
X125830411Y-94704980D01*
X125790078Y-94629523D01*
X125612100Y-94537505D01*
X124899605Y-95250000D01*
X124540395Y-95250000D01*
X123827900Y-94537505D01*
X123649922Y-94629523D01*
X123549434Y-94850207D01*
X123493931Y-95086255D01*
X123485544Y-95328596D01*
X122238198Y-95328596D01*
X122049297Y-95289820D01*
X122047000Y-95289804D01*
X122047000Y-95207650D01*
X122252642Y-95171390D01*
X122477716Y-95084089D01*
X122681546Y-94954735D01*
X122856370Y-94788253D01*
X122995527Y-94590984D01*
X123093718Y-94370444D01*
X123096567Y-94357900D01*
X124007505Y-94357900D01*
X124720000Y-95070395D01*
X125432495Y-94357900D01*
X125340477Y-94179922D01*
X125119793Y-94079434D01*
X124958311Y-94041464D01*
X135158039Y-94041464D01*
X135183918Y-94182466D01*
X135236691Y-94315755D01*
X135314348Y-94436256D01*
X135413932Y-94539378D01*
X135531649Y-94621194D01*
X135663016Y-94678586D01*
X135803028Y-94709370D01*
X135946353Y-94712372D01*
X136087532Y-94687479D01*
X136221186Y-94635637D01*
X136342226Y-94558823D01*
X136446041Y-94459962D01*
X136528676Y-94342819D01*
X136586985Y-94211856D01*
X136618745Y-94072062D01*
X136621031Y-93908322D01*
X136593187Y-93767695D01*
X136538558Y-93635156D01*
X136459225Y-93515751D01*
X136358212Y-93414030D01*
X136346995Y-93406464D01*
X140238039Y-93406464D01*
X140263918Y-93547466D01*
X140316691Y-93680755D01*
X140394348Y-93801256D01*
X140493932Y-93904378D01*
X140611649Y-93986194D01*
X140743016Y-94043586D01*
X140883028Y-94074370D01*
X141026353Y-94077372D01*
X141167532Y-94052479D01*
X141301186Y-94000637D01*
X141422226Y-93923823D01*
X141526041Y-93824962D01*
X141608676Y-93707819D01*
X141666985Y-93576856D01*
X141698745Y-93437062D01*
X141701031Y-93273322D01*
X141673187Y-93132695D01*
X141618558Y-93000156D01*
X141539225Y-92880751D01*
X141438212Y-92779030D01*
X141319364Y-92698866D01*
X141187209Y-92643313D01*
X141046780Y-92614487D01*
X140903427Y-92613486D01*
X140762610Y-92640348D01*
X140629692Y-92694051D01*
X140509736Y-92772547D01*
X140407312Y-92872849D01*
X140326320Y-92991134D01*
X140269846Y-93122898D01*
X140240041Y-93263122D01*
X140238039Y-93406464D01*
X136346995Y-93406464D01*
X136239364Y-93333866D01*
X136107209Y-93278313D01*
X135966780Y-93249487D01*
X135823427Y-93248486D01*
X135682610Y-93275348D01*
X135549692Y-93329051D01*
X135429736Y-93407547D01*
X135327312Y-93507849D01*
X135246320Y-93626134D01*
X135189846Y-93757898D01*
X135160041Y-93898122D01*
X135158039Y-94041464D01*
X124958311Y-94041464D01*
X124883745Y-94023931D01*
X124641404Y-94015544D01*
X124402083Y-94054598D01*
X124174980Y-94139589D01*
X124099523Y-94179922D01*
X124007505Y-94357900D01*
X123096567Y-94357900D01*
X123147202Y-94135032D01*
X123151053Y-93859294D01*
X123104162Y-93622480D01*
X123012167Y-93399284D01*
X122878572Y-93198208D01*
X122708465Y-93026909D01*
X122508326Y-92891913D01*
X122321802Y-92813506D01*
X123487382Y-92813506D01*
X123530962Y-93050951D01*
X123619831Y-93275410D01*
X123750606Y-93478332D01*
X123918304Y-93651989D01*
X124116539Y-93789766D01*
X124337760Y-93886415D01*
X124573540Y-93938255D01*
X124814898Y-93943310D01*
X125052642Y-93901390D01*
X125277716Y-93814089D01*
X125481546Y-93684735D01*
X125656370Y-93518253D01*
X125795527Y-93320984D01*
X125893718Y-93100444D01*
X125947202Y-92865032D01*
X125951053Y-92589294D01*
X125904162Y-92352480D01*
X125812167Y-92129284D01*
X125678572Y-91928208D01*
X125508465Y-91756909D01*
X125308326Y-91621913D01*
X125085778Y-91528363D01*
X124849297Y-91479820D01*
X124607891Y-91478135D01*
X124370756Y-91523371D01*
X124146923Y-91613805D01*
X123944919Y-91745993D01*
X123772437Y-91914900D01*
X123636047Y-92114092D01*
X123540945Y-92335982D01*
X123490753Y-92572118D01*
X123487382Y-92813506D01*
X122321802Y-92813506D01*
X122285778Y-92798363D01*
X122049297Y-92749820D01*
X122047000Y-92749804D01*
X122047000Y-92667650D01*
X122252642Y-92631390D01*
X122477716Y-92544089D01*
X122681546Y-92414735D01*
X122856370Y-92248253D01*
X122995527Y-92050984D01*
X123093718Y-91830444D01*
X123147202Y-91595032D01*
X123151053Y-91319294D01*
X123104162Y-91082480D01*
X123012167Y-90859284D01*
X122878572Y-90658208D01*
X122708465Y-90486909D01*
X122508326Y-90351913D01*
X122321802Y-90273506D01*
X123487382Y-90273506D01*
X123530962Y-90510951D01*
X123619831Y-90735410D01*
X123750606Y-90938332D01*
X123918304Y-91111989D01*
X124116539Y-91249766D01*
X124337760Y-91346415D01*
X124573540Y-91398255D01*
X124814898Y-91403310D01*
X125052642Y-91361390D01*
X125277716Y-91274089D01*
X125481546Y-91144735D01*
X125656370Y-90978253D01*
X125795527Y-90780984D01*
X125844940Y-90670000D01*
X128532157Y-90670000D01*
X128532157Y-91670000D01*
X128539513Y-91744689D01*
X128561299Y-91816508D01*
X128596678Y-91882696D01*
X128644289Y-91940711D01*
X128702304Y-91988322D01*
X128768492Y-92023701D01*
X128840311Y-92045487D01*
X128915000Y-92052843D01*
X129683343Y-92052843D01*
X130257749Y-92627250D01*
X130375533Y-92723999D01*
X130509866Y-92796027D01*
X130655630Y-92840591D01*
X130807273Y-92855995D01*
X130959021Y-92841651D01*
X131105093Y-92798105D01*
X131239925Y-92727016D01*
X131358382Y-92631092D01*
X131455950Y-92513987D01*
X131528915Y-92380161D01*
X131574495Y-92234711D01*
X131590957Y-92083178D01*
X131577672Y-91931333D01*
X131535148Y-91784962D01*
X131465001Y-91649637D01*
X131380280Y-91543506D01*
X156247382Y-91543506D01*
X156290962Y-91780951D01*
X156379831Y-92005410D01*
X156510606Y-92208332D01*
X156678304Y-92381989D01*
X156876539Y-92519766D01*
X157097760Y-92616415D01*
X157333540Y-92668255D01*
X157574898Y-92673310D01*
X157812642Y-92631390D01*
X158037716Y-92544089D01*
X158241546Y-92414735D01*
X158416370Y-92248253D01*
X158555527Y-92050984D01*
X158653718Y-91830444D01*
X158707202Y-91595032D01*
X158711053Y-91319294D01*
X158664162Y-91082480D01*
X158572167Y-90859284D01*
X158438572Y-90658208D01*
X158268465Y-90486909D01*
X158068326Y-90351913D01*
X157845778Y-90258363D01*
X157609297Y-90209820D01*
X157367891Y-90208135D01*
X157130756Y-90253371D01*
X156906923Y-90343805D01*
X156704919Y-90475993D01*
X156532437Y-90644900D01*
X156396047Y-90844092D01*
X156300945Y-91065982D01*
X156250753Y-91302118D01*
X156247382Y-91543506D01*
X131380280Y-91543506D01*
X131369907Y-91530513D01*
X131362250Y-91522749D01*
X130547843Y-90708343D01*
X130547843Y-90670000D01*
X130540487Y-90595311D01*
X130518701Y-90523492D01*
X130483322Y-90457304D01*
X130435711Y-90399289D01*
X130377696Y-90351678D01*
X130311508Y-90316299D01*
X130239689Y-90294513D01*
X130165000Y-90287157D01*
X128915000Y-90287157D01*
X128840311Y-90294513D01*
X128768492Y-90316299D01*
X128702304Y-90351678D01*
X128644289Y-90399289D01*
X128596678Y-90457304D01*
X128561299Y-90523492D01*
X128539513Y-90595311D01*
X128532157Y-90670000D01*
X125844940Y-90670000D01*
X125893718Y-90560444D01*
X125947202Y-90325032D01*
X125951053Y-90049294D01*
X125904162Y-89812480D01*
X125812167Y-89589284D01*
X125681258Y-89392250D01*
X128534000Y-89392250D01*
X128534000Y-89707525D01*
X128548642Y-89781133D01*
X128577362Y-89850471D01*
X128619058Y-89912873D01*
X128672126Y-89965942D01*
X128734529Y-90007638D01*
X128803866Y-90036358D01*
X128877475Y-90051000D01*
X129317750Y-90051000D01*
X129413000Y-89955750D01*
X129413000Y-89297000D01*
X129667000Y-89297000D01*
X129667000Y-89955750D01*
X129762250Y-90051000D01*
X130202525Y-90051000D01*
X130276134Y-90036358D01*
X130345471Y-90007638D01*
X130407874Y-89965942D01*
X130460942Y-89912873D01*
X130502638Y-89850471D01*
X130526815Y-89792100D01*
X156767505Y-89792100D01*
X156859523Y-89970078D01*
X157080207Y-90070566D01*
X157316255Y-90126069D01*
X157558596Y-90134456D01*
X157797917Y-90095402D01*
X158025020Y-90010411D01*
X158100477Y-89970078D01*
X158192495Y-89792100D01*
X157480000Y-89079605D01*
X156767505Y-89792100D01*
X130526815Y-89792100D01*
X130531358Y-89781133D01*
X130546000Y-89707525D01*
X130546000Y-89392250D01*
X130450750Y-89297000D01*
X129667000Y-89297000D01*
X129413000Y-89297000D01*
X128629250Y-89297000D01*
X128534000Y-89392250D01*
X125681258Y-89392250D01*
X125678572Y-89388208D01*
X125508465Y-89216909D01*
X125308326Y-89081913D01*
X125085778Y-88988363D01*
X124849297Y-88939820D01*
X124607891Y-88938135D01*
X124370756Y-88983371D01*
X124146923Y-89073805D01*
X123944919Y-89205993D01*
X123772437Y-89374900D01*
X123636047Y-89574092D01*
X123540945Y-89795982D01*
X123490753Y-90032118D01*
X123487382Y-90273506D01*
X122321802Y-90273506D01*
X122285778Y-90258363D01*
X122049297Y-90209820D01*
X122047000Y-90209804D01*
X122047000Y-90126557D01*
X122237917Y-90095402D01*
X122465020Y-90010411D01*
X122540477Y-89970078D01*
X122632495Y-89792100D01*
X122047000Y-89206605D01*
X122047000Y-88900000D01*
X122099605Y-88900000D01*
X122812100Y-89612495D01*
X122990078Y-89520477D01*
X123090566Y-89299793D01*
X123146069Y-89063745D01*
X123154456Y-88821404D01*
X123115402Y-88582083D01*
X123030411Y-88354980D01*
X122990078Y-88279523D01*
X122812100Y-88187505D01*
X122099605Y-88900000D01*
X122047000Y-88900000D01*
X122047000Y-88593395D01*
X122632495Y-88007900D01*
X122540477Y-87829922D01*
X122380331Y-87757000D01*
X123491694Y-87757000D01*
X123530962Y-87970951D01*
X123619831Y-88195410D01*
X123750606Y-88398332D01*
X123918304Y-88571989D01*
X124116539Y-88709766D01*
X124337760Y-88806415D01*
X124573540Y-88858255D01*
X124814898Y-88863310D01*
X125052642Y-88821390D01*
X125277716Y-88734089D01*
X125437834Y-88632475D01*
X128534000Y-88632475D01*
X128534000Y-88947750D01*
X128629250Y-89043000D01*
X129413000Y-89043000D01*
X129413000Y-88384250D01*
X129667000Y-88384250D01*
X129667000Y-89043000D01*
X130450750Y-89043000D01*
X130515154Y-88978596D01*
X156245544Y-88978596D01*
X156284598Y-89217917D01*
X156369589Y-89445020D01*
X156409922Y-89520477D01*
X156587900Y-89612495D01*
X157300395Y-88900000D01*
X157659605Y-88900000D01*
X158372100Y-89612495D01*
X158550078Y-89520477D01*
X158650566Y-89299793D01*
X158706069Y-89063745D01*
X158714456Y-88821404D01*
X158675402Y-88582083D01*
X158590411Y-88354980D01*
X158550078Y-88279523D01*
X158372100Y-88187505D01*
X157659605Y-88900000D01*
X157300395Y-88900000D01*
X156587900Y-88187505D01*
X156409922Y-88279523D01*
X156309434Y-88500207D01*
X156253931Y-88736255D01*
X156245544Y-88978596D01*
X130515154Y-88978596D01*
X130546000Y-88947750D01*
X130546000Y-88632475D01*
X130531358Y-88558867D01*
X130502638Y-88489529D01*
X130460942Y-88427127D01*
X130407874Y-88374058D01*
X130345471Y-88332362D01*
X130276134Y-88303642D01*
X130202525Y-88289000D01*
X129762250Y-88289000D01*
X129667000Y-88384250D01*
X129413000Y-88384250D01*
X129317750Y-88289000D01*
X128877475Y-88289000D01*
X128803866Y-88303642D01*
X128734529Y-88332362D01*
X128672126Y-88374058D01*
X128619058Y-88427127D01*
X128577362Y-88489529D01*
X128548642Y-88558867D01*
X128534000Y-88632475D01*
X125437834Y-88632475D01*
X125481546Y-88604735D01*
X125656370Y-88438253D01*
X125795527Y-88240984D01*
X125893718Y-88020444D01*
X125947202Y-87785032D01*
X125947593Y-87757000D01*
X142240000Y-87757000D01*
X142264776Y-87754560D01*
X142288601Y-87747333D01*
X142310557Y-87735597D01*
X142329803Y-87719803D01*
X142345597Y-87700557D01*
X142357333Y-87678601D01*
X142364560Y-87654776D01*
X142367000Y-87630000D01*
X142367000Y-80137000D01*
X146558000Y-80137000D01*
X146558000Y-88265000D01*
X146558000Y-88265000D01*
G37*
X146558000Y-88265000D02*
X146560440Y-88289776D01*
X146567667Y-88313601D01*
X146579403Y-88335557D01*
X146595197Y-88354803D01*
X146614443Y-88370597D01*
X146636399Y-88382333D01*
X146660224Y-88389560D01*
X146685000Y-88392000D01*
X155575000Y-88392000D01*
X155599776Y-88389560D01*
X155623601Y-88382333D01*
X155645557Y-88370597D01*
X155664803Y-88354803D01*
X155680597Y-88335557D01*
X155692333Y-88313601D01*
X155699560Y-88289776D01*
X155702000Y-88265000D01*
X155702000Y-87757000D01*
X157022061Y-87757000D01*
X156934980Y-87789589D01*
X156859523Y-87829922D01*
X156767505Y-88007900D01*
X157480000Y-88720395D01*
X158192495Y-88007900D01*
X158100477Y-87829922D01*
X157940331Y-87757000D01*
X159051694Y-87757000D01*
X159090962Y-87970951D01*
X159179831Y-88195410D01*
X159258000Y-88316704D01*
X159258000Y-89483612D01*
X159196047Y-89574092D01*
X159100945Y-89795982D01*
X159050753Y-90032118D01*
X159047382Y-90273506D01*
X159090962Y-90510951D01*
X159179831Y-90735410D01*
X159258000Y-90856704D01*
X159258000Y-92023612D01*
X159196047Y-92114092D01*
X159100945Y-92335982D01*
X159050753Y-92572118D01*
X159047382Y-92813506D01*
X159090962Y-93050951D01*
X159179831Y-93275410D01*
X159258000Y-93396704D01*
X159258000Y-93980000D01*
X159260440Y-94004776D01*
X159267667Y-94028601D01*
X159279403Y-94050557D01*
X159295197Y-94069803D01*
X159314443Y-94085597D01*
X159336399Y-94097333D01*
X159360224Y-94104560D01*
X159385000Y-94107000D01*
X159822061Y-94107000D01*
X159734980Y-94139589D01*
X159659523Y-94179922D01*
X159567505Y-94357900D01*
X160280000Y-95070395D01*
X160294143Y-95056253D01*
X160473748Y-95235858D01*
X160459605Y-95250000D01*
X160473748Y-95264143D01*
X160294143Y-95443748D01*
X160280000Y-95429605D01*
X159567505Y-96142100D01*
X159659523Y-96320078D01*
X159819669Y-96393000D01*
X159385000Y-96393000D01*
X159360224Y-96395440D01*
X159336399Y-96402667D01*
X159314443Y-96414403D01*
X159295197Y-96430197D01*
X159279403Y-96449443D01*
X159267667Y-96471399D01*
X159260440Y-96495224D01*
X159258000Y-96520000D01*
X159258000Y-97103612D01*
X159196047Y-97194092D01*
X159100945Y-97415982D01*
X159050753Y-97652118D01*
X159047382Y-97893506D01*
X159090962Y-98130951D01*
X159179831Y-98355410D01*
X159258000Y-98476704D01*
X159258000Y-99643612D01*
X159196047Y-99734092D01*
X159100945Y-99955982D01*
X159050753Y-100192118D01*
X159047382Y-100433506D01*
X159090962Y-100670951D01*
X159179831Y-100895410D01*
X159258000Y-101016704D01*
X159258000Y-102183612D01*
X159196047Y-102274092D01*
X159100945Y-102495982D01*
X159050753Y-102732118D01*
X159047382Y-102973506D01*
X159090962Y-103210951D01*
X159179831Y-103435410D01*
X159258000Y-103556704D01*
X159258000Y-104723612D01*
X159196047Y-104814092D01*
X159100945Y-105035982D01*
X159050753Y-105272118D01*
X159047382Y-105513506D01*
X159090962Y-105750951D01*
X159179831Y-105975410D01*
X159258000Y-106096704D01*
X159258000Y-107263612D01*
X159196047Y-107354092D01*
X159100945Y-107575982D01*
X159050753Y-107812118D01*
X159047382Y-108053506D01*
X159090962Y-108290951D01*
X159179831Y-108515410D01*
X159258000Y-108636704D01*
X159258000Y-109803612D01*
X159196047Y-109894092D01*
X159100945Y-110115982D01*
X159050753Y-110352118D01*
X159047382Y-110593506D01*
X159090962Y-110830951D01*
X159179831Y-111055410D01*
X159258000Y-111176704D01*
X159258000Y-111760000D01*
X159260440Y-111784776D01*
X159267667Y-111808601D01*
X159279403Y-111830557D01*
X159295197Y-111849803D01*
X159314443Y-111865597D01*
X159336399Y-111877333D01*
X159360224Y-111884560D01*
X159385000Y-111887000D01*
X159822061Y-111887000D01*
X159734980Y-111919589D01*
X159659523Y-111959922D01*
X159567505Y-112137900D01*
X160280000Y-112850395D01*
X160294143Y-112836253D01*
X160473748Y-113015858D01*
X160459605Y-113030000D01*
X160473748Y-113044143D01*
X160294143Y-113223748D01*
X160280000Y-113209605D01*
X159567505Y-113922100D01*
X159659523Y-114100078D01*
X159819669Y-114173000D01*
X158709807Y-114173000D01*
X158664162Y-113942480D01*
X158572167Y-113719284D01*
X158438572Y-113518208D01*
X158268465Y-113346909D01*
X158068326Y-113211913D01*
X157845778Y-113118363D01*
X157798198Y-113108596D01*
X159045544Y-113108596D01*
X159084598Y-113347917D01*
X159169589Y-113575020D01*
X159209922Y-113650477D01*
X159387900Y-113742495D01*
X160100395Y-113030000D01*
X159387900Y-112317505D01*
X159209922Y-112409523D01*
X159109434Y-112630207D01*
X159053931Y-112866255D01*
X159045544Y-113108596D01*
X157798198Y-113108596D01*
X157609297Y-113069820D01*
X157367891Y-113068135D01*
X157130756Y-113113371D01*
X156906923Y-113203805D01*
X156704919Y-113335993D01*
X156532437Y-113504900D01*
X156396047Y-113704092D01*
X156300945Y-113925982D01*
X156250753Y-114162118D01*
X156250601Y-114173000D01*
X153588237Y-114173000D01*
X152494345Y-113079109D01*
X152496031Y-112958322D01*
X152468187Y-112817695D01*
X152413558Y-112685156D01*
X152334225Y-112565751D01*
X152233212Y-112464030D01*
X152114364Y-112383866D01*
X151982209Y-112328313D01*
X151841780Y-112299487D01*
X151698427Y-112298486D01*
X151611000Y-112315163D01*
X151611000Y-112311422D01*
X151686041Y-112239962D01*
X151768676Y-112122819D01*
X151826985Y-111991856D01*
X151856145Y-111863506D01*
X156247382Y-111863506D01*
X156290962Y-112100951D01*
X156379831Y-112325410D01*
X156510606Y-112528332D01*
X156678304Y-112701989D01*
X156876539Y-112839766D01*
X157097760Y-112936415D01*
X157333540Y-112988255D01*
X157574898Y-112993310D01*
X157812642Y-112951390D01*
X158037716Y-112864089D01*
X158241546Y-112734735D01*
X158416370Y-112568253D01*
X158555527Y-112370984D01*
X158653718Y-112150444D01*
X158707202Y-111915032D01*
X158711053Y-111639294D01*
X158664162Y-111402480D01*
X158572167Y-111179284D01*
X158438572Y-110978208D01*
X158268465Y-110806909D01*
X158068326Y-110671913D01*
X157845778Y-110578363D01*
X157609297Y-110529820D01*
X157367891Y-110528135D01*
X157130756Y-110573371D01*
X156906923Y-110663805D01*
X156704919Y-110795993D01*
X156532437Y-110964900D01*
X156396047Y-111164092D01*
X156300945Y-111385982D01*
X156250753Y-111622118D01*
X156247382Y-111863506D01*
X151856145Y-111863506D01*
X151858745Y-111852062D01*
X151861031Y-111688322D01*
X151833187Y-111547695D01*
X151778558Y-111415156D01*
X151699225Y-111295751D01*
X151598212Y-111194030D01*
X151479364Y-111113866D01*
X151347209Y-111058313D01*
X151206780Y-111029487D01*
X151063427Y-111028486D01*
X150976000Y-111045163D01*
X150976000Y-111041422D01*
X151051041Y-110969962D01*
X151133676Y-110852819D01*
X151191985Y-110721856D01*
X151223745Y-110582062D01*
X151226031Y-110418322D01*
X151198187Y-110277695D01*
X151143558Y-110145156D01*
X151064225Y-110025751D01*
X150963212Y-109924030D01*
X150844364Y-109843866D01*
X150712209Y-109788313D01*
X150571780Y-109759487D01*
X150428427Y-109758486D01*
X150341000Y-109775163D01*
X150341000Y-109771422D01*
X150416041Y-109699962D01*
X150498676Y-109582819D01*
X150556985Y-109451856D01*
X150586145Y-109323506D01*
X156247382Y-109323506D01*
X156290962Y-109560951D01*
X156379831Y-109785410D01*
X156510606Y-109988332D01*
X156678304Y-110161989D01*
X156876539Y-110299766D01*
X157097760Y-110396415D01*
X157333540Y-110448255D01*
X157574898Y-110453310D01*
X157812642Y-110411390D01*
X158037716Y-110324089D01*
X158241546Y-110194735D01*
X158416370Y-110028253D01*
X158555527Y-109830984D01*
X158653718Y-109610444D01*
X158707202Y-109375032D01*
X158711053Y-109099294D01*
X158664162Y-108862480D01*
X158572167Y-108639284D01*
X158438572Y-108438208D01*
X158268465Y-108266909D01*
X158068326Y-108131913D01*
X157845778Y-108038363D01*
X157609297Y-107989820D01*
X157367891Y-107988135D01*
X157130756Y-108033371D01*
X156906923Y-108123805D01*
X156704919Y-108255993D01*
X156532437Y-108424900D01*
X156396047Y-108624092D01*
X156300945Y-108845982D01*
X156250753Y-109082118D01*
X156247382Y-109323506D01*
X150586145Y-109323506D01*
X150588745Y-109312062D01*
X150591031Y-109148322D01*
X150563187Y-109007695D01*
X150508558Y-108875156D01*
X150429225Y-108755751D01*
X150328212Y-108654030D01*
X150209364Y-108573866D01*
X150077209Y-108518313D01*
X149936780Y-108489487D01*
X149793427Y-108488486D01*
X149706000Y-108505163D01*
X149706000Y-108501422D01*
X149781041Y-108429962D01*
X149863676Y-108312819D01*
X149921985Y-108181856D01*
X149953745Y-108042062D01*
X149956031Y-107878322D01*
X149928187Y-107737695D01*
X149873558Y-107605156D01*
X149794225Y-107485751D01*
X149693212Y-107384030D01*
X149574364Y-107303866D01*
X149442209Y-107248313D01*
X149301780Y-107219487D01*
X149158427Y-107218486D01*
X149071000Y-107235163D01*
X149071000Y-106783506D01*
X156247382Y-106783506D01*
X156290962Y-107020951D01*
X156379831Y-107245410D01*
X156510606Y-107448332D01*
X156678304Y-107621989D01*
X156876539Y-107759766D01*
X157097760Y-107856415D01*
X157333540Y-107908255D01*
X157574898Y-107913310D01*
X157812642Y-107871390D01*
X158037716Y-107784089D01*
X158241546Y-107654735D01*
X158416370Y-107488253D01*
X158555527Y-107290984D01*
X158653718Y-107070444D01*
X158707202Y-106835032D01*
X158711053Y-106559294D01*
X158664162Y-106322480D01*
X158572167Y-106099284D01*
X158438572Y-105898208D01*
X158268465Y-105726909D01*
X158068326Y-105591913D01*
X157845778Y-105498363D01*
X157609297Y-105449820D01*
X157367891Y-105448135D01*
X157130756Y-105493371D01*
X156906923Y-105583805D01*
X156704919Y-105715993D01*
X156532437Y-105884900D01*
X156396047Y-106084092D01*
X156300945Y-106305982D01*
X156250753Y-106542118D01*
X156247382Y-106783506D01*
X149071000Y-106783506D01*
X149071000Y-105961422D01*
X149146041Y-105889962D01*
X149228676Y-105772819D01*
X149286985Y-105641856D01*
X149318745Y-105502062D01*
X149321031Y-105338322D01*
X149293187Y-105197695D01*
X149238558Y-105065156D01*
X149159225Y-104945751D01*
X149058212Y-104844030D01*
X148939364Y-104763866D01*
X148807209Y-104708313D01*
X148666780Y-104679487D01*
X148523427Y-104678486D01*
X148382610Y-104705348D01*
X148249692Y-104759051D01*
X148129736Y-104837547D01*
X148027312Y-104937849D01*
X147946320Y-105056134D01*
X147889846Y-105187898D01*
X147860041Y-105328122D01*
X147858039Y-105471464D01*
X147883918Y-105612466D01*
X147936691Y-105745755D01*
X148014348Y-105866256D01*
X148109000Y-105964271D01*
X148109000Y-114173000D01*
X144780000Y-114173000D01*
X144755224Y-114175440D01*
X144731399Y-114182667D01*
X144709443Y-114194403D01*
X144690197Y-114210197D01*
X144674403Y-114229443D01*
X144662667Y-114251399D01*
X144655440Y-114275224D01*
X144653000Y-114300000D01*
X144653000Y-117983000D01*
X141097000Y-117983000D01*
X141097000Y-105410000D01*
X141094560Y-105385224D01*
X141087333Y-105361399D01*
X141075597Y-105339443D01*
X141059803Y-105320197D01*
X141040557Y-105304403D01*
X141018601Y-105292667D01*
X140994776Y-105285440D01*
X140970000Y-105283000D01*
X135736000Y-105283000D01*
X135736000Y-104243506D01*
X156247382Y-104243506D01*
X156290962Y-104480951D01*
X156379831Y-104705410D01*
X156510606Y-104908332D01*
X156678304Y-105081989D01*
X156876539Y-105219766D01*
X157097760Y-105316415D01*
X157333540Y-105368255D01*
X157574898Y-105373310D01*
X157812642Y-105331390D01*
X158037716Y-105244089D01*
X158241546Y-105114735D01*
X158416370Y-104948253D01*
X158555527Y-104750984D01*
X158653718Y-104530444D01*
X158707202Y-104295032D01*
X158711053Y-104019294D01*
X158664162Y-103782480D01*
X158572167Y-103559284D01*
X158438572Y-103358208D01*
X158268465Y-103186909D01*
X158068326Y-103051913D01*
X157845778Y-102958363D01*
X157609297Y-102909820D01*
X157367891Y-102908135D01*
X157130756Y-102953371D01*
X156906923Y-103043805D01*
X156704919Y-103175993D01*
X156532437Y-103344900D01*
X156396047Y-103544092D01*
X156300945Y-103765982D01*
X156250753Y-104002118D01*
X156247382Y-104243506D01*
X135736000Y-104243506D01*
X135736000Y-103505000D01*
X135731664Y-103460777D01*
X135727792Y-103416519D01*
X135727086Y-103414087D01*
X135726839Y-103411573D01*
X135713991Y-103369016D01*
X135701601Y-103326372D01*
X135700439Y-103324131D01*
X135699707Y-103321705D01*
X135678837Y-103282456D01*
X135658401Y-103243029D01*
X135656821Y-103241050D01*
X135655635Y-103238819D01*
X135627549Y-103204381D01*
X135599834Y-103169664D01*
X135596365Y-103166145D01*
X135596304Y-103166071D01*
X135596235Y-103166014D01*
X135595118Y-103164881D01*
X134714345Y-102284108D01*
X134716031Y-102163322D01*
X134688187Y-102022695D01*
X134633558Y-101890156D01*
X134554225Y-101770751D01*
X134453212Y-101669030D01*
X134441995Y-101661464D01*
X135158039Y-101661464D01*
X135183918Y-101802466D01*
X135236691Y-101935755D01*
X135314348Y-102056256D01*
X135413932Y-102159378D01*
X135531649Y-102241194D01*
X135663016Y-102298586D01*
X135803028Y-102329370D01*
X135946353Y-102332372D01*
X136087532Y-102307479D01*
X136115929Y-102296464D01*
X140238039Y-102296464D01*
X140263918Y-102437466D01*
X140316691Y-102570755D01*
X140394348Y-102691256D01*
X140493932Y-102794378D01*
X140611649Y-102876194D01*
X140743016Y-102933586D01*
X140883028Y-102964370D01*
X141026353Y-102967372D01*
X141167532Y-102942479D01*
X141301186Y-102890637D01*
X141422226Y-102813823D01*
X141526041Y-102714962D01*
X141608676Y-102597819D01*
X141666985Y-102466856D01*
X141698745Y-102327062D01*
X141701031Y-102163322D01*
X141673187Y-102022695D01*
X141618558Y-101890156D01*
X141539225Y-101770751D01*
X141438212Y-101669030D01*
X141426995Y-101661464D01*
X147858039Y-101661464D01*
X147883918Y-101802466D01*
X147936691Y-101935755D01*
X148014348Y-102056256D01*
X148113932Y-102159378D01*
X148231649Y-102241194D01*
X148363016Y-102298586D01*
X148503028Y-102329370D01*
X148646353Y-102332372D01*
X148787532Y-102307479D01*
X148921186Y-102255637D01*
X149042226Y-102178823D01*
X149146041Y-102079962D01*
X149228676Y-101962819D01*
X149286985Y-101831856D01*
X149316145Y-101703506D01*
X156247382Y-101703506D01*
X156290962Y-101940951D01*
X156379831Y-102165410D01*
X156510606Y-102368332D01*
X156678304Y-102541989D01*
X156876539Y-102679766D01*
X157097760Y-102776415D01*
X157333540Y-102828255D01*
X157574898Y-102833310D01*
X157812642Y-102791390D01*
X158037716Y-102704089D01*
X158241546Y-102574735D01*
X158416370Y-102408253D01*
X158555527Y-102210984D01*
X158653718Y-101990444D01*
X158707202Y-101755032D01*
X158711053Y-101479294D01*
X158664162Y-101242480D01*
X158572167Y-101019284D01*
X158438572Y-100818208D01*
X158268465Y-100646909D01*
X158068326Y-100511913D01*
X157845778Y-100418363D01*
X157609297Y-100369820D01*
X157367891Y-100368135D01*
X157130756Y-100413371D01*
X156906923Y-100503805D01*
X156704919Y-100635993D01*
X156532437Y-100804900D01*
X156396047Y-101004092D01*
X156300945Y-101225982D01*
X156250753Y-101462118D01*
X156247382Y-101703506D01*
X149316145Y-101703506D01*
X149318745Y-101692062D01*
X149321031Y-101528322D01*
X149293187Y-101387695D01*
X149238558Y-101255156D01*
X149159225Y-101135751D01*
X149058212Y-101034030D01*
X148939364Y-100953866D01*
X148807209Y-100898313D01*
X148666780Y-100869487D01*
X148523427Y-100868486D01*
X148382610Y-100895348D01*
X148249692Y-100949051D01*
X148129736Y-101027547D01*
X148027312Y-101127849D01*
X147946320Y-101246134D01*
X147889846Y-101377898D01*
X147860041Y-101518122D01*
X147858039Y-101661464D01*
X141426995Y-101661464D01*
X141319364Y-101588866D01*
X141187209Y-101533313D01*
X141046780Y-101504487D01*
X140903427Y-101503486D01*
X140762610Y-101530348D01*
X140629692Y-101584051D01*
X140509736Y-101662547D01*
X140407312Y-101762849D01*
X140326320Y-101881134D01*
X140269846Y-102012898D01*
X140240041Y-102153122D01*
X140238039Y-102296464D01*
X136115929Y-102296464D01*
X136221186Y-102255637D01*
X136342226Y-102178823D01*
X136446041Y-102079962D01*
X136528676Y-101962819D01*
X136586985Y-101831856D01*
X136618745Y-101692062D01*
X136621031Y-101528322D01*
X136593187Y-101387695D01*
X136538558Y-101255156D01*
X136459225Y-101135751D01*
X136358212Y-101034030D01*
X136239364Y-100953866D01*
X136107209Y-100898313D01*
X135966780Y-100869487D01*
X135823427Y-100868486D01*
X135682610Y-100895348D01*
X135549692Y-100949051D01*
X135429736Y-101027547D01*
X135327312Y-101127849D01*
X135246320Y-101246134D01*
X135189846Y-101377898D01*
X135160041Y-101518122D01*
X135158039Y-101661464D01*
X134441995Y-101661464D01*
X134334364Y-101588866D01*
X134202209Y-101533313D01*
X134061780Y-101504487D01*
X133918427Y-101503486D01*
X133777610Y-101530348D01*
X133644692Y-101584051D01*
X133524736Y-101662547D01*
X133422312Y-101762849D01*
X133341320Y-101881134D01*
X133284846Y-102012898D01*
X133255041Y-102153122D01*
X133253039Y-102296464D01*
X133270574Y-102392004D01*
X133183212Y-102304030D01*
X133064364Y-102223866D01*
X132932209Y-102168313D01*
X132791780Y-102139487D01*
X132648427Y-102138486D01*
X132507610Y-102165348D01*
X132374692Y-102219051D01*
X132254736Y-102297547D01*
X132152312Y-102397849D01*
X132071320Y-102516134D01*
X132014846Y-102647898D01*
X131985041Y-102788122D01*
X131983039Y-102931464D01*
X132008918Y-103072466D01*
X132061691Y-103205755D01*
X132139348Y-103326256D01*
X132234000Y-103424271D01*
X132234000Y-107188715D01*
X131926000Y-107535215D01*
X131926000Y-104691422D01*
X132001041Y-104619962D01*
X132083676Y-104502819D01*
X132141985Y-104371856D01*
X132173745Y-104232062D01*
X132176031Y-104068322D01*
X132148187Y-103927695D01*
X132093558Y-103795156D01*
X132014225Y-103675751D01*
X131913212Y-103574030D01*
X131794364Y-103493866D01*
X131662209Y-103438313D01*
X131521780Y-103409487D01*
X131378427Y-103408486D01*
X131237610Y-103435348D01*
X131104692Y-103489051D01*
X130984736Y-103567547D01*
X130882312Y-103667849D01*
X130801320Y-103786134D01*
X130744846Y-103917898D01*
X130715041Y-104058122D01*
X130713039Y-104201464D01*
X130738918Y-104342466D01*
X130791691Y-104475755D01*
X130869348Y-104596256D01*
X130964000Y-104694271D01*
X130964000Y-108385763D01*
X128564882Y-110784882D01*
X128536711Y-110819178D01*
X128508120Y-110853251D01*
X128506900Y-110855471D01*
X128505297Y-110857422D01*
X128484320Y-110896543D01*
X128462896Y-110935514D01*
X128462131Y-110937925D01*
X128460936Y-110940154D01*
X128447955Y-110982615D01*
X128434511Y-111024994D01*
X128434229Y-111027511D01*
X128433490Y-111029927D01*
X128429002Y-111074107D01*
X128424047Y-111118284D01*
X128424012Y-111123228D01*
X128424003Y-111123321D01*
X128424011Y-111123407D01*
X128424000Y-111125000D01*
X128424000Y-116713000D01*
X125177398Y-116713000D01*
X125277716Y-116674089D01*
X125481546Y-116544735D01*
X125656370Y-116378253D01*
X125795527Y-116180984D01*
X125893718Y-115960444D01*
X125947202Y-115725032D01*
X125951053Y-115449294D01*
X125904162Y-115212480D01*
X125812167Y-114989284D01*
X125678572Y-114788208D01*
X125508465Y-114616909D01*
X125308326Y-114481913D01*
X125085778Y-114388363D01*
X124849297Y-114339820D01*
X124607891Y-114338135D01*
X124370756Y-114383371D01*
X124146923Y-114473805D01*
X123952000Y-114601359D01*
X123952000Y-113977608D01*
X124007506Y-113922102D01*
X124099523Y-114100078D01*
X124320207Y-114200566D01*
X124556255Y-114256069D01*
X124798596Y-114264456D01*
X125037917Y-114225402D01*
X125265020Y-114140411D01*
X125340477Y-114100078D01*
X125432495Y-113922100D01*
X124720000Y-113209605D01*
X124705858Y-113223748D01*
X124526253Y-113044143D01*
X124540395Y-113030000D01*
X124899605Y-113030000D01*
X125612100Y-113742495D01*
X125790078Y-113650477D01*
X125890566Y-113429793D01*
X125946069Y-113193745D01*
X125954456Y-112951404D01*
X125915402Y-112712083D01*
X125830411Y-112484980D01*
X125790078Y-112409523D01*
X125612100Y-112317505D01*
X124899605Y-113030000D01*
X124540395Y-113030000D01*
X124526253Y-113015858D01*
X124705858Y-112836253D01*
X124720000Y-112850395D01*
X125432495Y-112137900D01*
X125340477Y-111959922D01*
X125119793Y-111859434D01*
X124883745Y-111803931D01*
X124641404Y-111795544D01*
X124402083Y-111834598D01*
X124174980Y-111919589D01*
X124099523Y-111959922D01*
X124007506Y-112137898D01*
X123952000Y-112082392D01*
X123952000Y-111455408D01*
X124116539Y-111569766D01*
X124337760Y-111666415D01*
X124573540Y-111718255D01*
X124814898Y-111723310D01*
X125052642Y-111681390D01*
X125277716Y-111594089D01*
X125481546Y-111464735D01*
X125656370Y-111298253D01*
X125688998Y-111252000D01*
X125730000Y-111252000D01*
X125754776Y-111249560D01*
X125778601Y-111242333D01*
X125800557Y-111230597D01*
X125819803Y-111214803D01*
X125835597Y-111195557D01*
X125847333Y-111173601D01*
X125854560Y-111149776D01*
X125857000Y-111125000D01*
X125857000Y-110962914D01*
X125893718Y-110880444D01*
X125947202Y-110645032D01*
X125951053Y-110369294D01*
X125904162Y-110132480D01*
X125857000Y-110018057D01*
X125857000Y-108422914D01*
X125893718Y-108340444D01*
X125947202Y-108105032D01*
X125951053Y-107829294D01*
X125904162Y-107592480D01*
X125857000Y-107478057D01*
X125857000Y-105882914D01*
X125893718Y-105800444D01*
X125947202Y-105565032D01*
X125951053Y-105289294D01*
X125904162Y-105052480D01*
X125857000Y-104938057D01*
X125857000Y-103342914D01*
X125893718Y-103260444D01*
X125947202Y-103025032D01*
X125951053Y-102749294D01*
X125904162Y-102512480D01*
X125857000Y-102398057D01*
X125857000Y-100802914D01*
X125893718Y-100720444D01*
X125947202Y-100485032D01*
X125951053Y-100209294D01*
X125904162Y-99972480D01*
X125857000Y-99858057D01*
X125857000Y-98262914D01*
X125893718Y-98180444D01*
X125947202Y-97945032D01*
X125951053Y-97669294D01*
X125948223Y-97655000D01*
X129167157Y-97655000D01*
X129167157Y-98655000D01*
X129174513Y-98729689D01*
X129196299Y-98801508D01*
X129231678Y-98867696D01*
X129279289Y-98925711D01*
X129337304Y-98973322D01*
X129394000Y-99003627D01*
X129394000Y-99060000D01*
X129408874Y-99211697D01*
X129452930Y-99357616D01*
X129524489Y-99492199D01*
X129620825Y-99610319D01*
X129738270Y-99707478D01*
X129872350Y-99779975D01*
X130017958Y-99825048D01*
X130169548Y-99840981D01*
X130321345Y-99827166D01*
X130467568Y-99784131D01*
X130602647Y-99713513D01*
X130721437Y-99618003D01*
X130819414Y-99501239D01*
X130892845Y-99367669D01*
X130938933Y-99222379D01*
X130955924Y-99070904D01*
X130956000Y-99060000D01*
X130956000Y-99003627D01*
X131012696Y-98973322D01*
X131070711Y-98925711D01*
X131118322Y-98867696D01*
X131153701Y-98801508D01*
X131175487Y-98729689D01*
X131182843Y-98655000D01*
X131182843Y-97655000D01*
X140597157Y-97655000D01*
X140597157Y-98655000D01*
X140604513Y-98729689D01*
X140626299Y-98801508D01*
X140661678Y-98867696D01*
X140709289Y-98925711D01*
X140767304Y-98973322D01*
X140824000Y-99003627D01*
X140824000Y-99060000D01*
X140838874Y-99211697D01*
X140882930Y-99357616D01*
X140954489Y-99492199D01*
X141050825Y-99610319D01*
X141168270Y-99707478D01*
X141302350Y-99779975D01*
X141447958Y-99825048D01*
X141599548Y-99840981D01*
X141751345Y-99827166D01*
X141897568Y-99784131D01*
X142032647Y-99713513D01*
X142151437Y-99618003D01*
X142249414Y-99501239D01*
X142322845Y-99367669D01*
X142368933Y-99222379D01*
X142375536Y-99163506D01*
X156247382Y-99163506D01*
X156290962Y-99400951D01*
X156379831Y-99625410D01*
X156510606Y-99828332D01*
X156678304Y-100001989D01*
X156876539Y-100139766D01*
X157097760Y-100236415D01*
X157333540Y-100288255D01*
X157574898Y-100293310D01*
X157812642Y-100251390D01*
X158037716Y-100164089D01*
X158241546Y-100034735D01*
X158416370Y-99868253D01*
X158555527Y-99670984D01*
X158653718Y-99450444D01*
X158707202Y-99215032D01*
X158711053Y-98939294D01*
X158664162Y-98702480D01*
X158572167Y-98479284D01*
X158438572Y-98278208D01*
X158268465Y-98106909D01*
X158068326Y-97971913D01*
X157845778Y-97878363D01*
X157609297Y-97829820D01*
X157367891Y-97828135D01*
X157130756Y-97873371D01*
X156906923Y-97963805D01*
X156704919Y-98095993D01*
X156532437Y-98264900D01*
X156396047Y-98464092D01*
X156300945Y-98685982D01*
X156250753Y-98922118D01*
X156247382Y-99163506D01*
X142375536Y-99163506D01*
X142385924Y-99070904D01*
X142386000Y-99060000D01*
X142386000Y-99003627D01*
X142442696Y-98973322D01*
X142500711Y-98925711D01*
X142548322Y-98867696D01*
X142583701Y-98801508D01*
X142605487Y-98729689D01*
X142612843Y-98655000D01*
X142612843Y-97655000D01*
X142605487Y-97580311D01*
X142583701Y-97508492D01*
X142548322Y-97442304D01*
X142500711Y-97384289D01*
X142442696Y-97336678D01*
X142376508Y-97301299D01*
X142304689Y-97279513D01*
X142230000Y-97272157D01*
X140980000Y-97272157D01*
X140905311Y-97279513D01*
X140833492Y-97301299D01*
X140767304Y-97336678D01*
X140709289Y-97384289D01*
X140661678Y-97442304D01*
X140626299Y-97508492D01*
X140604513Y-97580311D01*
X140597157Y-97655000D01*
X131182843Y-97655000D01*
X131175487Y-97580311D01*
X131153701Y-97508492D01*
X131118322Y-97442304D01*
X131070711Y-97384289D01*
X131012696Y-97336678D01*
X130946508Y-97301299D01*
X130874689Y-97279513D01*
X130800000Y-97272157D01*
X129550000Y-97272157D01*
X129475311Y-97279513D01*
X129403492Y-97301299D01*
X129337304Y-97336678D01*
X129279289Y-97384289D01*
X129231678Y-97442304D01*
X129196299Y-97508492D01*
X129174513Y-97580311D01*
X129167157Y-97655000D01*
X125948223Y-97655000D01*
X125904162Y-97432480D01*
X125857000Y-97318057D01*
X125857000Y-96520000D01*
X125854560Y-96495224D01*
X125847333Y-96471399D01*
X125835597Y-96449443D01*
X125819803Y-96430197D01*
X125800557Y-96414403D01*
X125778601Y-96402667D01*
X125754776Y-96395440D01*
X125730000Y-96393000D01*
X125177939Y-96393000D01*
X125220024Y-96377250D01*
X129169000Y-96377250D01*
X129169000Y-96692525D01*
X129183642Y-96766133D01*
X129212362Y-96835471D01*
X129254058Y-96897873D01*
X129307126Y-96950942D01*
X129369529Y-96992638D01*
X129438866Y-97021358D01*
X129512475Y-97036000D01*
X129952750Y-97036000D01*
X130048000Y-96940750D01*
X130048000Y-96282000D01*
X130302000Y-96282000D01*
X130302000Y-96940750D01*
X130397250Y-97036000D01*
X130837525Y-97036000D01*
X130911134Y-97021358D01*
X130980471Y-96992638D01*
X131042874Y-96950942D01*
X131095942Y-96897873D01*
X131137638Y-96835471D01*
X131166358Y-96766133D01*
X131181000Y-96692525D01*
X131181000Y-96377250D01*
X140599000Y-96377250D01*
X140599000Y-96692525D01*
X140613642Y-96766133D01*
X140642362Y-96835471D01*
X140684058Y-96897873D01*
X140737126Y-96950942D01*
X140799529Y-96992638D01*
X140868866Y-97021358D01*
X140942475Y-97036000D01*
X141382750Y-97036000D01*
X141478000Y-96940750D01*
X141478000Y-96282000D01*
X141732000Y-96282000D01*
X141732000Y-96940750D01*
X141827250Y-97036000D01*
X142267525Y-97036000D01*
X142341134Y-97021358D01*
X142410471Y-96992638D01*
X142472874Y-96950942D01*
X142525942Y-96897873D01*
X142567638Y-96835471D01*
X142596358Y-96766133D01*
X142611000Y-96692525D01*
X142611000Y-96581464D01*
X150398039Y-96581464D01*
X150423918Y-96722466D01*
X150476691Y-96855755D01*
X150554348Y-96976256D01*
X150653932Y-97079378D01*
X150771649Y-97161194D01*
X150903016Y-97218586D01*
X151043028Y-97249370D01*
X151186353Y-97252372D01*
X151327532Y-97227479D01*
X151461186Y-97175637D01*
X151582226Y-97098823D01*
X151686041Y-96999962D01*
X151768676Y-96882819D01*
X151826985Y-96751856D01*
X151858745Y-96612062D01*
X151861031Y-96448322D01*
X151833187Y-96307695D01*
X151778558Y-96175156D01*
X151699225Y-96055751D01*
X151598212Y-95954030D01*
X151479364Y-95873866D01*
X151347209Y-95818313D01*
X151206780Y-95789487D01*
X151063427Y-95788486D01*
X150922610Y-95815348D01*
X150789692Y-95869051D01*
X150669736Y-95947547D01*
X150567312Y-96047849D01*
X150486320Y-96166134D01*
X150429846Y-96297898D01*
X150400041Y-96438122D01*
X150398039Y-96581464D01*
X142611000Y-96581464D01*
X142611000Y-96377250D01*
X142515750Y-96282000D01*
X141732000Y-96282000D01*
X141478000Y-96282000D01*
X140694250Y-96282000D01*
X140599000Y-96377250D01*
X131181000Y-96377250D01*
X131085750Y-96282000D01*
X130302000Y-96282000D01*
X130048000Y-96282000D01*
X129264250Y-96282000D01*
X129169000Y-96377250D01*
X125220024Y-96377250D01*
X125265020Y-96360411D01*
X125340477Y-96320078D01*
X125432495Y-96142100D01*
X124720000Y-95429605D01*
X124007505Y-96142100D01*
X124099523Y-96320078D01*
X124259669Y-96393000D01*
X123149807Y-96393000D01*
X123104162Y-96162480D01*
X123012167Y-95939284D01*
X122878572Y-95738208D01*
X122708465Y-95566909D01*
X122508326Y-95431913D01*
X122285778Y-95338363D01*
X122238198Y-95328596D01*
X123485544Y-95328596D01*
X123524598Y-95567917D01*
X123609589Y-95795020D01*
X123649922Y-95870477D01*
X123827900Y-95962495D01*
X124540395Y-95250000D01*
X124899605Y-95250000D01*
X125612100Y-95962495D01*
X125790078Y-95870477D01*
X125890566Y-95649793D01*
X125898165Y-95617475D01*
X129169000Y-95617475D01*
X129169000Y-95932750D01*
X129264250Y-96028000D01*
X130048000Y-96028000D01*
X130048000Y-95369250D01*
X130302000Y-95369250D01*
X130302000Y-96028000D01*
X131085750Y-96028000D01*
X131181000Y-95932750D01*
X131181000Y-95617475D01*
X140599000Y-95617475D01*
X140599000Y-95932750D01*
X140694250Y-96028000D01*
X141478000Y-96028000D01*
X141478000Y-95369250D01*
X141732000Y-95369250D01*
X141732000Y-96028000D01*
X142515750Y-96028000D01*
X142611000Y-95932750D01*
X142611000Y-95617475D01*
X142596358Y-95543867D01*
X142567638Y-95474529D01*
X142525942Y-95412127D01*
X142472874Y-95359058D01*
X142410471Y-95317362D01*
X142396232Y-95311464D01*
X155478039Y-95311464D01*
X155503918Y-95452466D01*
X155556691Y-95585755D01*
X155634348Y-95706256D01*
X155733932Y-95809378D01*
X155851649Y-95891194D01*
X155983016Y-95948586D01*
X156123028Y-95979370D01*
X156266353Y-95982372D01*
X156379629Y-95962399D01*
X156300945Y-96145982D01*
X156250753Y-96382118D01*
X156247382Y-96623506D01*
X156290962Y-96860951D01*
X156379831Y-97085410D01*
X156510606Y-97288332D01*
X156678304Y-97461989D01*
X156876539Y-97599766D01*
X157097760Y-97696415D01*
X157333540Y-97748255D01*
X157574898Y-97753310D01*
X157812642Y-97711390D01*
X158037716Y-97624089D01*
X158241546Y-97494735D01*
X158416370Y-97328253D01*
X158555527Y-97130984D01*
X158653718Y-96910444D01*
X158707202Y-96675032D01*
X158711053Y-96399294D01*
X158664162Y-96162480D01*
X158572167Y-95939284D01*
X158438572Y-95738208D01*
X158268465Y-95566909D01*
X158068326Y-95431913D01*
X157845778Y-95338363D01*
X157798198Y-95328596D01*
X159045544Y-95328596D01*
X159084598Y-95567917D01*
X159169589Y-95795020D01*
X159209922Y-95870477D01*
X159387900Y-95962495D01*
X160100395Y-95250000D01*
X159387900Y-94537505D01*
X159209922Y-94629523D01*
X159109434Y-94850207D01*
X159053931Y-95086255D01*
X159045544Y-95328596D01*
X157798198Y-95328596D01*
X157609297Y-95289820D01*
X157367891Y-95288135D01*
X157130756Y-95333371D01*
X156921513Y-95417910D01*
X156938745Y-95342062D01*
X156941031Y-95178322D01*
X156921441Y-95079383D01*
X157097760Y-95156415D01*
X157333540Y-95208255D01*
X157574898Y-95213310D01*
X157812642Y-95171390D01*
X158037716Y-95084089D01*
X158241546Y-94954735D01*
X158416370Y-94788253D01*
X158555527Y-94590984D01*
X158653718Y-94370444D01*
X158707202Y-94135032D01*
X158711053Y-93859294D01*
X158664162Y-93622480D01*
X158572167Y-93399284D01*
X158438572Y-93198208D01*
X158268465Y-93026909D01*
X158068326Y-92891913D01*
X157845778Y-92798363D01*
X157609297Y-92749820D01*
X157367891Y-92748135D01*
X157130756Y-92793371D01*
X156906923Y-92883805D01*
X156704919Y-93015993D01*
X156532437Y-93184900D01*
X156396047Y-93384092D01*
X156300945Y-93605982D01*
X156250753Y-93842118D01*
X156247382Y-94083506D01*
X156290962Y-94320951D01*
X156376891Y-94537984D01*
X156286780Y-94519487D01*
X156143427Y-94518486D01*
X156002610Y-94545348D01*
X155869692Y-94599051D01*
X155749736Y-94677547D01*
X155647312Y-94777849D01*
X155566320Y-94896134D01*
X155509846Y-95027898D01*
X155480041Y-95168122D01*
X155478039Y-95311464D01*
X142396232Y-95311464D01*
X142341134Y-95288642D01*
X142267525Y-95274000D01*
X141827250Y-95274000D01*
X141732000Y-95369250D01*
X141478000Y-95369250D01*
X141382750Y-95274000D01*
X140942475Y-95274000D01*
X140868866Y-95288642D01*
X140799529Y-95317362D01*
X140737126Y-95359058D01*
X140684058Y-95412127D01*
X140642362Y-95474529D01*
X140613642Y-95543867D01*
X140599000Y-95617475D01*
X131181000Y-95617475D01*
X131166358Y-95543867D01*
X131137638Y-95474529D01*
X131095942Y-95412127D01*
X131042874Y-95359058D01*
X130980471Y-95317362D01*
X130911134Y-95288642D01*
X130837525Y-95274000D01*
X130397250Y-95274000D01*
X130302000Y-95369250D01*
X130048000Y-95369250D01*
X129952750Y-95274000D01*
X129512475Y-95274000D01*
X129438866Y-95288642D01*
X129369529Y-95317362D01*
X129307126Y-95359058D01*
X129254058Y-95412127D01*
X129212362Y-95474529D01*
X129183642Y-95543867D01*
X129169000Y-95617475D01*
X125898165Y-95617475D01*
X125946069Y-95413745D01*
X125954456Y-95171404D01*
X125915402Y-94932083D01*
X125830411Y-94704980D01*
X125790078Y-94629523D01*
X125612100Y-94537505D01*
X124899605Y-95250000D01*
X124540395Y-95250000D01*
X123827900Y-94537505D01*
X123649922Y-94629523D01*
X123549434Y-94850207D01*
X123493931Y-95086255D01*
X123485544Y-95328596D01*
X122238198Y-95328596D01*
X122049297Y-95289820D01*
X122047000Y-95289804D01*
X122047000Y-95207650D01*
X122252642Y-95171390D01*
X122477716Y-95084089D01*
X122681546Y-94954735D01*
X122856370Y-94788253D01*
X122995527Y-94590984D01*
X123093718Y-94370444D01*
X123096567Y-94357900D01*
X124007505Y-94357900D01*
X124720000Y-95070395D01*
X125432495Y-94357900D01*
X125340477Y-94179922D01*
X125119793Y-94079434D01*
X124958311Y-94041464D01*
X135158039Y-94041464D01*
X135183918Y-94182466D01*
X135236691Y-94315755D01*
X135314348Y-94436256D01*
X135413932Y-94539378D01*
X135531649Y-94621194D01*
X135663016Y-94678586D01*
X135803028Y-94709370D01*
X135946353Y-94712372D01*
X136087532Y-94687479D01*
X136221186Y-94635637D01*
X136342226Y-94558823D01*
X136446041Y-94459962D01*
X136528676Y-94342819D01*
X136586985Y-94211856D01*
X136618745Y-94072062D01*
X136621031Y-93908322D01*
X136593187Y-93767695D01*
X136538558Y-93635156D01*
X136459225Y-93515751D01*
X136358212Y-93414030D01*
X136346995Y-93406464D01*
X140238039Y-93406464D01*
X140263918Y-93547466D01*
X140316691Y-93680755D01*
X140394348Y-93801256D01*
X140493932Y-93904378D01*
X140611649Y-93986194D01*
X140743016Y-94043586D01*
X140883028Y-94074370D01*
X141026353Y-94077372D01*
X141167532Y-94052479D01*
X141301186Y-94000637D01*
X141422226Y-93923823D01*
X141526041Y-93824962D01*
X141608676Y-93707819D01*
X141666985Y-93576856D01*
X141698745Y-93437062D01*
X141701031Y-93273322D01*
X141673187Y-93132695D01*
X141618558Y-93000156D01*
X141539225Y-92880751D01*
X141438212Y-92779030D01*
X141319364Y-92698866D01*
X141187209Y-92643313D01*
X141046780Y-92614487D01*
X140903427Y-92613486D01*
X140762610Y-92640348D01*
X140629692Y-92694051D01*
X140509736Y-92772547D01*
X140407312Y-92872849D01*
X140326320Y-92991134D01*
X140269846Y-93122898D01*
X140240041Y-93263122D01*
X140238039Y-93406464D01*
X136346995Y-93406464D01*
X136239364Y-93333866D01*
X136107209Y-93278313D01*
X135966780Y-93249487D01*
X135823427Y-93248486D01*
X135682610Y-93275348D01*
X135549692Y-93329051D01*
X135429736Y-93407547D01*
X135327312Y-93507849D01*
X135246320Y-93626134D01*
X135189846Y-93757898D01*
X135160041Y-93898122D01*
X135158039Y-94041464D01*
X124958311Y-94041464D01*
X124883745Y-94023931D01*
X124641404Y-94015544D01*
X124402083Y-94054598D01*
X124174980Y-94139589D01*
X124099523Y-94179922D01*
X124007505Y-94357900D01*
X123096567Y-94357900D01*
X123147202Y-94135032D01*
X123151053Y-93859294D01*
X123104162Y-93622480D01*
X123012167Y-93399284D01*
X122878572Y-93198208D01*
X122708465Y-93026909D01*
X122508326Y-92891913D01*
X122321802Y-92813506D01*
X123487382Y-92813506D01*
X123530962Y-93050951D01*
X123619831Y-93275410D01*
X123750606Y-93478332D01*
X123918304Y-93651989D01*
X124116539Y-93789766D01*
X124337760Y-93886415D01*
X124573540Y-93938255D01*
X124814898Y-93943310D01*
X125052642Y-93901390D01*
X125277716Y-93814089D01*
X125481546Y-93684735D01*
X125656370Y-93518253D01*
X125795527Y-93320984D01*
X125893718Y-93100444D01*
X125947202Y-92865032D01*
X125951053Y-92589294D01*
X125904162Y-92352480D01*
X125812167Y-92129284D01*
X125678572Y-91928208D01*
X125508465Y-91756909D01*
X125308326Y-91621913D01*
X125085778Y-91528363D01*
X124849297Y-91479820D01*
X124607891Y-91478135D01*
X124370756Y-91523371D01*
X124146923Y-91613805D01*
X123944919Y-91745993D01*
X123772437Y-91914900D01*
X123636047Y-92114092D01*
X123540945Y-92335982D01*
X123490753Y-92572118D01*
X123487382Y-92813506D01*
X122321802Y-92813506D01*
X122285778Y-92798363D01*
X122049297Y-92749820D01*
X122047000Y-92749804D01*
X122047000Y-92667650D01*
X122252642Y-92631390D01*
X122477716Y-92544089D01*
X122681546Y-92414735D01*
X122856370Y-92248253D01*
X122995527Y-92050984D01*
X123093718Y-91830444D01*
X123147202Y-91595032D01*
X123151053Y-91319294D01*
X123104162Y-91082480D01*
X123012167Y-90859284D01*
X122878572Y-90658208D01*
X122708465Y-90486909D01*
X122508326Y-90351913D01*
X122321802Y-90273506D01*
X123487382Y-90273506D01*
X123530962Y-90510951D01*
X123619831Y-90735410D01*
X123750606Y-90938332D01*
X123918304Y-91111989D01*
X124116539Y-91249766D01*
X124337760Y-91346415D01*
X124573540Y-91398255D01*
X124814898Y-91403310D01*
X125052642Y-91361390D01*
X125277716Y-91274089D01*
X125481546Y-91144735D01*
X125656370Y-90978253D01*
X125795527Y-90780984D01*
X125844940Y-90670000D01*
X128532157Y-90670000D01*
X128532157Y-91670000D01*
X128539513Y-91744689D01*
X128561299Y-91816508D01*
X128596678Y-91882696D01*
X128644289Y-91940711D01*
X128702304Y-91988322D01*
X128768492Y-92023701D01*
X128840311Y-92045487D01*
X128915000Y-92052843D01*
X129683343Y-92052843D01*
X130257749Y-92627250D01*
X130375533Y-92723999D01*
X130509866Y-92796027D01*
X130655630Y-92840591D01*
X130807273Y-92855995D01*
X130959021Y-92841651D01*
X131105093Y-92798105D01*
X131239925Y-92727016D01*
X131358382Y-92631092D01*
X131455950Y-92513987D01*
X131528915Y-92380161D01*
X131574495Y-92234711D01*
X131590957Y-92083178D01*
X131577672Y-91931333D01*
X131535148Y-91784962D01*
X131465001Y-91649637D01*
X131380280Y-91543506D01*
X156247382Y-91543506D01*
X156290962Y-91780951D01*
X156379831Y-92005410D01*
X156510606Y-92208332D01*
X156678304Y-92381989D01*
X156876539Y-92519766D01*
X157097760Y-92616415D01*
X157333540Y-92668255D01*
X157574898Y-92673310D01*
X157812642Y-92631390D01*
X158037716Y-92544089D01*
X158241546Y-92414735D01*
X158416370Y-92248253D01*
X158555527Y-92050984D01*
X158653718Y-91830444D01*
X158707202Y-91595032D01*
X158711053Y-91319294D01*
X158664162Y-91082480D01*
X158572167Y-90859284D01*
X158438572Y-90658208D01*
X158268465Y-90486909D01*
X158068326Y-90351913D01*
X157845778Y-90258363D01*
X157609297Y-90209820D01*
X157367891Y-90208135D01*
X157130756Y-90253371D01*
X156906923Y-90343805D01*
X156704919Y-90475993D01*
X156532437Y-90644900D01*
X156396047Y-90844092D01*
X156300945Y-91065982D01*
X156250753Y-91302118D01*
X156247382Y-91543506D01*
X131380280Y-91543506D01*
X131369907Y-91530513D01*
X131362250Y-91522749D01*
X130547843Y-90708343D01*
X130547843Y-90670000D01*
X130540487Y-90595311D01*
X130518701Y-90523492D01*
X130483322Y-90457304D01*
X130435711Y-90399289D01*
X130377696Y-90351678D01*
X130311508Y-90316299D01*
X130239689Y-90294513D01*
X130165000Y-90287157D01*
X128915000Y-90287157D01*
X128840311Y-90294513D01*
X128768492Y-90316299D01*
X128702304Y-90351678D01*
X128644289Y-90399289D01*
X128596678Y-90457304D01*
X128561299Y-90523492D01*
X128539513Y-90595311D01*
X128532157Y-90670000D01*
X125844940Y-90670000D01*
X125893718Y-90560444D01*
X125947202Y-90325032D01*
X125951053Y-90049294D01*
X125904162Y-89812480D01*
X125812167Y-89589284D01*
X125681258Y-89392250D01*
X128534000Y-89392250D01*
X128534000Y-89707525D01*
X128548642Y-89781133D01*
X128577362Y-89850471D01*
X128619058Y-89912873D01*
X128672126Y-89965942D01*
X128734529Y-90007638D01*
X128803866Y-90036358D01*
X128877475Y-90051000D01*
X129317750Y-90051000D01*
X129413000Y-89955750D01*
X129413000Y-89297000D01*
X129667000Y-89297000D01*
X129667000Y-89955750D01*
X129762250Y-90051000D01*
X130202525Y-90051000D01*
X130276134Y-90036358D01*
X130345471Y-90007638D01*
X130407874Y-89965942D01*
X130460942Y-89912873D01*
X130502638Y-89850471D01*
X130526815Y-89792100D01*
X156767505Y-89792100D01*
X156859523Y-89970078D01*
X157080207Y-90070566D01*
X157316255Y-90126069D01*
X157558596Y-90134456D01*
X157797917Y-90095402D01*
X158025020Y-90010411D01*
X158100477Y-89970078D01*
X158192495Y-89792100D01*
X157480000Y-89079605D01*
X156767505Y-89792100D01*
X130526815Y-89792100D01*
X130531358Y-89781133D01*
X130546000Y-89707525D01*
X130546000Y-89392250D01*
X130450750Y-89297000D01*
X129667000Y-89297000D01*
X129413000Y-89297000D01*
X128629250Y-89297000D01*
X128534000Y-89392250D01*
X125681258Y-89392250D01*
X125678572Y-89388208D01*
X125508465Y-89216909D01*
X125308326Y-89081913D01*
X125085778Y-88988363D01*
X124849297Y-88939820D01*
X124607891Y-88938135D01*
X124370756Y-88983371D01*
X124146923Y-89073805D01*
X123944919Y-89205993D01*
X123772437Y-89374900D01*
X123636047Y-89574092D01*
X123540945Y-89795982D01*
X123490753Y-90032118D01*
X123487382Y-90273506D01*
X122321802Y-90273506D01*
X122285778Y-90258363D01*
X122049297Y-90209820D01*
X122047000Y-90209804D01*
X122047000Y-90126557D01*
X122237917Y-90095402D01*
X122465020Y-90010411D01*
X122540477Y-89970078D01*
X122632495Y-89792100D01*
X122047000Y-89206605D01*
X122047000Y-88900000D01*
X122099605Y-88900000D01*
X122812100Y-89612495D01*
X122990078Y-89520477D01*
X123090566Y-89299793D01*
X123146069Y-89063745D01*
X123154456Y-88821404D01*
X123115402Y-88582083D01*
X123030411Y-88354980D01*
X122990078Y-88279523D01*
X122812100Y-88187505D01*
X122099605Y-88900000D01*
X122047000Y-88900000D01*
X122047000Y-88593395D01*
X122632495Y-88007900D01*
X122540477Y-87829922D01*
X122380331Y-87757000D01*
X123491694Y-87757000D01*
X123530962Y-87970951D01*
X123619831Y-88195410D01*
X123750606Y-88398332D01*
X123918304Y-88571989D01*
X124116539Y-88709766D01*
X124337760Y-88806415D01*
X124573540Y-88858255D01*
X124814898Y-88863310D01*
X125052642Y-88821390D01*
X125277716Y-88734089D01*
X125437834Y-88632475D01*
X128534000Y-88632475D01*
X128534000Y-88947750D01*
X128629250Y-89043000D01*
X129413000Y-89043000D01*
X129413000Y-88384250D01*
X129667000Y-88384250D01*
X129667000Y-89043000D01*
X130450750Y-89043000D01*
X130515154Y-88978596D01*
X156245544Y-88978596D01*
X156284598Y-89217917D01*
X156369589Y-89445020D01*
X156409922Y-89520477D01*
X156587900Y-89612495D01*
X157300395Y-88900000D01*
X157659605Y-88900000D01*
X158372100Y-89612495D01*
X158550078Y-89520477D01*
X158650566Y-89299793D01*
X158706069Y-89063745D01*
X158714456Y-88821404D01*
X158675402Y-88582083D01*
X158590411Y-88354980D01*
X158550078Y-88279523D01*
X158372100Y-88187505D01*
X157659605Y-88900000D01*
X157300395Y-88900000D01*
X156587900Y-88187505D01*
X156409922Y-88279523D01*
X156309434Y-88500207D01*
X156253931Y-88736255D01*
X156245544Y-88978596D01*
X130515154Y-88978596D01*
X130546000Y-88947750D01*
X130546000Y-88632475D01*
X130531358Y-88558867D01*
X130502638Y-88489529D01*
X130460942Y-88427127D01*
X130407874Y-88374058D01*
X130345471Y-88332362D01*
X130276134Y-88303642D01*
X130202525Y-88289000D01*
X129762250Y-88289000D01*
X129667000Y-88384250D01*
X129413000Y-88384250D01*
X129317750Y-88289000D01*
X128877475Y-88289000D01*
X128803866Y-88303642D01*
X128734529Y-88332362D01*
X128672126Y-88374058D01*
X128619058Y-88427127D01*
X128577362Y-88489529D01*
X128548642Y-88558867D01*
X128534000Y-88632475D01*
X125437834Y-88632475D01*
X125481546Y-88604735D01*
X125656370Y-88438253D01*
X125795527Y-88240984D01*
X125893718Y-88020444D01*
X125947202Y-87785032D01*
X125947593Y-87757000D01*
X142240000Y-87757000D01*
X142264776Y-87754560D01*
X142288601Y-87747333D01*
X142310557Y-87735597D01*
X142329803Y-87719803D01*
X142345597Y-87700557D01*
X142357333Y-87678601D01*
X142364560Y-87654776D01*
X142367000Y-87630000D01*
X142367000Y-80137000D01*
X146558000Y-80137000D01*
X146558000Y-88265000D01*
%TD*%
M02*
